SourceSans_Black.ufo
<glyph name="dollar" format="1">
	<unicode hex="0024"/>
	<advance width="540"/>
	<outline>
		<contour>
			<point x="246" y="-12" type="curve" smooth="yes"/>
			<point x="404" y="-12"/>
			<point x="480" y="76"/>
			<point x="480" y="194" type="curve" smooth="yes"/>
			<point x="480" y="376"/>
			<point x="222" y="380"/>
			<point x="222" y="456" type="curve" smooth="yes"/>
			<point x="222" y="494"/>
			<point x="243" y="508"/>
			<point x="282" y="508" type="curve" smooth="yes"/>
			<point x="320" y="508"/>
			<point x="356" y="492"/>
			<point x="390" y="462" type="curve"/>
			<point x="476" y="556" type="line"/>
			<point x="426" y="610"/>
			<point x="364" y="646"/>
			<point x="276" y="646" type="curve" smooth="yes"/>
			<point x="141" y="646"/>
			<point x="58" y="570"/>
			<point x="58" y="448" type="curve" smooth="yes"/>
			<point x="58" y="273"/>
			<point x="316" y="262"/>
			<point x="316" y="180" type="curve" smooth="yes"/>
			<point x="316" y="144"/>
			<point x="296" y="126"/>
			<point x="246" y="126" type="curve" smooth="yes"/>
			<point x="204" y="126"/>
			<point x="162" y="136"/>
			<point x="110" y="178" type="curve"/>
			<point x="34" y="72" type="line"/>
			<point x="94" y="12"/>
			<point x="172" y="-12"/>
		</contour>
		<contour>
			<point x="212" y="-110" type="line"/>
			<point x="324" y="-110" type="line"/>
			<point x="324" y="60" type="line"/>
			<point x="212" y="60" type="line"/>
		</contour>
		<contour>
			<point x="212" y="594" type="line"/>
			<point x="324" y="594" type="line"/>
			<point x="324" y="744" type="line"/>
			<point x="212" y="744" type="line"/>
		</contour>
	</outline>
</glyph>
<glyph name="two" format="1">
	<unicode hex="0032"/>
	<advance width="540"/>
	<outline>
		<contour>
			<point x="36" y="0" type="line"/>
			<point x="496" y="0" type="line"/>
			<point x="496" y="144" type="line"/>
			<point x="374" y="144" type="line" smooth="yes"/>
			<point x="346" y="144"/>
			<point x="300" y="140"/>
			<point x="268" y="136" type="curve"/>
			<point x="364" y="228"/>
			<point x="466" y="328"/>
			<point x="466" y="440" type="curve" smooth="yes"/>
			<point x="466" y="564"/>
			<point x="376" y="646"/>
			<point x="248" y="646" type="curve" smooth="yes"/>
			<point x="154" y="646"/>
			<point x="94" y="614"/>
			<point x="28" y="544" type="curve"/>
			<point x="120" y="452" type="line"/>
			<point x="150" y="482"/>
			<point x="182" y="512"/>
			<point x="224" y="512" type="curve" smooth="yes"/>
			<point x="270" y="512"/>
			<point x="302" y="485"/>
			<point x="302" y="428" type="curve" smooth="yes"/>
			<point x="302" y="344"/>
			<point x="184" y="232"/>
			<point x="36" y="106" type="curve"/>
		</contour>
	</outline>
</glyph>
<glyph name="B" format="2">
	<unicode hex="0042"/>
	<advance width="612"/>
	<outline>
		<contour>
			<point x="72" y="0" type="line"/>
			<point x="326" y="0" type="line" smooth="yes"/>
			<point x="466" y="0"/>
			<point x="582" y="60"/>
			<point x="582" y="200" type="curve" smooth="yes"/>
			<point x="582" y="282"/>
			<point x="540" y="326"/>
			<point x="470" y="344" type="curve"/>
			<point x="470" y="348" type="line"/>
			<point x="522" y="368"/>
			<point x="552" y="424"/>
			<point x="552" y="488" type="curve" smooth="yes"/>
			<point x="552" y="616"/>
			<point x="442" y="650"/>
			<point x="306" y="650" type="curve" smooth="yes"/>
			<point x="72" y="650" type="line"/>
		</contour>
		<contour>
			<point x="244" y="396" type="line"/>
			<point x="244" y="518" type="line"/>
			<point x="302" y="518" type="line" smooth="yes"/>
			<point x="358" y="518"/>
			<point x="384" y="502"/>
			<point x="384" y="462" type="curve" smooth="yes"/>
			<point x="384" y="422"/>
			<point x="358" y="396"/>
			<point x="302" y="396" type="curve" smooth="yes"/>
		</contour>
		<contour>
			<point x="244" y="132" type="line"/>
			<point x="244" y="270" type="line"/>
			<point x="314" y="270" type="line" smooth="yes"/>
			<point x="382" y="270"/>
			<point x="414" y="252"/>
			<point x="414" y="204" type="curve" smooth="yes"/>
			<point x="414" y="156"/>
			<point x="382" y="132"/>
			<point x="314" y="132" type="curve" smooth="yes"/>
		</contour>
	</outline>
	<anchor name="aboveUC" x="310" y="672"/>
	<anchor name="belowLC" x="320" y="-22"/>
</glyph>
<glyph name="D" format="2">
	<unicode hex="0044"/>
	<advance width="642"/>
	<outline>
		<contour>
			<point x="72" y="0" type="line"/>
			<point x="274" y="0" type="line" smooth="yes"/>
			<point x="462" y="0"/>
			<point x="598" y="98"/>
			<point x="598" y="328" type="curve" smooth="yes"/>
			<point x="598" y="558"/>
			<point x="462" y="650"/>
			<point x="264" y="650" type="curve" smooth="yes"/>
			<point x="72" y="650" type="line"/>
		</contour>
		<contour>
			<point x="244" y="138" type="line"/>
			<point x="244" y="512" type="line"/>
			<point x="254" y="512" type="line" smooth="yes"/>
			<point x="348" y="512"/>
			<point x="422" y="480"/>
			<point x="422" y="328" type="curve" smooth="yes"/>
			<point x="422" y="176"/>
			<point x="348" y="138"/>
			<point x="254" y="138" type="curve" smooth="yes"/>
		</contour>
	</outline>
	<anchor name="aboveUC" x="330" y="672"/>
	<anchor name="belowLC" x="320" y="-22"/>
</glyph>
<glyph name="G" format="2">
	<unicode hex="0047"/>
	<advance width="646"/>
	<outline>
		<contour>
			<point x="372" y="-12" type="curve" smooth="yes"/>
			<point x="464" y="-12"/>
			<point x="546" y="24"/>
			<point x="592" y="68" type="curve"/>
			<point x="592" y="378" type="line"/>
			<point x="344" y="378" type="line"/>
			<point x="344" y="238" type="line"/>
			<point x="440" y="238" type="line"/>
			<point x="440" y="148" type="line"/>
			<point x="428" y="140"/>
			<point x="408" y="136"/>
			<point x="390" y="136" type="curve" smooth="yes"/>
			<point x="274" y="136"/>
			<point x="220" y="204"/>
			<point x="220" y="326" type="curve" smooth="yes"/>
			<point x="220" y="444"/>
			<point x="286" y="514"/>
			<point x="374" y="514" type="curve" smooth="yes"/>
			<point x="426" y="514"/>
			<point x="458" y="500"/>
			<point x="490" y="472" type="curve"/>
			<point x="580" y="576" type="line"/>
			<point x="534" y="624"/>
			<point x="464" y="662"/>
			<point x="368" y="662" type="curve" smooth="yes"/>
			<point x="194" y="662"/>
			<point x="44" y="538"/>
			<point x="44" y="320" type="curve" smooth="yes"/>
			<point x="44" y="98"/>
			<point x="190" y="-12"/>
		</contour>
	</outline>
	<anchor name="aboveUC" x="370" y="672"/>
	<anchor name="belowLC" x="370" y="-22"/>
</glyph>
<glyph name="I" format="2">
	<unicode hex="0049"/>
	<advance width="316"/>
	<outline>
		<contour>
			<point x="72" y="0" type="line"/>
			<point x="244" y="0" type="line"/>
			<point x="244" y="650" type="line"/>
			<point x="72" y="650" type="line"/>
		</contour>
	</outline>
	<anchor name="aboveUC" x="160" y="672"/>
	<anchor name="belowLC" x="160" y="-22"/>
	<anchor name="ogonekUC" x="160" y="0"/>
</glyph>
<glyph name="J" format="2">
	<unicode hex="004A"/>
	<advance width="520"/>
	<outline>
		<contour>
			<point x="220" y="-12" type="curve" smooth="yes"/>
			<point x="378" y="-12"/>
			<point x="452" y="98"/>
			<point x="452" y="232" type="curve" smooth="yes"/>
			<point x="452" y="650" type="line"/>
			<point x="280" y="650" type="line"/>
			<point x="280" y="246" type="line" smooth="yes"/>
			<point x="280" y="160"/>
			<point x="254" y="136"/>
			<point x="202" y="136" type="curve" smooth="yes"/>
			<point x="170" y="136"/>
			<point x="138" y="156"/>
			<point x="122" y="188" type="curve"/>
			<point x="14" y="114" type="line"/>
			<point x="58" y="26"/>
			<point x="124" y="-12"/>
		</contour>
	</outline>
	<anchor name="aboveUC" x="360" y="672"/>
	<anchor name="belowLC" x="270" y="-22"/>
</glyph>
<glyph name="K" format="2">
	<unicode hex="004B"/>
	<advance width="628"/>
	<outline>
		<contour>
			<point x="72" y="0" type="line"/>
			<point x="244" y="0" type="line"/>
			<point x="244" y="162" type="line"/>
			<point x="306" y="250" type="line"/>
			<point x="450" y="0" type="line"/>
			<point x="638" y="0" type="line"/>
			<point x="406" y="386" type="line"/>
			<point x="600" y="650" type="line"/>
			<point x="412" y="650" type="line"/>
			<point x="248" y="408" type="line"/>
			<point x="244" y="408" type="line"/>
			<point x="244" y="650" type="line"/>
			<point x="72" y="650" type="line"/>
		</contour>
	</outline>
	<anchor name="aboverightUC" x="530" y="672"/>
	<anchor name="aboveUC" x="322" y="672"/>
	<anchor name="belowLC" x="334" y="-22"/>
</glyph>
<glyph name="L" format="1">
	<unicode hex="004C"/>
	<advance width="530"/>
	<outline>
		<contour>
			<point x="72" y="0" type="line"/>
			<point x="490" y="0" type="line"/>
			<point x="490" y="144" type="line"/>
			<point x="244" y="144" type="line"/>
			<point x="244" y="650" type="line"/>
			<point x="72" y="650" type="line"/>
		</contour>
		<contour>
			<point name="aboveUC" x="160" y="672" type="move"/>
		</contour>
		<contour>
			<point name="belowLC" x="290" y="-22" type="move"/>
		</contour>
	</outline>
</glyph>
<glyph name="M" format="1">
	<unicode hex="004D"/>
	<advance width="776"/>
	<outline>
		<contour>
			<point x="72" y="0" type="line"/>
			<point x="226" y="0" type="line"/>
			<point x="226" y="192" type="line" smooth="yes"/>
			<point x="226" y="258"/>
			<point x="212" y="378"/>
			<point x="204" y="444" type="curve"/>
			<point x="208" y="444" type="line"/>
			<point x="260" y="268" type="line"/>
			<point x="340" y="53" type="line"/>
			<point x="432" y="53" type="line"/>
			<point x="512" y="268" type="line"/>
			<point x="566" y="444" type="line"/>
			<point x="570" y="444" type="line"/>
			<point x="562" y="378"/>
			<point x="548" y="258"/>
			<point x="548" y="192" type="curve" smooth="yes"/>
			<point x="548" y="0" type="line"/>
			<point x="704" y="0" type="line"/>
			<point x="704" y="650" type="line"/>
			<point x="520" y="650" type="line"/>
			<point x="426" y="384" type="line"/>
			<point x="414" y="348"/>
			<point x="404" y="308"/>
			<point x="392" y="270" type="curve"/>
			<point x="388" y="270" type="line"/>
			<point x="376" y="308"/>
			<point x="366" y="348"/>
			<point x="354" y="384" type="curve"/>
			<point x="256" y="650" type="line"/>
			<point x="72" y="650" type="line"/>
		</contour>
		<contour>
			<point name="aboveUC" x="388" y="672" type="move"/>
		</contour>
		<contour>
			<point name="belowLC" x="390" y="-22" type="move"/>
		</contour>
	</outline>
</glyph>
<glyph name="P" format="2">
	<unicode hex="0050"/>
	<advance width="608"/>
	<outline>
		<contour>
			<point x="72" y="0" type="line"/>
			<point x="244" y="0" type="line"/>
			<point x="244" y="206" type="line"/>
			<point x="314" y="206" type="line" smooth="yes"/>
			<point x="450" y="206"/>
			<point x="574" y="275"/>
			<point x="574" y="434" type="curve" smooth="yes"/>
			<point x="574" y="598"/>
			<point x="452" y="650"/>
			<point x="310" y="650" type="curve" smooth="yes"/>
			<point x="72" y="650" type="line"/>
		</contour>
		<contour>
			<point x="244" y="342" type="line"/>
			<point x="244" y="514" type="line"/>
			<point x="302" y="514" type="line" smooth="yes"/>
			<point x="368" y="514"/>
			<point x="406" y="492"/>
			<point x="406" y="434" type="curve" smooth="yes"/>
			<point x="406" y="376"/>
			<point x="374" y="342"/>
			<point x="306" y="342" type="curve" smooth="yes"/>
		</contour>
	</outline>
	<anchor name="aboverightUC" x="500" y="672"/>
	<anchor name="aboveUC" x="320" y="672"/>
	<anchor name="belowLC" x="170" y="-22"/>
</glyph>
<glyph name="U" format="2">
	<unicode hex="0055"/>
	<advance width="672"/>
	<outline>
		<contour>
			<point x="338" y="-12" type="curve" smooth="yes"/>
			<point x="520" y="-12"/>
			<point x="604" y="89"/>
			<point x="604" y="304" type="curve" smooth="yes"/>
			<point x="604" y="650" type="line"/>
			<point x="438" y="650" type="line"/>
			<point x="438" y="284" type="line" smooth="yes"/>
			<point x="438" y="175"/>
			<point x="406" y="136"/>
			<point x="338" y="136" type="curve" smooth="yes"/>
			<point x="270" y="136"/>
			<point x="240" y="175"/>
			<point x="240" y="284" type="curve" smooth="yes"/>
			<point x="240" y="650" type="line"/>
			<point x="68" y="650" type="line"/>
			<point x="68" y="304" type="line" smooth="yes"/>
			<point x="68" y="89"/>
			<point x="156" y="-12"/>
		</contour>
	</outline>
	<anchor name="aboveUC" x="336" y="672"/>
	<anchor name="belowLC" x="336" y="-22"/>
	<anchor name="hornLC" x="552" y="660"/>
	<anchor name="ogonekUC" x="336" y="0"/>
</glyph>
<glyph name="V" format="1">
	<unicode hex="0056"/>
	<advance width="572"/>
	<outline>
		<contour>
			<point x="178" y="0" type="line"/>
			<point x="386" y="0" type="line"/>
			<point x="582" y="650" type="line"/>
			<point x="406" y="650" type="line"/>
			<point x="336" y="366" type="line" smooth="yes"/>
			<point x="319" y="297"/>
			<point x="306" y="230"/>
			<point x="288" y="160" type="curve"/>
			<point x="284" y="160" type="line"/>
			<point x="266" y="230"/>
			<point x="252" y="297"/>
			<point x="236" y="366" type="curve" smooth="yes"/>
			<point x="172" y="650" type="line"/>
			<point x="-10" y="650" type="line"/>
		</contour>
		<contour>
			<point name="aboveUC" x="286" y="672" type="move"/>
		</contour>
		<contour>
			<point name="belowLC" x="282" y="-22" type="move"/>
		</contour>
	</outline>
</glyph>
<glyph name="W" format="1">
	<unicode hex="0057"/>
	<advance width="824"/>
	<outline>
		<contour>
			<point x="122" y="0" type="line"/>
			<point x="336" y="0" type="line"/>
			<point x="384" y="258" type="line"/>
			<point x="394" y="308"/>
			<point x="401" y="362"/>
			<point x="408" y="410" type="curve"/>
			<point x="412" y="410" type="line"/>
			<point x="418" y="362"/>
			<point x="426" y="308"/>
			<point x="436" y="258" type="curve"/>
			<point x="486" y="0" type="line"/>
			<point x="704" y="0" type="line"/>
			<point x="814" y="650" type="line"/>
			<point x="650" y="650" type="line"/>
			<point x="612" y="366" type="line"/>
			<point x="605" y="300"/>
			<point x="597" y="231"/>
			<point x="590" y="162" type="curve"/>
			<point x="586" y="162" type="line"/>
			<point x="574" y="231"/>
			<point x="562" y="301"/>
			<point x="550" y="366" type="curve"/>
			<point x="490" y="650" type="line"/>
			<point x="346" y="650" type="line"/>
			<point x="282" y="366" type="line"/>
			<point x="270" y="299"/>
			<point x="258" y="230"/>
			<point x="246" y="162" type="curve"/>
			<point x="242" y="162" type="line"/>
			<point x="235" y="230"/>
			<point x="227" y="298"/>
			<point x="220" y="366" type="curve"/>
			<point x="186" y="650" type="line"/>
			<point x="10" y="650" type="line"/>
		</contour>
		<contour>
			<point name="aboveUC" x="410" y="672" type="move"/>
		</contour>
		<contour>
			<point name="belowLC" x="410" y="-22" type="move"/>
		</contour>
	</outline>
</glyph>
<glyph name="Y" format="2">
	<unicode hex="0059"/>
	<advance width="544"/>
	<outline>
		<contour>
			<point x="186" y="0" type="line"/>
			<point x="358" y="0" type="line"/>
			<point x="358" y="224" type="line"/>
			<point x="554" y="650" type="line"/>
			<point x="374" y="650" type="line"/>
			<point x="326" y="514" type="line"/>
			<point x="309" y="465"/>
			<point x="292" y="420"/>
			<point x="275" y="369" type="curve"/>
			<point x="271" y="369" type="line"/>
			<point x="254" y="420"/>
			<point x="238" y="465"/>
			<point x="222" y="514" type="curve"/>
			<point x="174" y="650" type="line"/>
			<point x="-10" y="650" type="line"/>
			<point x="186" y="224" type="line"/>
		</contour>
	</outline>
	<anchor name="aboverightUC" x="500" y="672"/>
	<anchor name="aboveUC" x="270" y="672"/>
	<anchor name="belowLC" x="270" y="-22"/>
</glyph>
<glyph name="Z" format="2">
	<unicode hex="005A"/>
	<advance width="542"/>
	<outline>
		<contour>
			<point x="32" y="0" type="line"/>
			<point x="512" y="0" type="line"/>
			<point x="512" y="144" type="line"/>
			<point x="244" y="144" type="line"/>
			<point x="510" y="546" type="line"/>
			<point x="510" y="650" type="line"/>
			<point x="58" y="650" type="line"/>
			<point x="58" y="506" type="line"/>
			<point x="298" y="506" type="line"/>
			<point x="32" y="104" type="line"/>
		</contour>
	</outline>
	<anchor name="aboveUC" x="284" y="672"/>
	<anchor name="belowLC" x="282" y="-22"/>
</glyph>
<glyph name="b" format="2">
	<unicode hex="0062"/>
	<advance width="580"/>
	<outline>
		<contour>
			<point x="336" y="-12" type="curve" smooth="yes"/>
			<point x="442" y="-12"/>
			<point x="544" y="86"/>
			<point x="544" y="259" type="curve" smooth="yes"/>
			<point x="544" y="412"/>
			<point x="467" y="512"/>
			<point x="349" y="512" type="curve" smooth="yes"/>
			<point x="305" y="512"/>
			<point x="261" y="494"/>
			<point x="226" y="462" type="curve"/>
			<point x="230" y="534" type="line"/>
			<point x="230" y="696" type="line"/>
			<point x="58" y="696" type="line"/>
			<point x="58" y="0" type="line"/>
			<point x="192" y="0" type="line"/>
			<point x="206" y="54" type="line"/>
			<point x="210" y="54" type="line"/>
			<point x="248" y="10"/>
			<point x="292" y="-12"/>
		</contour>
		<contour>
			<point x="294" y="128" type="curve" smooth="yes"/>
			<point x="272" y="128"/>
			<point x="250" y="134"/>
			<point x="230" y="152" type="curve"/>
			<point x="230" y="336" type="line"/>
			<point x="252" y="362"/>
			<point x="272" y="372"/>
			<point x="298" y="372" type="curve" smooth="yes"/>
			<point x="344" y="372"/>
			<point x="368" y="338"/>
			<point x="368" y="256" type="curve" smooth="yes"/>
			<point x="368" y="160"/>
			<point x="334" y="128"/>
		</contour>
	</outline>
	<anchor name="aboveUC" x="320" y="722"/>
	<anchor name="belowLC" x="290" y="-22"/>
	<anchor name="center" x="150" y="580"/>
</glyph>
<glyph name="c" format="2">
	<unicode hex="0063"/>
	<advance width="472"/>
	<outline>
		<contour>
			<point x="288" y="-12" type="curve" smooth="yes"/>
			<point x="348" y="-12"/>
			<point x="409" y="10"/>
			<point x="450" y="48" type="curve"/>
			<point x="384" y="154" type="line"/>
			<point x="360" y="136"/>
			<point x="334" y="126"/>
			<point x="306" y="126" type="curve" smooth="yes"/>
			<point x="250" y="126"/>
			<point x="208" y="174"/>
			<point x="208" y="250" type="curve" smooth="yes"/>
			<point x="208" y="326"/>
			<point x="248" y="374"/>
			<point x="310" y="374" type="curve" smooth="yes"/>
			<point x="334" y="374"/>
			<point x="350" y="366"/>
			<point x="366" y="354" type="curve"/>
			<point x="446" y="460" type="line"/>
			<point x="410" y="492"/>
			<point x="360" y="512"/>
			<point x="300" y="512" type="curve" smooth="yes"/>
			<point x="158" y="512"/>
			<point x="32" y="416"/>
			<point x="32" y="250" type="curve" smooth="yes"/>
			<point x="32" y="84"/>
			<point x="142" y="-12"/>
		</contour>
	</outline>
	<anchor name="aboveLC" x="280" y="522"/>
	<anchor name="aboverightLC" x="420" y="522"/>
	<anchor name="baseLC" x="260" y="0"/>
	<anchor name="belowLC" x="260" y="-22"/>
</glyph>
<glyph name="e" format="2">
	<unicode hex="0065"/>
	<advance width="526"/>
	<outline>
		<contour>
			<point x="290" y="-12" type="curve" smooth="yes"/>
			<point x="346" y="-12"/>
			<point x="418" y="8"/>
			<point x="472" y="46" type="curve"/>
			<point x="418" y="148" type="line"/>
			<point x="382" y="128"/>
			<point x="348" y="118"/>
			<point x="314" y="118" type="curve" smooth="yes"/>
			<point x="256" y="118"/>
			<point x="194" y="140"/>
			<point x="190" y="250" type="curve" smooth="yes"/>
			<point x="186" y="352"/>
			<point x="234" y="382"/>
			<point x="276" y="382" type="curve" smooth="yes"/>
			<point x="328" y="382"/>
			<point x="344" y="348"/>
			<point x="344" y="310" type="curve"/>
			<point x="166" y="310" type="line"/>
			<point x="168" y="198" type="line"/>
			<point x="483" y="198" type="line"/>
			<point x="486" y="210"/>
			<point x="490" y="240"/>
			<point x="490" y="270" type="curve" smooth="yes"/>
			<point x="490" y="404"/>
			<point x="420" y="512"/>
			<point x="272" y="512" type="curve" smooth="yes"/>
			<point x="150" y="512"/>
			<point x="32" y="412"/>
			<point x="32" y="250" type="curve" smooth="yes"/>
			<point x="32" y="84"/>
			<point x="144" y="-12"/>
		</contour>
	</outline>
	<anchor name="aboveLC" x="270" y="522"/>
	<anchor name="baseLC" x="270" y="0"/>
	<anchor name="belowLC" x="270" y="-22"/>
	<anchor name="ogonekLC" x="360" y="0"/>
</glyph>
<glyph name="g" format="2">
	<unicode hex="0067"/>
	<advance width="546"/>
	<outline>
		<contour>
			<point x="240" y="-206" type="curve" smooth="yes"/>
			<point x="418" y="-206"/>
			<point x="530" y="-132"/>
			<point x="530" y="-24" type="curve" smooth="yes"/>
			<point x="530" y="68"/>
			<point x="458" y="106"/>
			<point x="333" y="106" type="curve" smooth="yes"/>
			<point x="258" y="106" type="line" smooth="yes"/>
			<point x="208" y="106"/>
			<point x="188" y="114"/>
			<point x="188" y="136" type="curve" smooth="yes"/>
			<point x="188" y="150"/>
			<point x="190" y="156"/>
			<point x="200" y="165" type="curve"/>
			<point x="222" y="160"/>
			<point x="240" y="158"/>
			<point x="256" y="158" type="curve" smooth="yes"/>
			<point x="368" y="158"/>
			<point x="458" y="206"/>
			<point x="458" y="322" type="curve" smooth="yes"/>
			<point x="458" y="340"/>
			<point x="455" y="356"/>
			<point x="446" y="372" type="curve"/>
			<point x="446" y="376" type="line"/>
			<point x="522" y="376" type="line"/>
			<point x="522" y="500" type="line"/>
			<point x="336" y="500" type="line"/>
			<point x="312" y="508"/>
			<point x="284" y="512"/>
			<point x="256" y="512" type="curve" smooth="yes"/>
			<point x="146" y="512"/>
			<point x="42" y="454"/>
			<point x="42" y="330" type="curve" smooth="yes"/>
			<point x="42" y="272"/>
			<point x="74" y="226"/>
			<point x="110" y="202" type="curve"/>
			<point x="110" y="198" type="line"/>
			<point x="76" y="174"/>
			<point x="54" y="138"/>
			<point x="54" y="104" type="curve" smooth="yes"/>
			<point x="54" y="62"/>
			<point x="74" y="36"/>
			<point x="100" y="18" type="curve"/>
			<point x="100" y="14" type="line"/>
			<point x="54" y="-10"/>
			<point x="30" y="-41"/>
			<point x="30" y="-82" type="curve" smooth="yes"/>
			<point x="30" y="-172"/>
			<point x="126" y="-206"/>
		</contour>
		<contour>
			<point x="256" y="260" type="curve" smooth="yes"/>
			<point x="224" y="260"/>
			<point x="202" y="282"/>
			<point x="202" y="330" type="curve" smooth="yes"/>
			<point x="202" y="376"/>
			<point x="224" y="398"/>
			<point x="256" y="398" type="curve" smooth="yes"/>
			<point x="288" y="398"/>
			<point x="310" y="376"/>
			<point x="310" y="330" type="curve" smooth="yes"/>
			<point x="310" y="282"/>
			<point x="288" y="260"/>
		</contour>
		<contour>
			<point x="268" y="-100" type="curve" smooth="yes"/>
			<point x="210" y="-100"/>
			<point x="170" y="-86"/>
			<point x="170" y="-54" type="curve" smooth="yes"/>
			<point x="170" y="-40"/>
			<point x="176" y="-30"/>
			<point x="188" y="-18" type="curve"/>
			<point x="202" y="-22"/>
			<point x="220" y="-24"/>
			<point x="260" y="-24" type="curve" smooth="yes"/>
			<point x="299" y="-24" type="line" smooth="yes"/>
			<point x="342" y="-24"/>
			<point x="366" y="-28"/>
			<point x="366" y="-54" type="curve" smooth="yes"/>
			<point x="366" y="-82"/>
			<point x="324" y="-100"/>
		</contour>
	</outline>
	<anchor name="aboveLC" x="276" y="522"/>
	<anchor name="belowLC" x="250" y="-182"/>
</glyph>
<glyph name="k" format="1">
	<unicode hex="006B"/>
	<advance width="568"/>
	<outline>
		<contour>
			<point x="58" y="0" type="line"/>
			<point x="228" y="0" type="line"/>
			<point x="228" y="122" type="line"/>
			<point x="278" y="178" type="line"/>
			<point x="378" y="0" type="line"/>
			<point x="564" y="0" type="line"/>
			<point x="378" y="290" type="line"/>
			<point x="554" y="500" type="line"/>
			<point x="366" y="500" type="line"/>
			<point x="232" y="328" type="line"/>
			<point x="228" y="328" type="line"/>
			<point x="228" y="696" type="line"/>
			<point x="58" y="696" type="line"/>
		</contour>
		<contour>
			<point name="aboveUC" x="320" y="720" type="move"/>
		</contour>
		<contour>
			<point name="belowLC" x="300" y="-22" type="move"/>
		</contour>
	</outline>
</glyph>
<glyph name="s" format="1">
	<unicode hex="0073"/>
	<advance width="452"/>
	<outline>
		<contour>
			<point x="212" y="-12" type="curve" smooth="yes"/>
			<point x="352" y="-12"/>
			<point x="426" y="60"/>
			<point x="426" y="154" type="curve" smooth="yes"/>
			<point x="426" y="234"/>
			<point x="370" y="282"/>
			<point x="294" y="306" type="curve" smooth="yes"/>
			<point x="230" y="326"/>
			<point x="206" y="336"/>
			<point x="206" y="358" type="curve" smooth="yes"/>
			<point x="206" y="376"/>
			<point x="220" y="386"/>
			<point x="250" y="386" type="curve" smooth="yes"/>
			<point x="282" y="386"/>
			<point x="319" y="377"/>
			<point x="356" y="350" type="curve"/>
			<point x="428" y="446" type="line"/>
			<point x="384" y="484"/>
			<point x="320" y="512"/>
			<point x="244" y="512" type="curve" smooth="yes"/>
			<point x="126" y="512"/>
			<point x="46" y="448"/>
			<point x="46" y="350" type="curve" smooth="yes"/>
			<point x="46" y="274"/>
			<point x="104" y="226"/>
			<point x="174" y="200" type="curve" smooth="yes"/>
			<point x="227" y="180"/>
			<point x="266" y="170"/>
			<point x="266" y="144" type="curve" smooth="yes"/>
			<point x="266" y="124"/>
			<point x="252" y="114"/>
			<point x="216" y="114" type="curve" smooth="yes"/>
			<point x="182" y="114"/>
			<point x="136" y="124"/>
			<point x="90" y="160" type="curve"/>
			<point x="18" y="64" type="line"/>
			<point x="70" y="14"/>
			<point x="148" y="-12"/>
		</contour>
		<contour>
			<point name="aboveLC" x="240" y="522" type="move"/>
		</contour>
		<contour>
			<point name="baseLC" x="220" y="0" type="move"/>
		</contour>
		<contour>
			<point name="belowLC" x="220" y="-22" type="move"/>
		</contour>
	</outline>
</glyph>
<glyph name="x" format="2">
	<unicode hex="0078"/>
	<advance width="540"/>
	<outline>
		<contour>
			<point x="14" y="0" type="line"/>
			<point x="192" y="0" type="line"/>
			<point x="220" y="70" type="line"/>
			<point x="231" y="99"/>
			<point x="243" y="128"/>
			<point x="254" y="156" type="curve"/>
			<point x="258" y="156" type="line"/>
			<point x="273" y="128"/>
			<point x="287" y="98"/>
			<point x="302" y="70" type="curve"/>
			<point x="342" y="0" type="line"/>
			<point x="526" y="0" type="line"/>
			<point x="376" y="240" type="line"/>
			<point x="518" y="500" type="line"/>
			<point x="340" y="500" type="line"/>
			<point x="316" y="430" type="line"/>
			<point x="307" y="402"/>
			<point x="295" y="372"/>
			<point x="286" y="344" type="curve"/>
			<point x="282" y="344" type="line"/>
			<point x="269" y="372"/>
			<point x="255" y="402"/>
			<point x="242" y="430" type="curve"/>
			<point x="206" y="500" type="line"/>
			<point x="22" y="500" type="line"/>
			<point x="164" y="260" type="line"/>
		</contour>
	</outline>
	<anchor name="aboveLC" x="270" y="522"/>
	<anchor name="belowLC" x="270" y="-22"/>
</glyph>
<glyph name="z" format="2">
	<unicode hex="007A"/>
	<advance width="474"/>
	<outline>
		<contour>
			<point x="40" y="0" type="line"/>
			<point x="450" y="0" type="line"/>
			<point x="450" y="134" type="line"/>
			<point x="254" y="134" type="line"/>
			<point x="444" y="408" type="line"/>
			<point x="444" y="500" type="line"/>
			<point x="62" y="500" type="line"/>
			<point x="62" y="366" type="line"/>
			<point x="230" y="366" type="line"/>
			<point x="40" y="92" type="line"/>
		</contour>
	</outline>
	<anchor name="aboveLC" x="250" y="522"/>
	<anchor name="belowLC" x="250" y="-22"/>
	<anchor name="center" x="240" y="250"/>
</glyph>
<glyph name="bar" format="2">
	<unicode hex="007C"/>
	<advance width="278"/>
	<outline>
		<contour>
			<point x="84" y="-250" type="line"/>
			<point x="194" y="-250" type="line"/>
			<point x="194" y="750" type="line"/>
			<point x="84" y="750" type="line"/>
		</contour>
	</outline>
</glyph>
<glyph name="sterling" format="1">
	<unicode hex="00A3"/>
	<advance width="540"/>
	<outline>
		<contour>
			<point x="46" y="0" type="line"/>
			<point x="514" y="0" type="line"/>
			<point x="514" y="144" type="line"/>
			<point x="264" y="144" type="line"/>
			<point x="264" y="148" type="line"/>
			<point x="292" y="182"/>
			<point x="302" y="209"/>
			<point x="302" y="248" type="curve" smooth="yes"/>
			<point x="302" y="310"/>
			<point x="274" y="367"/>
			<point x="274" y="422" type="curve" smooth="yes"/>
			<point x="274" y="480"/>
			<point x="306" y="508"/>
			<point x="354" y="508" type="curve" smooth="yes"/>
			<point x="382" y="508"/>
			<point x="404" y="498"/>
			<point x="426" y="472" type="curve"/>
			<point x="514" y="558" type="line"/>
			<point x="474" y="610"/>
			<point x="416" y="646"/>
			<point x="332" y="646" type="curve" smooth="yes"/>
			<point x="206" y="646"/>
			<point x="110" y="564"/>
			<point x="110" y="432" type="curve" smooth="yes"/>
			<point x="110" y="377"/>
			<point x="152" y="309"/>
			<point x="152" y="250" type="curve" smooth="yes"/>
			<point x="152" y="180"/>
			<point x="102" y="130"/>
			<point x="46" y="106" type="curve"/>
		</contour>
		<contour>
			<point x="52" y="266" type="line"/>
			<point x="424" y="266" type="line"/>
			<point x="424" y="370" type="line"/>
			<point x="120" y="370" type="line"/>
			<point x="52" y="364" type="line"/>
		</contour>
	</outline>
</glyph>
<glyph name="logicalnot" format="2">
	<unicode hex="00AC"/>
	<advance width="540"/>
	<outline>
		<contour>
			<point x="382" y="90" type="line"/>
			<point x="506" y="90" type="line"/>
			<point x="506" y="390" type="line"/>
			<point x="34" y="390" type="line"/>
			<point x="34" y="270" type="line"/>
			<point x="382" y="270" type="line"/>
		</contour>
	</outline>
</glyph>
<glyph name="mu" format="2">
	<unicode hex="00B5"/>
	<unicode hex="03BC"/>
	<advance width="606"/>
	<outline>
		<contour>
			<point x="58" y="-176" type="line"/>
			<point x="232" y="-176" type="line"/>
			<point x="224" y="-110"/>
			<point x="222" y="-57"/>
			<point x="220" y="8" type="curve"/>
			<point x="234" y="-4"/>
			<point x="252" y="-6"/>
			<point x="270" y="-6" type="curve" smooth="yes"/>
			<point x="310" y="-6"/>
			<point x="344" y="20"/>
			<point x="364" y="66" type="curve"/>
			<point x="368" y="66" type="line"/>
			<point x="388" y="16"/>
			<point x="438" y="-12"/>
			<point x="512" y="-12" type="curve" smooth="yes"/>
			<point x="560" y="-12"/>
			<point x="586" y="-4"/>
			<point x="610" y="6" type="curve"/>
			<point x="590" y="132" type="line"/>
			<point x="580" y="128"/>
			<point x="566" y="126"/>
			<point x="558" y="126" type="curve" smooth="yes"/>
			<point x="528" y="126"/>
			<point x="510" y="136"/>
			<point x="510" y="170" type="curve" smooth="yes"/>
			<point x="510" y="240"/>
			<point x="518" y="390"/>
			<point x="522" y="500" type="curve"/>
			<point x="348" y="500" type="line"/>
			<point x="348" y="188" type="line"/>
			<point x="330" y="152"/>
			<point x="310" y="134"/>
			<point x="280" y="134" type="curve" smooth="yes"/>
			<point x="246" y="134"/>
			<point x="230" y="150"/>
			<point x="230" y="214" type="curve" smooth="yes"/>
			<point x="230" y="500" type="line"/>
			<point x="58" y="500" type="line"/>
		</contour>
	</outline>
	<anchor name="aboveLC" x="280" y="522"/>
	<anchor name="belowLC" x="320" y="-182"/>
</glyph>
<glyph name="AE" format="2">
	<unicode hex="00C6"/>
	<advance width="854"/>
	<outline>
		<contour>
			<point x="-22" y="0" type="line"/>
			<point x="158" y="0" type="line"/>
			<point x="308" y="348" type="line"/>
			<point x="330" y="400"/>
			<point x="352" y="460"/>
			<point x="376" y="522" type="curve"/>
			<point x="380" y="522" type="line"/>
			<point x="380" y="0" type="line"/>
			<point x="800" y="0" type="line"/>
			<point x="800" y="144" type="line"/>
			<point x="552" y="144" type="line"/>
			<point x="552" y="260" type="line"/>
			<point x="754" y="260" type="line"/>
			<point x="754" y="404" type="line"/>
			<point x="552" y="404" type="line"/>
			<point x="552" y="506" type="line"/>
			<point x="790" y="506" type="line"/>
			<point x="790" y="650" type="line"/>
			<point x="274" y="650" type="line"/>
		</contour>
		<contour>
			<point x="130" y="132" type="line"/>
			<point x="468" y="132" type="line"/>
			<point x="468" y="265" type="line"/>
			<point x="130" y="265" type="line"/>
		</contour>
	</outline>
	<anchor name="aboveUC" x="530" y="672"/>
</glyph>
<glyph name="Eth" format="1">
	<unicode hex="00D0"/>
	<advance width="668"/>
	<outline>
		<contour>
			<point x="24" y="278" type="line"/>
			<point x="386" y="278" type="line"/>
			<point x="386" y="390" type="line"/>
			<point x="100" y="390" type="line"/>
			<point x="24" y="384" type="line"/>
		</contour>
		<component base="D" xOffset="26"/>
	</outline>
</glyph>
<glyph name="germandbls" format="1">
	<unicode hex="00DF"/>
	<advance width="654"/>
	<outline>
		<contour>
			<point x="434" y="-12" type="curve" smooth="yes"/>
			<point x="564" y="-12"/>
			<point x="628" y="64"/>
			<point x="628" y="158" type="curve" smooth="yes"/>
			<point x="628" y="308"/>
			<point x="474" y="312"/>
			<point x="474" y="366" type="curve" smooth="yes"/>
			<point x="474" y="410"/>
			<point x="552" y="438"/>
			<point x="552" y="532" type="curve" smooth="yes"/>
			<point x="552" y="620"/>
			<point x="470" y="706"/>
			<point x="322" y="706" type="curve" smooth="yes"/>
			<point x="146" y="706"/>
			<point x="58" y="606"/>
			<point x="58" y="476" type="curve" smooth="yes"/>
			<point x="58" y="0" type="line"/>
			<point x="228" y="0" type="line"/>
			<point x="228" y="458" type="line" smooth="yes"/>
			<point x="228" y="526"/>
			<point x="264" y="572"/>
			<point x="322" y="572" type="curve" smooth="yes"/>
			<point x="358" y="572"/>
			<point x="388" y="546"/>
			<point x="388" y="512" type="curve" smooth="yes"/>
			<point x="388" y="442"/>
			<point x="318" y="416"/>
			<point x="318" y="344" type="curve" smooth="yes"/>
			<point x="318" y="216"/>
			<point x="472" y="210"/>
			<point x="472" y="150" type="curve" smooth="yes"/>
			<point x="472" y="128"/>
			<point x="454" y="114"/>
			<point x="428" y="114" type="curve" smooth="yes"/>
			<point x="400" y="114"/>
			<point x="370" y="124"/>
			<point x="338" y="148" type="curve"/>
			<point x="280" y="32" type="line"/>
			<point x="330" y="4"/>
			<point x="374" y="-12"/>
		</contour>
	</outline>
</glyph>
<glyph name="eth" format="2">
	<unicode hex="00F0"/>
	<advance width="566"/>
	<outline>
		<contour>
			<point x="274" y="-12" type="curve" smooth="yes"/>
			<point x="428" y="-12"/>
			<point x="520" y="108"/>
			<point x="520" y="270" type="curve" smooth="yes"/>
			<point x="520" y="526"/>
			<point x="348" y="658"/>
			<point x="177" y="744" type="curve"/>
			<point x="103" y="640" type="line"/>
			<point x="282" y="550"/>
			<point x="360" y="453"/>
			<point x="360" y="260" type="curve" smooth="yes"/>
			<point x="360" y="162"/>
			<point x="324" y="126"/>
			<point x="280" y="126" type="curve" smooth="yes"/>
			<point x="234" y="126"/>
			<point x="194" y="160"/>
			<point x="194" y="230" type="curve" smooth="yes"/>
			<point x="194" y="305"/>
			<point x="231" y="332"/>
			<point x="277" y="332" type="curve" smooth="yes"/>
			<point x="310" y="332"/>
			<point x="340" y="321"/>
			<point x="366" y="292" type="curve"/>
			<point x="364" y="378" type="line"/>
			<point x="344" y="438"/>
			<point x="290" y="458"/>
			<point x="240" y="458" type="curve" smooth="yes"/>
			<point x="140" y="458"/>
			<point x="38" y="376"/>
			<point x="38" y="230" type="curve" smooth="yes"/>
			<point x="38" y="82"/>
			<point x="146" y="-12"/>
		</contour>
		<contour>
			<point x="116" y="466" type="line"/>
			<point x="502" y="658" type="line"/>
			<point x="460" y="734" type="line"/>
			<point x="74" y="542" type="line"/>
		</contour>
	</outline>
	<anchor name="aboveUC" x="310" y="722"/>
	<anchor name="belowLC" x="270" y="-22"/>
</glyph>
<glyph name="Aogonek" format="1">
	<unicode hex="0104"/>
	<advance width="584"/>
	<outline>
		<contour>
			<point x="504" y="-228" type="curve" smooth="yes"/>
			<point x="544" y="-228"/>
			<point x="594" y="-212"/>
			<point x="624" y="-190" type="curve"/>
			<point x="586" y="-94" type="line"/>
			<point x="576" y="-100"/>
			<point x="560" y="-108"/>
			<point x="544" y="-108" type="curve" smooth="yes"/>
			<point x="518" y="-108"/>
			<point x="502" y="-98"/>
			<point x="502" y="-74" type="curve" smooth="yes"/>
			<point x="502" y="-39"/>
			<point x="538" y="0"/>
			<point x="594" y="0" type="curve"/>
			<point x="396" y="650" type="line"/>
			<point x="188" y="650" type="line"/>
			<point x="-10" y="0" type="line"/>
			<point x="166" y="0" type="line"/>
			<point x="240" y="316" type="line" smooth="yes"/>
			<point x="256" y="378"/>
			<point x="272" y="456"/>
			<point x="286" y="522" type="curve"/>
			<point x="290" y="522" type="line"/>
			<point x="306" y="457"/>
			<point x="322" y="378"/>
			<point x="338" y="316" type="curve" smooth="yes"/>
			<point x="412" y="0" type="line"/>
			<point x="450" y="0" type="line"/>
			<point x="418" y="-16"/>
			<point x="368" y="-62"/>
			<point x="368" y="-126" type="curve" smooth="yes"/>
			<point x="368" y="-191"/>
			<point x="428" y="-228"/>
		</contour>
		<contour>
			<point x="132" y="138" type="line"/>
			<point x="450" y="138" type="line"/>
			<point x="450" y="271" type="line"/>
			<point x="132" y="271" type="line"/>
		</contour>
		<contour>
			<point name="aboveUC" x="290" y="672" type="move"/>
		</contour>
	</outline>
</glyph>
<glyph name="aogonek" format="1">
	<unicode hex="0105"/>
	<advance width="536"/>
	<outline>
		<contour>
			<point x="396" y="-220" type="curve" smooth="yes"/>
			<point x="434" y="-220"/>
			<point x="482" y="-206"/>
			<point x="512" y="-184" type="curve"/>
			<point x="478" y="-96" type="line"/>
			<point x="466" y="-102"/>
			<point x="450" y="-108"/>
			<point x="432" y="-108" type="curve" smooth="yes"/>
			<point x="414" y="-108"/>
			<point x="394" y="-98"/>
			<point x="394" y="-76" type="curve" smooth="yes"/>
			<point x="394" y="-49"/>
			<point x="414" y="-16"/>
			<point x="482" y="0" type="curve"/>
			<point x="482" y="278" type="line" smooth="yes"/>
			<point x="482" y="442"/>
			<point x="404" y="512"/>
			<point x="274" y="512" type="curve" smooth="yes"/>
			<point x="196" y="512"/>
			<point x="124" y="488"/>
			<point x="54" y="446" type="curve"/>
			<point x="114" y="336" type="line"/>
			<point x="166" y="364"/>
			<point x="204" y="376"/>
			<point x="240" y="376" type="curve" smooth="yes"/>
			<point x="284" y="376"/>
			<point x="306" y="360"/>
			<point x="310" y="324" type="curve"/>
			<point x="118" y="304"/>
			<point x="38" y="246"/>
			<point x="38" y="142" type="curve" smooth="yes"/>
			<point x="38" y="60"/>
			<point x="94" y="-12"/>
			<point x="188" y="-12" type="curve" smooth="yes"/>
			<point x="242" y="-12"/>
			<point x="286" y="12"/>
			<point x="326" y="48" type="curve"/>
			<point x="330" y="48" type="line"/>
			<point x="344" y="-4" type="line"/>
			<point x="316" y="-19"/>
			<point x="270" y="-58"/>
			<point x="270" y="-116" type="curve" smooth="yes"/>
			<point x="270" y="-186"/>
			<point x="326" y="-220"/>
		</contour>
		<contour>
			<point x="248" y="120" type="curve" smooth="yes"/>
			<point x="218" y="120"/>
			<point x="202" y="133"/>
			<point x="202" y="156" type="curve" smooth="yes"/>
			<point x="202" y="184"/>
			<point x="228" y="210"/>
			<point x="310" y="222" type="curve"/>
			<point x="310" y="154" type="line"/>
			<point x="292" y="134"/>
			<point x="276" y="120"/>
		</contour>
		<contour>
			<point name="aboveLC" x="280" y="522" type="move"/>
		</contour>
	</outline>
</glyph>
<glyph name="dcroat" format="1">
	<unicode hex="0111"/>
	<advance width="580"/>
	<outline>
		<contour>
			<point x="240" y="-12" type="curve" smooth="yes"/>
			<point x="286" y="-12"/>
			<point x="331" y="8"/>
			<point x="364" y="40" type="curve"/>
			<point x="368" y="40" type="line"/>
			<point x="378" y="0" type="line"/>
			<point x="522" y="0" type="line"/>
			<point x="522" y="696" type="line"/>
			<point x="350" y="696" type="line"/>
			<point x="350" y="482" type="line"/>
			<point x="356" y="410" type="line"/>
			<point x="326" y="440"/>
			<point x="294" y="460"/>
			<point x="240" y="460" type="curve" smooth="yes"/>
			<point x="138" y="460"/>
			<point x="36" y="366"/>
			<point x="36" y="226" type="curve" smooth="yes"/>
			<point x="36" y="84"/>
			<point x="116" y="-12"/>
		</contour>
		<contour>
			<point x="286" y="128" type="curve" smooth="yes"/>
			<point x="240" y="128"/>
			<point x="212" y="160"/>
			<point x="212" y="228" type="curve" smooth="yes"/>
			<point x="212" y="292"/>
			<point x="246" y="320"/>
			<point x="282" y="320" type="curve" smooth="yes"/>
			<point x="304" y="320"/>
			<point x="330" y="314"/>
			<point x="350" y="296" type="curve"/>
			<point x="350" y="164" type="line"/>
			<point x="332" y="136"/>
			<point x="312" y="128"/>
		</contour>
		<contour>
			<point x="206" y="518" type="line"/>
			<point x="512" y="518" type="line"/>
			<point x="588" y="524" type="line"/>
			<point x="588" y="630" type="line"/>
			<point x="206" y="630" type="line"/>
		</contour>
	</outline>
</glyph>
<glyph name="Eogonek" format="1">
	<unicode hex="0118"/>
	<advance width="556"/>
	<outline>
		<contour>
			<point x="406" y="-228" type="curve" smooth="yes"/>
			<point x="446" y="-228"/>
			<point x="496" y="-212"/>
			<point x="526" y="-190" type="curve"/>
			<point x="488" y="-94" type="line"/>
			<point x="478" y="-100"/>
			<point x="462" y="-108"/>
			<point x="446" y="-108" type="curve" smooth="yes"/>
			<point x="420" y="-108"/>
			<point x="404" y="-98"/>
			<point x="404" y="-74" type="curve" smooth="yes"/>
			<point x="404" y="-41"/>
			<point x="442" y="0"/>
			<point x="488" y="0" type="curve" smooth="yes"/>
			<point x="502" y="0" type="line"/>
			<point x="502" y="144" type="line"/>
			<point x="244" y="144" type="line"/>
			<point x="244" y="260" type="line"/>
			<point x="456" y="260" type="line"/>
			<point x="456" y="404" type="line"/>
			<point x="244" y="404" type="line"/>
			<point x="244" y="506" type="line"/>
			<point x="492" y="506" type="line"/>
			<point x="492" y="650" type="line"/>
			<point x="72" y="650" type="line"/>
			<point x="72" y="0" type="line"/>
			<point x="350" y="0" type="line"/>
			<point x="314" y="-20"/>
			<point x="270" y="-66"/>
			<point x="270" y="-126" type="curve" smooth="yes"/>
			<point x="270" y="-190"/>
			<point x="330" y="-228"/>
		</contour>
		<contour>
			<point name="aboveUC" x="290" y="672" type="move"/>
		</contour>
	</outline>
</glyph>
<glyph name="eogonek" format="1">
	<unicode hex="0119"/>
	<advance width="526"/>
	<outline>
		<contour>
			<point x="368" y="-220" type="curve" smooth="yes"/>
			<point x="406" y="-220"/>
			<point x="454" y="-206"/>
			<point x="484" y="-184" type="curve"/>
			<point x="450" y="-96" type="line"/>
			<point x="438" y="-102"/>
			<point x="422" y="-108"/>
			<point x="404" y="-108" type="curve" smooth="yes"/>
			<point x="386" y="-108"/>
			<point x="366" y="-98"/>
			<point x="366" y="-76" type="curve" smooth="yes"/>
			<point x="366" y="-39"/>
			<point x="384" y="-14"/>
			<point x="472" y="46" type="curve"/>
			<point x="416" y="148" type="line"/>
			<point x="380" y="128"/>
			<point x="348" y="118"/>
			<point x="314" y="118" type="curve"/>
			<point x="258" y="118"/>
			<point x="214" y="138"/>
			<point x="198" y="198" type="curve"/>
			<point x="483" y="198" type="line"/>
			<point x="486" y="210"/>
			<point x="490" y="240"/>
			<point x="490" y="270" type="curve" smooth="yes"/>
			<point x="490" y="404"/>
			<point x="420" y="512"/>
			<point x="272" y="512" type="curve" smooth="yes"/>
			<point x="150" y="512"/>
			<point x="32" y="412"/>
			<point x="32" y="250" type="curve" smooth="yes"/>
			<point x="32" y="84"/>
			<point x="144" y="-12"/>
			<point x="290" y="-12" type="curve" smooth="yes"/>
			<point x="292" y="-12"/>
			<point x="295" y="-12"/>
			<point x="306" y="-10" type="curve"/>
			<point x="270" y="-36"/>
			<point x="242" y="-68"/>
			<point x="242" y="-116" type="curve" smooth="yes"/>
			<point x="242" y="-186"/>
			<point x="298" y="-220"/>
		</contour>
		<contour>
			<point x="196" y="310" type="line"/>
			<point x="206" y="360"/>
			<point x="238" y="382"/>
			<point x="276" y="382" type="curve" smooth="yes"/>
			<point x="328" y="382"/>
			<point x="344" y="348"/>
			<point x="344" y="310" type="curve"/>
		</contour>
		<contour>
			<point name="aboveLC" x="270" y="522" type="move"/>
		</contour>
	</outline>
</glyph>
<glyph name="hbar" format="2">
	<unicode hex="0127"/>
	<advance width="582"/>
	<outline>
		<contour>
			<point x="58" y="0" type="line"/>
			<point x="230" y="0" type="line"/>
			<point x="230" y="278" type="line"/>
			<point x="256" y="302"/>
			<point x="274" y="316"/>
			<point x="306" y="316" type="curve" smooth="yes"/>
			<point x="340" y="316"/>
			<point x="356" y="300"/>
			<point x="356" y="236" type="curve" smooth="yes"/>
			<point x="356" y="0" type="line"/>
			<point x="528" y="0" type="line"/>
			<point x="528" y="258" type="line" smooth="yes"/>
			<point x="528" y="382"/>
			<point x="482" y="462"/>
			<point x="372" y="462" type="curve" smooth="yes"/>
			<point x="304" y="462"/>
			<point x="256" y="428"/>
			<point x="222" y="398" type="curve"/>
			<point x="230" y="484" type="line"/>
			<point x="230" y="696" type="line"/>
			<point x="58" y="696" type="line"/>
		</contour>
		<contour>
			<point x="-8" y="518" type="line"/>
			<point x="394" y="518" type="line"/>
			<point x="394" y="630" type="line"/>
			<point x="68" y="630" type="line"/>
			<point x="-8" y="624" type="line"/>
		</contour>
	</outline>
</glyph>
<glyph name="Iogonek" format="2">
	<unicode hex="012E"/>
	<advance width="316"/>
	<outline>
		<contour>
			<point x="168" y="-228" type="curve" smooth="yes"/>
			<point x="208" y="-228"/>
			<point x="258" y="-212"/>
			<point x="288" y="-190" type="curve"/>
			<point x="250" y="-94" type="line"/>
			<point x="240" y="-100"/>
			<point x="224" y="-108"/>
			<point x="208" y="-108" type="curve" smooth="yes"/>
			<point x="182" y="-108"/>
			<point x="166" y="-98"/>
			<point x="166" y="-74" type="curve" smooth="yes"/>
			<point x="166" y="-46"/>
			<point x="187" y="-18"/>
			<point x="244" y="0" type="curve"/>
			<point x="244" y="650" type="line"/>
			<point x="72" y="650" type="line"/>
			<point x="72" y="0" type="line"/>
			<point x="112" y="0" type="line"/>
			<point x="76" y="-20"/>
			<point x="32" y="-66"/>
			<point x="32" y="-126" type="curve" smooth="yes"/>
			<point x="32" y="-190"/>
			<point x="92" y="-228"/>
		</contour>
	</outline>
	<anchor name="aboveUC" x="160" y="672"/>
</glyph>
<glyph name="dotlessi" format="2">
	<unicode hex="0131"/>
	<advance width="288"/>
	<outline>
		<contour>
			<point x="58" y="0" type="line"/>
			<point x="230" y="0" type="line"/>
			<point x="230" y="500" type="line"/>
			<point x="58" y="500" type="line"/>
		</contour>
	</outline>
	<anchor name="aboveLC" x="144" y="522"/>
	<anchor name="belowLC" x="144" y="-22"/>
	<anchor name="ogonekLC" x="140" y="0"/>
</glyph>
<glyph name="Lslash" format="1">
  <advance width="560"/>
  <unicode hex="0141"/>
  <outline>
    <contour>
      <point x="30" y="176" type="line"/>
      <point x="122" y="218" type="line"/>
      <point x="256" y="278" type="line"/>
      <point x="482" y="382" type="line"/>
      <point x="434" y="494" type="line"/>
      <point x="256" y="412" type="line"/>
      <point x="122" y="352" type="line"/>
      <point x="-18" y="288" type="line"/>
    </contour>
    <component base="L" xOffset="30"/>
  </outline>
</glyph>
<glyph name="lslash" format="1">
  <advance width="382"/>
  <unicode hex="0142"/>
  <outline>
    <contour>
      <point x="40" y="254" type="line"/>
      <point x="106" y="282" type="line"/>
      <point x="252" y="350" type="line"/>
      <point x="398" y="412" type="line"/>
      <point x="342" y="518" type="line"/>
      <point x="252" y="480" type="line"/>
      <point x="106" y="412" type="line"/>
      <point x="-16" y="360" type="line"/>
    </contour>
    <component base="l" xOffset="40"/>
    <contour>
      <point x="188" y="720" type="move" name="aboveUC"/>
    </contour>
    <contour>
      <point x="208" y="-22" type="move" name="belowLC"/>
    </contour>
  </outline>
</glyph>
<glyph name="oe" format="1">
	<unicode hex="0153"/>
	<advance width="816"/>
	<outline>
		<contour>
			<point x="268" y="-12" type="curve" smooth="yes"/>
			<point x="340" y="-12"/>
			<point x="386" y="14"/>
			<point x="428" y="62" type="curve"/>
			<point x="470" y="12"/>
			<point x="530" y="-12"/>
			<point x="598" y="-12" type="curve" smooth="yes"/>
			<point x="640" y="-12"/>
			<point x="712" y="8"/>
			<point x="762" y="46" type="curve"/>
			<point x="708" y="148" type="line"/>
			<point x="672" y="128"/>
			<point x="638" y="118"/>
			<point x="604" y="118" type="curve" smooth="yes"/>
			<point x="553" y="118"/>
			<point x="513" y="139"/>
			<point x="498" y="198" type="curve"/>
			<point x="773" y="198" type="line"/>
			<point x="776" y="210"/>
			<point x="780" y="236"/>
			<point x="780" y="266" type="curve" smooth="yes"/>
			<point x="780" y="400"/>
			<point x="710" y="512"/>
			<point x="574" y="512" type="curve" smooth="yes"/>
			<point x="520" y="512"/>
			<point x="466" y="486"/>
			<point x="426" y="438" type="curve"/>
			<point x="390" y="482"/>
			<point x="342" y="512"/>
			<point x="272" y="512" type="curve" smooth="yes"/>
			<point x="142" y="512"/>
			<point x="32" y="416"/>
			<point x="32" y="250" type="curve" smooth="yes"/>
			<point x="32" y="84"/>
			<point x="138" y="-12"/>
		</contour>
		<contour>
			<point x="272" y="126" type="curve" smooth="yes"/>
			<point x="228" y="126"/>
			<point x="206" y="174"/>
			<point x="206" y="250" type="curve" smooth="yes"/>
			<point x="206" y="326"/>
			<point x="228" y="374"/>
			<point x="272" y="374" type="curve" smooth="yes"/>
			<point x="316" y="374"/>
			<point x="340" y="326"/>
			<point x="340" y="250" type="curve" smooth="yes"/>
			<point x="340" y="174"/>
			<point x="316" y="126"/>
		</contour>
		<contour>
			<point x="498" y="310" type="line"/>
			<point x="505" y="362"/>
			<point x="534" y="382"/>
			<point x="572" y="382" type="curve" smooth="yes"/>
			<point x="618" y="382"/>
			<point x="634" y="350"/>
			<point x="634" y="310" type="curve"/>
		</contour>
		<contour>
			<point name="aboveLC" x="430" y="522" type="move"/>
		</contour>
		<contour>
			<point name="belowLC" x="430" y="-22" type="move"/>
		</contour>
	</outline>
</glyph>
<glyph name="tbar" format="2">
	<unicode hex="0167"/>
	<advance width="400"/>
	<outline>
		<contour>
			<point x="14" y="192" type="line"/>
			<point x="366" y="192" type="line"/>
			<point x="366" y="304" type="line"/>
			<point x="90" y="304" type="line"/>
			<point x="14" y="298" type="line"/>
		</contour>
		<component base="t"/>
	</outline>
	<anchor name="aboveLC" x="180" y="662"/>
	<anchor name="belowLC" x="240" y="-22"/>
</glyph>
<glyph name="Uogonek" format="1">
	<unicode hex="0172"/>
	<advance width="672"/>
	<outline>
		<contour>
			<point x="354" y="-228" type="curve" smooth="yes"/>
			<point x="394" y="-228"/>
			<point x="444" y="-212"/>
			<point x="474" y="-190" type="curve"/>
			<point x="436" y="-94" type="line"/>
			<point x="426" y="-100"/>
			<point x="410" y="-108"/>
			<point x="394" y="-108" type="curve" smooth="yes"/>
			<point x="368" y="-108"/>
			<point x="352" y="-98"/>
			<point x="352" y="-74" type="curve" smooth="yes"/>
			<point x="352" y="-52"/>
			<point x="370" y="-24"/>
			<point x="418" y="-8" type="curve" smooth="yes"/>
			<point x="548" y="34"/>
			<point x="604" y="124"/>
			<point x="604" y="314" type="curve" smooth="yes"/>
			<point x="604" y="650" type="line"/>
			<point x="438" y="650" type="line"/>
			<point x="438" y="294" type="line" smooth="yes"/>
			<point x="438" y="178"/>
			<point x="406" y="136"/>
			<point x="338" y="136" type="curve" smooth="yes"/>
			<point x="270" y="136"/>
			<point x="240" y="178"/>
			<point x="240" y="294" type="curve" smooth="yes"/>
			<point x="240" y="650" type="line"/>
			<point x="68" y="650" type="line"/>
			<point x="68" y="314" type="line" smooth="yes"/>
			<point x="68" y="92"/>
			<point x="156" y="-12"/>
			<point x="338" y="-12" type="curve"/>
			<point x="294" y="2" type="line"/>
			<point x="256" y="-22"/>
			<point x="218" y="-74"/>
			<point x="218" y="-126" type="curve" smooth="yes"/>
			<point x="218" y="-190"/>
			<point x="278" y="-228"/>
		</contour>
		<contour>
			<point name="aboveUC" x="336" y="672" type="move"/>
		</contour>
	</outline>
</glyph>
<glyph name="uogonek" format="1">
	<unicode hex="0173"/>
	<advance width="578"/>
	<outline>
		<contour>
			<point x="434" y="-220" type="curve" smooth="yes"/>
			<point x="472" y="-220"/>
			<point x="520" y="-206"/>
			<point x="550" y="-184" type="curve"/>
			<point x="516" y="-96" type="line"/>
			<point x="504" y="-102"/>
			<point x="488" y="-108"/>
			<point x="470" y="-108" type="curve" smooth="yes"/>
			<point x="452" y="-108"/>
			<point x="432" y="-98"/>
			<point x="432" y="-76" type="curve" smooth="yes"/>
			<point x="432" y="-49"/>
			<point x="452" y="-16"/>
			<point x="520" y="0" type="curve"/>
			<point x="520" y="500" type="line"/>
			<point x="348" y="500" type="line"/>
			<point x="348" y="178" type="line"/>
			<point x="326" y="146"/>
			<point x="308" y="134"/>
			<point x="276" y="134" type="curve" smooth="yes"/>
			<point x="242" y="134"/>
			<point x="226" y="150"/>
			<point x="226" y="214" type="curve" smooth="yes"/>
			<point x="226" y="500" type="line"/>
			<point x="54" y="500" type="line"/>
			<point x="54" y="192" type="line" smooth="yes"/>
			<point x="54" y="68"/>
			<point x="100" y="-12"/>
			<point x="210" y="-12" type="curve" smooth="yes"/>
			<point x="278" y="-12"/>
			<point x="324" y="18"/>
			<point x="364" y="66" type="curve"/>
			<point x="368" y="66" type="line"/>
			<point x="382" y="-4" type="line"/>
			<point x="354" y="-19"/>
			<point x="308" y="-58"/>
			<point x="308" y="-116" type="curve" smooth="yes"/>
			<point x="308" y="-186"/>
			<point x="364" y="-220"/>
		</contour>
		<contour>
			<point name="aboveLC" x="278" y="502" type="move"/>
		</contour>
	</outline>
</glyph>
<glyph name="Bhook" format="2">
	<unicode hex="0181"/>
	<advance width="812"/>
	<outline>
		<contour>
			<point x="286" y="0" type="line"/>
			<point x="530" y="0" type="line" smooth="yes"/>
			<point x="670" y="0"/>
			<point x="782" y="60"/>
			<point x="782" y="200" type="curve" smooth="yes"/>
			<point x="782" y="282"/>
			<point x="740" y="326"/>
			<point x="670" y="344" type="curve"/>
			<point x="670" y="348" type="line"/>
			<point x="722" y="368"/>
			<point x="752" y="424"/>
			<point x="752" y="488" type="curve" smooth="yes"/>
			<point x="752" y="612"/>
			<point x="669" y="662"/>
			<point x="440" y="662" type="curve" smooth="yes"/>
			<point x="145" y="662"/>
			<point x="34" y="552"/>
			<point x="34" y="400" type="curve" smooth="yes"/>
			<point x="34" y="302"/>
			<point x="84" y="246"/>
			<point x="164" y="210" type="curve"/>
			<point x="234" y="324" type="line"/>
			<point x="200" y="342"/>
			<point x="180" y="366"/>
			<point x="180" y="406" type="curve" smooth="yes"/>
			<point x="180" y="467"/>
			<point x="226" y="520"/>
			<point x="350" y="520" type="curve" smooth="yes"/>
			<point x="506" y="520" type="line" smooth="yes"/>
			<point x="562" y="520"/>
			<point x="588" y="502"/>
			<point x="588" y="462" type="curve" smooth="yes"/>
			<point x="588" y="422"/>
			<point x="562" y="396"/>
			<point x="506" y="396" type="curve" smooth="yes"/>
			<point x="458" y="396" type="line"/>
			<point x="458" y="570" type="line"/>
			<point x="286" y="570" type="line"/>
		</contour>
		<contour>
			<point x="458" y="132" type="line"/>
			<point x="458" y="270" type="line"/>
			<point x="518" y="270" type="line" smooth="yes"/>
			<point x="586" y="270"/>
			<point x="618" y="252"/>
			<point x="618" y="204" type="curve" smooth="yes"/>
			<point x="618" y="156"/>
			<point x="586" y="132"/>
			<point x="518" y="132" type="curve" smooth="yes"/>
		</contour>
	</outline>
	<anchor name="aboveUC" x="500" y="672"/>
	<anchor name="belowLC" x="510" y="-22"/>
</glyph>
<glyph name="Schwa" format="1">
	<unicode hex="018F"/>
	<advance width="682"/>
	<outline>
		<contour>
			<point x="338" y="-12" type="curve" smooth="yes"/>
			<point x="516" y="-12"/>
			<point x="638" y="104"/>
			<point x="638" y="326" type="curve" smooth="yes"/>
			<point x="638" y="548"/>
			<point x="514" y="662"/>
			<point x="342" y="662" type="curve" smooth="yes"/>
			<point x="244" y="662"/>
			<point x="166" y="628"/>
			<point x="108" y="580" type="curve"/>
			<point x="188" y="468" type="line"/>
			<point x="224" y="498"/>
			<point x="270" y="522"/>
			<point x="328" y="522" type="curve" smooth="yes"/>
			<point x="422" y="522"/>
			<point x="468" y="464"/>
			<point x="468" y="326" type="curve" smooth="yes"/>
			<point x="468" y="182"/>
			<point x="416" y="128"/>
			<point x="340" y="128" type="curve" smooth="yes"/>
			<point x="272" y="128"/>
			<point x="224" y="162"/>
			<point x="222" y="258" type="curve"/>
			<point x="512" y="258" type="line"/>
			<point x="512" y="382" type="line"/>
			<point x="54" y="382" type="line"/>
			<point x="50" y="362"/>
			<point x="48" y="340"/>
			<point x="48" y="322" type="curve" smooth="yes"/>
			<point x="48" y="100"/>
			<point x="160" y="-12"/>
		</contour>
		<contour>
			<point name="aboveUC" x="350" y="672" type="move"/>
		</contour>
		<contour>
			<point name="belowLC" x="360" y="-22" type="move"/>
		</contour>
	</outline>
</glyph>
<glyph name="Ghook" format="2">
	<unicode hex="0193"/>
	<advance width="646"/>
	<outline>
		<contour>
			<point x="372" y="-12" type="curve" smooth="yes"/>
			<point x="464" y="-12"/>
			<point x="546" y="24"/>
			<point x="592" y="68" type="curve"/>
			<point x="592" y="378" type="line"/>
			<point x="344" y="378" type="line"/>
			<point x="344" y="238" type="line"/>
			<point x="440" y="238" type="line"/>
			<point x="440" y="148" type="line"/>
			<point x="428" y="140"/>
			<point x="408" y="136"/>
			<point x="390" y="136" type="curve" smooth="yes"/>
			<point x="274" y="136"/>
			<point x="220" y="204"/>
			<point x="220" y="326" type="curve" smooth="yes"/>
			<point x="220" y="444"/>
			<point x="286" y="514"/>
			<point x="374" y="514" type="curve" smooth="yes"/>
			<point x="426" y="514"/>
			<point x="458" y="498"/>
			<point x="490" y="476" type="curve"/>
			<point x="580" y="586" type="line"/>
			<point x="561" y="605"/>
			<point x="540" y="616"/>
			<point x="540" y="644" type="curve" smooth="yes"/>
			<point x="540" y="676"/>
			<point x="562" y="690"/>
			<point x="584" y="690" type="curve" smooth="yes"/>
			<point x="600" y="690"/>
			<point x="606" y="688"/>
			<point x="616" y="684" type="curve"/>
			<point x="646" y="804" type="line"/>
			<point x="626" y="812"/>
			<point x="598" y="820"/>
			<point x="552" y="820" type="curve" smooth="yes"/>
			<point x="458" y="820"/>
			<point x="406" y="759"/>
			<point x="406" y="698" type="curve" smooth="yes"/>
			<point x="406" y="679"/>
			<point x="409" y="657"/>
			<point x="426" y="628" type="curve"/>
			<point x="438" y="652" type="line"/>
			<point x="406" y="659"/>
			<point x="386" y="662"/>
			<point x="368" y="662" type="curve" smooth="yes"/>
			<point x="194" y="662"/>
			<point x="44" y="538"/>
			<point x="44" y="320" type="curve" smooth="yes"/>
			<point x="44" y="98"/>
			<point x="190" y="-12"/>
		</contour>
	</outline>
	<anchor name="aboveUC" x="260" y="672"/>
	<anchor name="belowLC" x="370" y="-22"/>
</glyph>
<glyph name="Iotalatin" format="2">
	<unicode hex="0196"/>
	<advance width="314"/>
	<outline>
		<contour>
			<point x="226" y="-12" type="curve" smooth="yes"/>
			<point x="265" y="-12"/>
			<point x="294" y="-6"/>
			<point x="312" y="2" type="curve"/>
			<point x="290" y="138" type="line"/>
			<point x="282" y="136"/>
			<point x="278" y="136"/>
			<point x="272" y="136" type="curve" smooth="yes"/>
			<point x="260" y="136"/>
			<point x="244" y="146"/>
			<point x="244" y="180" type="curve" smooth="yes"/>
			<point x="244" y="650" type="line"/>
			<point x="72" y="650" type="line"/>
			<point x="72" y="176" type="line" smooth="yes"/>
			<point x="72" y="64"/>
			<point x="110" y="-12"/>
		</contour>
	</outline>
	<anchor name="aboveUC" x="160" y="672"/>
	<anchor name="belowLC" x="190" y="-22"/>
</glyph>
<glyph name="Istroke" format="1">
	<unicode hex="0197"/>
	<advance width="356"/>
	<outline>
		<contour>
			<point x="22" y="278" type="line"/>
			<point x="334" y="278" type="line"/>
			<point x="334" y="390" type="line"/>
			<point x="98" y="390" type="line"/>
			<point x="22" y="384" type="line"/>
		</contour>
		<component base="I" xOffset="20"/>
		<contour>
			<point name="aboveUC" x="180" y="672" type="move"/>
		</contour>
		<contour>
			<point name="belowLC" x="180" y="-22" type="move"/>
		</contour>
	</outline>
</glyph>
<glyph name="lbar" format="2">
	<unicode hex="019A"/>
	<advance width="382"/>
	<outline>
		<contour>
			<point x="12" y="334" type="line"/>
			<point x="352" y="334" type="line"/>
			<point x="352" y="446" type="line"/>
			<point x="98" y="446" type="line"/>
			<point x="12" y="440" type="line"/>
		</contour>
		<component base="l" xOffset="40"/>
	</outline>
	<anchor name="aboveUC" x="190" y="722"/>
	<anchor name="belowLC" x="210" y="-22"/>
</glyph>
<glyph name="Ohorn" format="2">
	<unicode hex="01A0"/>
	<advance width="692"/>
	<outline>
		<contour>
			<point x="562" y="576" type="line"/>
			<point x="644" y="598"/>
			<point x="682" y="638"/>
			<point x="682" y="712" type="curve" smooth="yes"/>
			<point x="682" y="756"/>
			<point x="666" y="796"/>
			<point x="650" y="818" type="curve"/>
			<point x="524" y="768" type="line"/>
			<point x="531" y="753"/>
			<point x="540" y="728"/>
			<point x="540" y="700" type="curve" smooth="yes"/>
			<point x="540" y="656"/>
			<point x="520" y="642"/>
			<point x="486" y="630" type="curve"/>
		</contour>
		<component base="O"/>
	</outline>
	<anchor name="aboveUC" x="346" y="672"/>
	<anchor name="belowLC" x="346" y="-22"/>
</glyph>
<glyph name="wynn" format="2">
	<unicode hex="01BF"/>
	<advance width="580"/>
	<outline>
		<contour>
			<point x="58" y="-176" type="line"/>
			<point x="230" y="-176" type="line"/>
			<point x="230" y="-82" type="line"/>
			<point x="226" y="-12" type="line"/>
			<point x="444" y="46"/>
			<point x="544" y="164"/>
			<point x="544" y="318" type="curve" smooth="yes"/>
			<point x="544" y="436"/>
			<point x="464" y="512"/>
			<point x="350" y="512" type="curve" smooth="yes"/>
			<point x="300" y="512"/>
			<point x="251" y="488"/>
			<point x="214" y="454" type="curve"/>
			<point x="210" y="454" type="line"/>
			<point x="198" y="500" type="line"/>
			<point x="58" y="500" type="line"/>
		</contour>
		<contour>
			<point x="230" y="128" type="curve"/>
			<point x="230" y="336" type="line"/>
			<point x="252" y="362"/>
			<point x="272" y="372"/>
			<point x="298" y="372" type="curve" smooth="yes"/>
			<point x="340" y="372"/>
			<point x="368" y="350"/>
			<point x="368" y="296" type="curve" smooth="yes"/>
			<point x="368" y="226"/>
			<point x="314" y="162"/>
		</contour>
	</outline>
	<anchor name="aboveLC" x="320" y="522"/>
</glyph>
<glyph name="clickalveolar" format="1">
	<unicode hex="01C2"/>
	<advance width="490"/>
	<outline>
		<contour>
			<point x="28" y="198" type="line"/>
			<point x="462" y="198" type="line"/>
			<point x="462" y="310" type="line"/>
			<point x="104" y="310" type="line"/>
			<point x="28" y="304" type="line"/>
		</contour>
		<contour>
			<point x="28" y="382" type="line"/>
			<point x="462" y="382" type="line"/>
			<point x="462" y="494" type="line"/>
			<point x="104" y="494" type="line"/>
			<point x="28" y="488" type="line"/>
		</contour>
		<component base="l.a" xOffset="104"/>
		<contour>
			<point name="aboveUC" x="242" y="720" type="move"/>
		</contour>
		<contour>
			<point name="belowLC" x="242" y="-22" type="move"/>
		</contour>
	</outline>
</glyph>
<glyph name="gstroke" format="2">
	<unicode hex="01E5"/>
	<advance width="626"/>
	<outline>
		<contour>
			<point x="264" y="198" type="line"/>
			<point x="604" y="198" type="line"/>
			<point x="604" y="310" type="line"/>
			<point x="350" y="310" type="line"/>
			<point x="264" y="304" type="line"/>
		</contour>
		<component base="gscript"/>
	</outline>
	<anchor name="aboveLC" x="290" y="522"/>
	<anchor name="belowLC" x="300" y="-182"/>
</glyph>
<glyph name="Oogonek" format="1">
	<unicode hex="01EA"/>
	<advance width="692"/>
	<outline>
		<contour>
			<point x="364" y="-228" type="curve" smooth="yes"/>
			<point x="404" y="-228"/>
			<point x="454" y="-212"/>
			<point x="484" y="-190" type="curve"/>
			<point x="446" y="-94" type="line"/>
			<point x="436" y="-100"/>
			<point x="420" y="-108"/>
			<point x="404" y="-108" type="curve" smooth="yes"/>
			<point x="378" y="-108"/>
			<point x="362" y="-98"/>
			<point x="362" y="-74" type="curve" smooth="yes"/>
			<point x="362" y="-48"/>
			<point x="386" y="-16"/>
			<point x="432" y="-2" type="curve" smooth="yes"/>
			<point x="565" y="38"/>
			<point x="648" y="146"/>
			<point x="648" y="328" type="curve" smooth="yes"/>
			<point x="648" y="541"/>
			<point x="526" y="662"/>
			<point x="346" y="662" type="curve" smooth="yes"/>
			<point x="166" y="662"/>
			<point x="44" y="542"/>
			<point x="44" y="328" type="curve" smooth="yes"/>
			<point x="44" y="114"/>
			<point x="166" y="-12"/>
			<point x="346" y="-12" type="curve"/>
			<point x="304" y="2" type="line"/>
			<point x="266" y="-24"/>
			<point x="228" y="-74"/>
			<point x="228" y="-126" type="curve" smooth="yes"/>
			<point x="228" y="-190"/>
			<point x="288" y="-228"/>
		</contour>
		<contour>
			<point x="346" y="136" type="curve" smooth="yes"/>
			<point x="268" y="136"/>
			<point x="220" y="210"/>
			<point x="220" y="328" type="curve" smooth="yes"/>
			<point x="220" y="446"/>
			<point x="268" y="514"/>
			<point x="346" y="514" type="curve" smooth="yes"/>
			<point x="424" y="514"/>
			<point x="472" y="446"/>
			<point x="472" y="328" type="curve" smooth="yes"/>
			<point x="472" y="210"/>
			<point x="424" y="136"/>
		</contour>
		<contour>
			<point name="aboveUC" x="346" y="672" type="move"/>
		</contour>
	</outline>
</glyph>
<glyph name="oogonek" format="1">
	<unicode hex="01EB"/>
	<advance width="560"/>
	<outline>
		<contour>
			<point x="292" y="-220" type="curve" smooth="yes"/>
			<point x="330" y="-220"/>
			<point x="378" y="-206"/>
			<point x="408" y="-184" type="curve"/>
			<point x="374" y="-96" type="line"/>
			<point x="362" y="-102"/>
			<point x="346" y="-108"/>
			<point x="328" y="-108" type="curve" smooth="yes"/>
			<point x="310" y="-108"/>
			<point x="290" y="-98"/>
			<point x="290" y="-76" type="curve" smooth="yes"/>
			<point x="290" y="-50"/>
			<point x="304" y="-24"/>
			<point x="350" y="-6" type="curve" smooth="yes"/>
			<point x="456" y="36"/>
			<point x="528" y="116"/>
			<point x="528" y="250" type="curve" smooth="yes"/>
			<point x="528" y="416"/>
			<point x="408" y="512"/>
			<point x="280" y="512" type="curve" smooth="yes"/>
			<point x="152" y="512"/>
			<point x="32" y="416"/>
			<point x="32" y="250" type="curve" smooth="yes"/>
			<point x="32" y="84"/>
			<point x="152" y="-12"/>
			<point x="280" y="-12" type="curve"/>
			<point x="236" y="2" type="line"/>
			<point x="202" y="-22"/>
			<point x="166" y="-62"/>
			<point x="166" y="-116" type="curve" smooth="yes"/>
			<point x="166" y="-186"/>
			<point x="222" y="-220"/>
		</contour>
		<contour>
			<point x="280" y="126" type="curve" smooth="yes"/>
			<point x="228" y="126"/>
			<point x="208" y="174"/>
			<point x="208" y="250" type="curve" smooth="yes"/>
			<point x="208" y="326"/>
			<point x="228" y="374"/>
			<point x="280" y="374" type="curve" smooth="yes"/>
			<point x="332" y="374"/>
			<point x="352" y="326"/>
			<point x="352" y="250" type="curve" smooth="yes"/>
			<point x="352" y="174"/>
			<point x="332" y="126"/>
		</contour>
		<contour>
			<point name="aboveLC" x="280" y="522" type="move"/>
		</contour>
	</outline>
</glyph>
<glyph name="Wynn" format="2">
	<unicode hex="01F7"/>
	<advance width="636"/>
	<outline>
		<contour>
			<point x="72" y="-176" type="line"/>
			<point x="244" y="-176" type="line"/>
			<point x="244" y="-2" type="line"/>
			<point x="502" y="116"/>
			<point x="590" y="274"/>
			<point x="590" y="440" type="curve" smooth="yes"/>
			<point x="590" y="594"/>
			<point x="516" y="662"/>
			<point x="402" y="662" type="curve" smooth="yes"/>
			<point x="340" y="662"/>
			<point x="286" y="636"/>
			<point x="238" y="584" type="curve"/>
			<point x="238" y="650" type="line"/>
			<point x="72" y="650" type="line"/>
		</contour>
		<contour>
			<point x="244" y="146" type="curve"/>
			<point x="244" y="438" type="line"/>
			<point x="274" y="490"/>
			<point x="314" y="514"/>
			<point x="348" y="514" type="curve" smooth="yes"/>
			<point x="394" y="514"/>
			<point x="418" y="486"/>
			<point x="418" y="420" type="curve" smooth="yes"/>
			<point x="418" y="320"/>
			<point x="378" y="232"/>
		</contour>
	</outline>
	<anchor name="aboveUC" x="350" y="672"/>
</glyph>
<glyph name="ou" format="2">
	<unicode hex="0223"/>
	<advance width="560"/>
	<outline>
		<contour>
			<point x="282" y="126" type="curve" smooth="yes"/>
			<point x="237" y="126"/>
			<point x="198" y="150"/>
			<point x="198" y="218" type="curve" smooth="yes"/>
			<point x="198" y="262"/>
			<point x="216" y="306"/>
			<point x="244" y="336" type="curve"/>
			<point x="320" y="305"/>
			<point x="352" y="261"/>
			<point x="352" y="210" type="curve" smooth="yes"/>
			<point x="352" y="148"/>
			<point x="320" y="126"/>
		</contour>
		<contour>
			<point x="276" y="-12" type="curve" smooth="yes"/>
			<point x="428" y="-12"/>
			<point x="528" y="72"/>
			<point x="528" y="218" type="curve" smooth="yes"/>
			<point x="528" y="322"/>
			<point x="474" y="388"/>
			<point x="400" y="426" type="curve"/>
			<point x="400" y="430" type="line"/>
			<point x="458" y="458"/>
			<point x="504" y="526"/>
			<point x="504" y="602" type="curve" smooth="yes"/>
			<point x="504" y="640"/>
			<point x="500" y="658"/>
			<point x="482" y="700" type="curve"/>
			<point x="342" y="660" type="line"/>
			<point x="349" y="644"/>
			<point x="354" y="624"/>
			<point x="354" y="598" type="curve" smooth="yes"/>
			<point x="354" y="554"/>
			<point x="339" y="507"/>
			<point x="306" y="474" type="curve"/>
			<point x="240" y="500"/>
			<point x="210" y="540"/>
			<point x="210" y="598" type="curve" smooth="yes"/>
			<point x="210" y="631"/>
			<point x="215" y="642"/>
			<point x="226" y="670" type="curve"/>
			<point x="74" y="708" type="line"/>
			<point x="55" y="674"/>
			<point x="46" y="642"/>
			<point x="46" y="588" type="curve" smooth="yes"/>
			<point x="46" y="504"/>
			<point x="89" y="437"/>
			<point x="154" y="388" type="curve"/>
			<point x="154" y="384" type="line"/>
			<point x="83" y="356"/>
			<point x="32" y="294"/>
			<point x="32" y="204" type="curve" smooth="yes"/>
			<point x="32" y="70"/>
			<point x="138" y="-12"/>
		</contour>
	</outline>
	<anchor name="aboveUC" x="280" y="722"/>
	<anchor name="belowLC" x="280" y="-22"/>
	<guideline x="32" y="304" angle="90" identifier="x3Dpn4xrWy"/>
	<guideline x="528" y="205" angle="90" identifier="wyM4a7yRlu"/>
</glyph>
<glyph name="Astroke" format="2">
	<unicode hex="023A"/>
	<advance width="584"/>
	<outline>
		<contour>
			<point x="240" y="-46" type="line"/>
			<point x="392" y="686" type="line"/>
			<point x="346" y="696" type="line"/>
			<point x="194" y="-36" type="line"/>
		</contour>
		<component base="A"/>
	</outline>
	<anchor name="aboveUC" x="290" y="672"/>
	<anchor name="belowLC" x="290" y="-22"/>
	<guideline x="243" y="-46" angle="0" identifier="2fvMakXKCW"/>
</glyph>
<glyph name="Cstroke" format="2">
	<unicode hex="023B"/>
	<advance width="586"/>
	<outline>
		<contour>
			<point x="266" y="-66" type="line"/>
			<point x="466" y="706" type="line"/>
			<point x="420" y="716" type="line"/>
			<point x="220" y="-56" type="line"/>
		</contour>
		<component base="C"/>
	</outline>
	<anchor name="aboveUC" x="350" y="672"/>
	<anchor name="belowLC" x="350" y="-22"/>
</glyph>
<glyph name="Lbar" format="2">
	<unicode hex="023D"/>
	<advance width="560"/>
	<outline>
		<contour>
			<point x="24" y="308" type="line"/>
			<point x="448" y="308" type="line"/>
			<point x="448" y="420" type="line"/>
			<point x="104" y="420" type="line"/>
			<point x="24" y="414" type="line"/>
		</contour>
		<component base="L" xOffset="30"/>
	</outline>
	<anchor name="aboveUC" x="190" y="672"/>
	<anchor name="belowLC" x="320" y="-22"/>
</glyph>
<glyph name="Glottalstop" format="1">
	<unicode hex="0241"/>
	<advance width="550"/>
	<outline>
		<contour>
			<point x="162" y="0" type="line"/>
			<point x="334" y="0" type="line"/>
			<point x="334" y="192" type="line"/>
			<point x="428" y="242"/>
			<point x="508" y="328"/>
			<point x="508" y="446" type="curve" smooth="yes"/>
			<point x="508" y="590"/>
			<point x="383" y="662"/>
			<point x="244" y="662" type="curve" smooth="yes"/>
			<point x="148" y="662"/>
			<point x="62" y="620"/>
			<point x="0" y="560" type="curve"/>
			<point x="86" y="450" type="line"/>
			<point x="130" y="488"/>
			<point x="187" y="514"/>
			<point x="228" y="514" type="curve" smooth="yes"/>
			<point x="288" y="514"/>
			<point x="332" y="486"/>
			<point x="332" y="430" type="curve" smooth="yes"/>
			<point x="332" y="368"/>
			<point x="286" y="316"/>
			<point x="162" y="266" type="curve"/>
		</contour>
		<contour>
			<point name="aboveUC" x="270" y="672" type="move"/>
		</contour>
		<contour>
			<point name="belowLC" x="240" y="-22" type="move"/>
		</contour>
	</outline>
</glyph>
<glyph name="Bstroke" format="2">
	<unicode hex="0243"/>
	<advance width="632"/>
	<outline>
		<contour>
			<point x="92" y="0" type="line"/>
			<point x="346" y="0" type="line" smooth="yes"/>
			<point x="486" y="0"/>
			<point x="602" y="61"/>
			<point x="602" y="202" type="curve" smooth="yes"/>
			<point x="602" y="294"/>
			<point x="556" y="345"/>
			<point x="464" y="364" type="curve"/>
			<point x="464" y="368" type="line"/>
			<point x="540" y="387"/>
			<point x="572" y="442"/>
			<point x="572" y="494" type="curve" smooth="yes"/>
			<point x="572" y="614"/>
			<point x="462" y="650"/>
			<point x="326" y="650" type="curve" smooth="yes"/>
			<point x="92" y="650" type="line"/>
		</contour>
		<contour>
			<point x="264" y="404" type="line"/>
			<point x="264" y="528" type="line"/>
			<point x="322" y="528" type="line" smooth="yes"/>
			<point x="378" y="528"/>
			<point x="408" y="512"/>
			<point x="408" y="472" type="curve" smooth="yes"/>
			<point x="408" y="432"/>
			<point x="378" y="404"/>
			<point x="322" y="404" type="curve" smooth="yes"/>
		</contour>
		<contour>
			<point x="264" y="122" type="line"/>
			<point x="264" y="304" type="line"/>
			<point x="334" y="304" type="line" smooth="yes"/>
			<point x="402" y="304"/>
			<point x="438" y="278"/>
			<point x="438" y="216" type="curve" smooth="yes"/>
			<point x="438" y="156"/>
			<point x="402" y="122"/>
			<point x="334" y="122" type="curve" smooth="yes"/>
		</contour>
		<contour>
			<point x="22" y="158" type="line"/>
			<point x="380" y="158" type="line"/>
			<point x="380" y="270" type="line"/>
			<point x="94" y="270" type="line"/>
			<point x="22" y="264" type="line"/>
		</contour>
	</outline>
</glyph>
<glyph name="Ubar" format="2">
	<unicode hex="0244"/>
	<advance width="730"/>
	<outline>
		<contour>
			<point x="28" y="318" type="line"/>
			<point x="704" y="318" type="line"/>
			<point x="704" y="430" type="line"/>
			<point x="100" y="430" type="line"/>
			<point x="28" y="424" type="line"/>
		</contour>
		<component base="U" xOffset="30"/>
	</outline>
	<anchor name="aboveUC" x="366" y="672"/>
	<anchor name="belowLC" x="366" y="-22"/>
</glyph>
<glyph name="Jstroke" format="2">
	<unicode hex="0248"/>
	<advance width="520"/>
	<outline>
		<contour>
			<point x="166" y="318" type="line"/>
			<point x="522" y="318" type="line"/>
			<point x="522" y="430" type="line"/>
			<point x="282" y="430" type="line"/>
			<point x="166" y="424" type="line"/>
		</contour>
		<component base="J"/>
	</outline>
	<anchor name="aboveUC" x="360" y="672"/>
	<anchor name="belowLC" x="270" y="-22"/>
</glyph>
<glyph name="aturned" format="2">
	<unicode hex="0250"/>
	<advance width="542"/>
	<outline>
		<contour>
			<point x="280" y="-12" type="curve" smooth="yes"/>
			<point x="348" y="-12"/>
			<point x="420" y="12"/>
			<point x="490" y="54" type="curve"/>
			<point x="430" y="164" type="line"/>
			<point x="379" y="136"/>
			<point x="340" y="124"/>
			<point x="306" y="124" type="curve" smooth="yes"/>
			<point x="256" y="124"/>
			<point x="229" y="138"/>
			<point x="224" y="174" type="curve"/>
			<point x="416" y="196"/>
			<point x="496" y="266"/>
			<point x="496" y="372" type="curve" smooth="yes"/>
			<point x="496" y="449"/>
			<point x="448" y="512"/>
			<point x="360" y="512" type="curve" smooth="yes"/>
			<point x="294" y="512"/>
			<point x="244" y="484"/>
			<point x="208" y="442" type="curve"/>
			<point x="204" y="442" type="line"/>
			<point x="192" y="500" type="line"/>
			<point x="52" y="500" type="line"/>
			<point x="52" y="226" type="line" smooth="yes"/>
			<point x="52" y="62"/>
			<point x="138" y="-12"/>
		</contour>
		<contour>
			<point x="224" y="278" type="curve"/>
			<point x="224" y="336" type="line"/>
			<point x="243" y="362"/>
			<point x="264" y="380"/>
			<point x="292" y="380" type="curve" smooth="yes"/>
			<point x="316" y="380"/>
			<point x="332" y="367"/>
			<point x="332" y="344" type="curve" smooth="yes"/>
			<point x="332" y="316"/>
			<point x="306" y="290"/>
		</contour>
	</outline>
	<anchor name="aboveLC" x="290" y="522"/>
	<anchor name="belowLC" x="280" y="-22"/>
	<anchor name="ogonekLC" x="280" y="0"/>
</glyph>
<glyph name="oopen" format="2">
	<unicode hex="0254"/>
	<advance width="472"/>
	<outline>
		<contour>
			<point x="188" y="-12" type="curve" smooth="yes"/>
			<point x="328" y="-12"/>
			<point x="440" y="84"/>
			<point x="440" y="250" type="curve" smooth="yes"/>
			<point x="440" y="418"/>
			<point x="326" y="512"/>
			<point x="192" y="512" type="curve" smooth="yes"/>
			<point x="124" y="512"/>
			<point x="64" y="490"/>
			<point x="26" y="460" type="curve"/>
			<point x="106" y="350" type="line"/>
			<point x="128" y="368"/>
			<point x="144" y="374"/>
			<point x="172" y="374" type="curve" smooth="yes"/>
			<point x="226" y="374"/>
			<point x="264" y="326"/>
			<point x="264" y="250" type="curve" smooth="yes"/>
			<point x="264" y="174"/>
			<point x="222" y="126"/>
			<point x="168" y="126" type="curve" smooth="yes"/>
			<point x="140" y="126"/>
			<point x="112" y="140"/>
			<point x="88" y="158" type="curve"/>
			<point x="22" y="46" type="line"/>
			<point x="72" y="2"/>
			<point x="136" y="-12"/>
		</contour>
	</outline>
	<anchor name="aboveLC" x="220" y="522"/>
	<anchor name="baseLC" x="210" y="0"/>
	<anchor name="belowLC" x="210" y="-22"/>
	<anchor name="ogonekLC" x="220" y="0"/>
</glyph>
<glyph name="ccurl" format="2">
	<unicode hex="0255"/>
	<advance width="482"/>
	<outline>
		<contour>
			<point x="142" y="-74" type="line"/>
			<point x="190" y="86"/>
			<point x="267" y="184"/>
			<point x="324" y="184" type="curve" smooth="yes"/>
			<point x="344" y="184"/>
			<point x="356" y="174"/>
			<point x="356" y="154" type="curve" smooth="yes"/>
			<point x="356" y="136"/>
			<point x="336" y="118"/>
			<point x="296" y="118" type="curve" smooth="yes"/>
			<point x="241" y="118"/>
			<point x="198" y="168"/>
			<point x="198" y="250" type="curve" smooth="yes"/>
			<point x="198" y="332"/>
			<point x="240" y="382"/>
			<point x="310" y="382" type="curve" smooth="yes"/>
			<point x="328" y="382"/>
			<point x="350" y="376"/>
			<point x="372" y="360" type="curve"/>
			<point x="446" y="460" type="line"/>
			<point x="408" y="492"/>
			<point x="360" y="512"/>
			<point x="300" y="512" type="curve" smooth="yes"/>
			<point x="158" y="512"/>
			<point x="32" y="416"/>
			<point x="32" y="250" type="curve" smooth="yes"/>
			<point x="32" y="84"/>
			<point x="141" y="-12"/>
			<point x="284" y="-12" type="curve" smooth="yes"/>
			<point x="409" y="-12"/>
			<point x="478" y="62"/>
			<point x="478" y="154" type="curve" smooth="yes"/>
			<point x="478" y="242"/>
			<point x="423" y="296"/>
			<point x="344" y="296" type="curve" smooth="yes"/>
			<point x="222" y="296"/>
			<point x="120" y="176"/>
			<point x="40" y="-36" type="curve"/>
		</contour>
	</outline>
	<anchor name="aboveLC" x="290" y="522"/>
	<anchor name="belowLC" x="290" y="-22"/>
</glyph>
<glyph name="schwahookrhotic" format="1">
	<unicode hex="025A"/>
	<advance width="750"/>
	<outline>
		<contour>
			<point x="258" y="-12" type="curve" smooth="yes"/>
			<point x="396" y="-12"/>
			<point x="494" y="100"/>
			<point x="494" y="240" type="curve" smooth="yes"/>
			<point x="494" y="396"/>
			<point x="410" y="512"/>
			<point x="249" y="512" type="curve" smooth="yes"/>
			<point x="197" y="512"/>
			<point x="126" y="500"/>
			<point x="68" y="462" type="curve"/>
			<point x="124" y="352" type="line"/>
			<point x="158" y="372"/>
			<point x="192" y="382"/>
			<point x="225" y="382" type="curve" smooth="yes"/>
			<point x="304" y="382"/>
			<point x="336" y="337"/>
			<point x="336" y="223" type="curve" smooth="yes"/>
			<point x="336" y="158"/>
			<point x="302" y="116"/>
			<point x="258" y="116" type="curve" smooth="yes"/>
			<point x="224" y="116"/>
			<point x="196" y="134"/>
			<point x="188" y="166" type="curve"/>
			<point x="550" y="322" type="line"/>
			<point x="550" y="316" type="line" smooth="yes"/>
			<point x="550" y="228"/>
			<point x="606" y="194"/>
			<point x="666" y="194" type="curve" smooth="yes"/>
			<point x="710" y="194"/>
			<point x="738" y="206"/>
			<point x="760" y="220" type="curve"/>
			<point x="726" y="300" type="line"/>
			<point x="716" y="294"/>
			<point x="704" y="290"/>
			<point x="686" y="290" type="curve" smooth="yes"/>
			<point x="654" y="290"/>
			<point x="634" y="316"/>
			<point x="634" y="388" type="curve" smooth="yes"/>
			<point x="634" y="408"/>
			<point x="634" y="428"/>
			<point x="636" y="456" type="curve"/>
			<point x="624" y="466" type="line"/>
			<point x="36" y="224" type="line"/>
			<point x="42" y="102"/>
			<point x="106" y="-12"/>
		</contour>
		<contour>
			<point name="aboveLC" x="260" y="522" type="move"/>
		</contour>
		<contour>
			<point name="belowLC" x="270" y="-22" type="move"/>
		</contour>
	</outline>
</glyph>
<glyph name="eopen" format="1">
	<unicode hex="025B"/>
	<advance width="450"/>
	<outline>
		<contour>
			<point x="252" y="-12" type="curve" smooth="yes"/>
			<point x="326" y="-12"/>
			<point x="386" y="2"/>
			<point x="434" y="42" type="curve"/>
			<point x="378" y="144" type="line"/>
			<point x="344" y="126"/>
			<point x="308" y="118"/>
			<point x="282" y="118" type="curve" smooth="yes"/>
			<point x="232" y="118"/>
			<point x="202" y="132"/>
			<point x="202" y="160" type="curve" smooth="yes"/>
			<point x="202" y="186"/>
			<point x="218" y="198"/>
			<point x="260" y="198" type="curve" smooth="yes"/>
			<point x="338" y="198" type="line"/>
			<point x="338" y="310" type="line"/>
			<point x="276" y="310" type="line" smooth="yes"/>
			<point x="244" y="310"/>
			<point x="224" y="319"/>
			<point x="224" y="344" type="curve" smooth="yes"/>
			<point x="224" y="365"/>
			<point x="242" y="382"/>
			<point x="278" y="382" type="curve" smooth="yes"/>
			<point x="312" y="382"/>
			<point x="338" y="378"/>
			<point x="370" y="362" type="curve"/>
			<point x="430" y="466" type="line"/>
			<point x="384" y="496"/>
			<point x="324" y="512"/>
			<point x="262" y="512" type="curve" smooth="yes"/>
			<point x="152" y="512"/>
			<point x="56" y="466"/>
			<point x="56" y="366" type="curve" smooth="yes"/>
			<point x="56" y="328"/>
			<point x="80" y="282"/>
			<point x="136" y="266" type="curve"/>
			<point x="136" y="262" type="line"/>
			<point x="74" y="246"/>
			<point x="34" y="206"/>
			<point x="34" y="134" type="curve" smooth="yes"/>
			<point x="34" y="37"/>
			<point x="145" y="-12"/>
		</contour>
		<contour>
			<point name="aboveLC" x="250" y="522" type="move"/>
		</contour>
		<contour>
			<point name="baseLC" x="250" y="0" type="move"/>
		</contour>
		<contour>
			<point name="belowLC" x="250" y="-22" type="move"/>
		</contour>
	</outline>
</glyph>
<glyph name="eopenreversed" format="1">
	<unicode hex="025C"/>
	<advance width="450"/>
	<outline>
		<contour>
			<point x="198" y="-12" type="curve" smooth="yes"/>
			<point x="305" y="-12"/>
			<point x="416" y="37"/>
			<point x="416" y="134" type="curve" smooth="yes"/>
			<point x="416" y="206"/>
			<point x="376" y="246"/>
			<point x="314" y="262" type="curve"/>
			<point x="314" y="266" type="line"/>
			<point x="370" y="282"/>
			<point x="394" y="328"/>
			<point x="394" y="366" type="curve" smooth="yes"/>
			<point x="394" y="466"/>
			<point x="298" y="512"/>
			<point x="188" y="512" type="curve" smooth="yes"/>
			<point x="126" y="512"/>
			<point x="66" y="496"/>
			<point x="20" y="466" type="curve"/>
			<point x="80" y="362" type="line"/>
			<point x="112" y="378"/>
			<point x="138" y="382"/>
			<point x="172" y="382" type="curve" smooth="yes"/>
			<point x="208" y="382"/>
			<point x="226" y="365"/>
			<point x="226" y="344" type="curve" smooth="yes"/>
			<point x="226" y="319"/>
			<point x="206" y="310"/>
			<point x="174" y="310" type="curve" smooth="yes"/>
			<point x="112" y="310" type="line"/>
			<point x="112" y="198" type="line"/>
			<point x="190" y="198" type="line" smooth="yes"/>
			<point x="232" y="198"/>
			<point x="248" y="186"/>
			<point x="248" y="160" type="curve" smooth="yes"/>
			<point x="248" y="132"/>
			<point x="218" y="118"/>
			<point x="168" y="118" type="curve" smooth="yes"/>
			<point x="142" y="118"/>
			<point x="106" y="126"/>
			<point x="72" y="144" type="curve"/>
			<point x="16" y="42" type="line"/>
			<point x="64" y="2"/>
			<point x="124" y="-12"/>
		</contour>
		<contour>
			<point name="aboveLC" x="212" y="522" type="move"/>
		</contour>
		<contour>
			<point name="belowLC" x="212" y="-22" type="move"/>
		</contour>
	</outline>
</glyph>
<glyph name="eopenreversedclosed" format="1">
	<unicode hex="025E"/>
	<advance width="574"/>
	<outline>
		<contour>
			<point x="292" y="-12" type="curve" smooth="yes"/>
			<point x="414" y="-12"/>
			<point x="532" y="40"/>
			<point x="532" y="144" type="curve" smooth="yes"/>
			<point x="532" y="210"/>
			<point x="492" y="246"/>
			<point x="429" y="262" type="curve"/>
			<point x="429" y="266" type="line"/>
			<point x="486" y="282"/>
			<point x="510" y="328"/>
			<point x="510" y="366" type="curve" smooth="yes"/>
			<point x="510" y="469"/>
			<point x="410" y="512"/>
			<point x="296" y="512" type="curve" smooth="yes"/>
			<point x="160" y="512"/>
			<point x="32" y="418"/>
			<point x="32" y="226" type="curve" smooth="yes"/>
			<point x="32" y="66"/>
			<point x="148" y="-12"/>
		</contour>
		<contour>
			<point x="302" y="118" type="curve" smooth="yes"/>
			<point x="244" y="118"/>
			<point x="208" y="151"/>
			<point x="208" y="236" type="curve" smooth="yes"/>
			<point x="208" y="346"/>
			<point x="242" y="382"/>
			<point x="296" y="382" type="curve" smooth="yes"/>
			<point x="322" y="382"/>
			<point x="342" y="364"/>
			<point x="342" y="342" type="curve" smooth="yes"/>
			<point x="342" y="318"/>
			<point x="327" y="310"/>
			<point x="300" y="310" type="curve" smooth="yes"/>
			<point x="268" y="310" type="line"/>
			<point x="268" y="198" type="line"/>
			<point x="316" y="198" type="line" smooth="yes"/>
			<point x="350" y="198"/>
			<point x="364" y="190"/>
			<point x="364" y="162" type="curve" smooth="yes"/>
			<point x="364" y="136"/>
			<point x="338" y="118"/>
		</contour>
		<contour>
			<point name="aboveLC" x="310" y="522" type="move"/>
		</contour>
		<contour>
			<point name="belowLC" x="290" y="-22" type="move"/>
		</contour>
	</outline>
</glyph>
<glyph name="dotlessjstroke" format="2">
	<unicode hex="025F"/>
	<advance width="350"/>
	<outline>
		<contour>
			<point x="22" y="198" type="line"/>
			<point x="328" y="198" type="line"/>
			<point x="328" y="310" type="line"/>
			<point x="90" y="310" type="line"/>
			<point x="22" y="304" type="line"/>
		</contour>
		<component base="dotlessj" xOffset="30"/>
	</outline>
	<anchor name="aboveLC" x="176" y="522"/>
	<anchor name="belowLC" x="120" y="-182"/>
</glyph>
<glyph name="ramshorn" format="2">
	<unicode hex="0264"/>
	<advance width="592"/>
	<outline>
		<contour>
			<point x="296" y="-12" type="curve" smooth="yes"/>
			<point x="418" y="-12"/>
			<point x="502" y="58"/>
			<point x="502" y="164" type="curve" smooth="yes"/>
			<point x="502" y="210"/>
			<point x="472" y="282"/>
			<point x="402" y="342" type="curve"/>
			<point x="428" y="363"/>
			<point x="452" y="374"/>
			<point x="482" y="374" type="curve" smooth="yes"/>
			<point x="499" y="374"/>
			<point x="516" y="370"/>
			<point x="528" y="362" type="curve"/>
			<point x="576" y="484" type="line"/>
			<point x="555" y="500"/>
			<point x="514" y="512"/>
			<point x="478" y="512" type="curve" smooth="yes"/>
			<point x="428" y="512"/>
			<point x="368" y="496"/>
			<point x="296" y="436" type="curve"/>
			<point x="224" y="496"/>
			<point x="164" y="512"/>
			<point x="114" y="512" type="curve" smooth="yes"/>
			<point x="78" y="512"/>
			<point x="37" y="500"/>
			<point x="16" y="484" type="curve"/>
			<point x="64" y="362" type="line"/>
			<point x="76" y="370"/>
			<point x="92" y="374"/>
			<point x="110" y="374" type="curve" smooth="yes"/>
			<point x="138" y="374"/>
			<point x="164" y="363"/>
			<point x="190" y="342" type="curve"/>
			<point x="120" y="282"/>
			<point x="90" y="210"/>
			<point x="90" y="164" type="curve" smooth="yes"/>
			<point x="90" y="58"/>
			<point x="174" y="-12"/>
		</contour>
		<contour>
			<point x="296" y="118" type="curve" smooth="yes"/>
			<point x="267" y="118"/>
			<point x="250" y="138"/>
			<point x="250" y="172" type="curve" smooth="yes"/>
			<point x="250" y="200"/>
			<point x="266" y="238"/>
			<point x="296" y="266" type="curve"/>
			<point x="326" y="238"/>
			<point x="342" y="200"/>
			<point x="342" y="172" type="curve" smooth="yes"/>
			<point x="342" y="138"/>
			<point x="325" y="118"/>
		</contour>
	</outline>
	<anchor name="aboveLC" x="300" y="522"/>
	<anchor name="belowLC" x="300" y="-22"/>
</glyph>
<glyph name="henghook" format="2">
	<unicode hex="0267"/>
	<advance width="582"/>
	<outline>
		<contour>
			<point x="334" y="-188" type="curve" smooth="yes"/>
			<point x="484" y="-188"/>
			<point x="528" y="-86"/>
			<point x="528" y="26" type="curve" smooth="yes"/>
			<point x="528" y="288" type="line" smooth="yes"/>
			<point x="528" y="412"/>
			<point x="482" y="492"/>
			<point x="372" y="492" type="curve" smooth="yes"/>
			<point x="304" y="492"/>
			<point x="256" y="458"/>
			<point x="222" y="428" type="curve"/>
			<point x="228" y="492" type="line" smooth="yes"/>
			<point x="234" y="554"/>
			<point x="258" y="574"/>
			<point x="302" y="574" type="curve" smooth="yes"/>
			<point x="318" y="574"/>
			<point x="336" y="570"/>
			<point x="352" y="564" type="curve"/>
			<point x="382" y="690" type="line"/>
			<point x="360" y="698"/>
			<point x="322" y="708"/>
			<point x="276" y="708" type="curve" smooth="yes"/>
			<point x="114" y="708"/>
			<point x="58" y="603"/>
			<point x="58" y="486" type="curve" smooth="yes"/>
			<point x="58" y="0" type="line"/>
			<point x="230" y="0" type="line"/>
			<point x="230" y="308" type="line"/>
			<point x="256" y="332"/>
			<point x="274" y="346"/>
			<point x="306" y="346" type="curve" smooth="yes"/>
			<point x="340" y="346"/>
			<point x="356" y="330"/>
			<point x="356" y="266" type="curve" smooth="yes"/>
			<point x="356" y="20" type="line"/>
			<point x="356" y="-34"/>
			<point x="342" y="-54"/>
			<point x="306" y="-54" type="curve" smooth="yes"/>
			<point x="294" y="-54"/>
			<point x="284" y="-52"/>
			<point x="270" y="-48" type="curve"/>
			<point x="240" y="-174" type="line"/>
			<point x="262" y="-182"/>
			<point x="288" y="-188"/>
		</contour>
	</outline>
	<anchor name="aboveUC" x="320" y="722"/>
	<anchor name="belowLC" x="290" y="-182"/>
</glyph>
<glyph name="iotalatin" format="2">
	<unicode hex="0269"/>
	<advance width="298"/>
	<outline>
		<contour>
			<point x="212" y="-12" type="curve" smooth="yes"/>
			<point x="250" y="-12"/>
			<point x="278" y="-6"/>
			<point x="296" y="2" type="curve"/>
			<point x="276" y="128" type="line"/>
			<point x="268" y="126"/>
			<point x="264" y="126"/>
			<point x="258" y="126" type="curve" smooth="yes"/>
			<point x="246" y="126"/>
			<point x="230" y="136"/>
			<point x="230" y="170" type="curve" smooth="yes"/>
			<point x="230" y="500" type="line"/>
			<point x="58" y="500" type="line"/>
			<point x="58" y="176" type="line" smooth="yes"/>
			<point x="58" y="64"/>
			<point x="96" y="-12"/>
		</contour>
	</outline>
	<anchor name="aboveLC" x="150" y="522"/>
	<anchor name="belowLC" x="170" y="-22"/>
</glyph>
<glyph name="lbelt" format="1">
	<unicode hex="026C"/>
	<advance width="478"/>
	<outline>
		<contour>
			<point x="156" y="270" type="curve" smooth="yes"/>
			<point x="460" y="270" type="line"/>
			<point x="460" y="382" type="line"/>
			<point x="142" y="382" type="line" smooth="yes"/>
			<point x="113" y="382"/>
			<point x="96" y="392"/>
			<point x="96" y="410" type="curve" smooth="yes"/>
			<point x="96" y="428"/>
			<point x="107" y="438"/>
			<point x="124" y="438" type="curve" smooth="yes"/>
			<point x="148" y="438"/>
			<point x="168" y="418"/>
			<point x="168" y="382" type="curve"/>
			<point x="224" y="362" type="line"/>
			<point x="224" y="456"/>
			<point x="176" y="518"/>
			<point x="108" y="518" type="curve" smooth="yes"/>
			<point x="41" y="518"/>
			<point x="-6" y="470"/>
			<point x="-6" y="404" type="curve" smooth="yes"/>
			<point x="-6" y="330"/>
			<point x="43" y="270"/>
		</contour>
		<component base="l.a" xOffset="110"/>
		<contour>
			<point name="aboveUC" x="260" y="720" type="move"/>
		</contour>
		<contour>
			<point name="belowLC" x="260" y="-22" type="move"/>
		</contour>
	</outline>
</glyph>
<glyph name="lretroflex" format="2">
	<unicode hex="026D"/>
	<advance width="298"/>
	<outline>
		<contour>
			<point x="242" y="-188" type="curve" smooth="yes"/>
			<point x="283" y="-188"/>
			<point x="306" y="-182"/>
			<point x="326" y="-174" type="curve"/>
			<point x="296" y="-48" type="line"/>
			<point x="286" y="-52"/>
			<point x="279" y="-54"/>
			<point x="270" y="-54" type="curve" smooth="yes"/>
			<point x="241" y="-54"/>
			<point x="230" y="-37"/>
			<point x="230" y="10" type="curve" smooth="yes"/>
			<point x="230" y="696" type="line"/>
			<point x="58" y="696" type="line"/>
			<point x="58" y="16" type="line" smooth="yes"/>
			<point x="58" y="-91"/>
			<point x="100" y="-188"/>
		</contour>
	</outline>
	<anchor name="aboveUC" x="150" y="722"/>
	<anchor name="belowLC" x="180" y="-182"/>
</glyph>
<glyph name="mturned" format="2">
	<unicode hex="026F"/>
	<advance width="868"/>
	<outline>
		<contour>
			<point x="216" y="-12" type="curve" smooth="yes"/>
			<point x="284" y="-12"/>
			<point x="329" y="26"/>
			<point x="370" y="68" type="curve"/>
			<point x="397" y="16"/>
			<point x="440" y="-12"/>
			<point x="508" y="-12" type="curve" smooth="yes"/>
			<point x="576" y="-12"/>
			<point x="618" y="22"/>
			<point x="658" y="61" type="curve"/>
			<point x="662" y="61" type="line"/>
			<point x="674" y="0" type="line"/>
			<point x="814" y="0" type="line"/>
			<point x="814" y="500" type="line"/>
			<point x="642" y="500" type="line"/>
			<point x="642" y="172" type="line"/>
			<point x="616" y="146"/>
			<point x="592" y="134"/>
			<point x="572" y="134" type="curve" smooth="yes"/>
			<point x="538" y="134"/>
			<point x="522" y="150"/>
			<point x="522" y="214" type="curve" smooth="yes"/>
			<point x="522" y="500" type="line"/>
			<point x="350" y="500" type="line"/>
			<point x="350" y="172" type="line"/>
			<point x="324" y="146"/>
			<point x="300" y="134"/>
			<point x="280" y="134" type="curve" smooth="yes"/>
			<point x="246" y="134"/>
			<point x="230" y="150"/>
			<point x="230" y="214" type="curve" smooth="yes"/>
			<point x="230" y="500" type="line"/>
			<point x="58" y="500" type="line"/>
			<point x="58" y="192" type="line" smooth="yes"/>
			<point x="58" y="68"/>
			<point x="106" y="-12"/>
		</contour>
	</outline>
	<anchor name="aboveLC" x="446" y="522"/>
	<anchor name="belowLC" x="444" y="-22"/>
</glyph>
<glyph name="rlonglegturned" format="2">
	<unicode hex="027A"/>
	<advance width="418"/>
	<outline>
		<contour>
			<point x="62" y="-12" type="curve" smooth="yes"/>
			<point x="111" y="-12"/>
			<point x="167" y="18"/>
			<point x="204" y="86" type="curve"/>
			<point x="208" y="86" type="line"/>
			<point x="220" y="0" type="line"/>
			<point x="360" y="0" type="line"/>
			<point x="360" y="696" type="line"/>
			<point x="188" y="696" type="line"/>
			<point x="188" y="222" type="line"/>
			<point x="164" y="160"/>
			<point x="120" y="138"/>
			<point x="84" y="138" type="curve" smooth="yes"/>
			<point x="62" y="138"/>
			<point x="50" y="140"/>
			<point x="32" y="144" type="curve"/>
			<point x="0" y="-2" type="line"/>
			<point x="14" y="-8"/>
			<point x="31" y="-12"/>
		</contour>
	</outline>
	<anchor name="aboveUC" x="270" y="722"/>
	<anchor name="belowLC" x="180" y="-22"/>
</glyph>
<glyph name="rfishhook" format="1">
	<unicode hex="027E"/>
	<advance width="394"/>
	<outline>
		<contour>
			<point x="54" y="0" type="line"/>
			<point x="226" y="0" type="line"/>
			<point x="226" y="262" type="line" smooth="yes"/>
			<point x="226" y="341"/>
			<point x="270" y="364"/>
			<point x="298" y="364" type="curve" smooth="yes"/>
			<point x="328" y="364"/>
			<point x="338" y="362"/>
			<point x="368" y="354" type="curve"/>
			<point x="394" y="498" type="line"/>
			<point x="368" y="506"/>
			<point x="326" y="512"/>
			<point x="272" y="512" type="curve" smooth="yes"/>
			<point x="113" y="512"/>
			<point x="54" y="412"/>
			<point x="54" y="300" type="curve" smooth="yes"/>
		</contour>
		<contour>
			<point name="aboveLC" x="250" y="522" type="move"/>
		</contour>
		<contour>
			<point name="belowLC" x="140" y="-22" type="move"/>
		</contour>
	</outline>
</glyph>
<glyph name="dotlessjstrokehook" format="1">
	<unicode hex="0284"/>
	<advance width="380"/>
	<outline>
		<contour>
			<point x="18" y="198" type="line"/>
			<point x="358" y="198" type="line"/>
			<point x="358" y="310" type="line"/>
			<point x="104" y="310" type="line"/>
			<point x="18" y="304" type="line"/>
		</contour>
		<component base="esh" xOffset="44"/>
		<contour>
			<point name="aboveUC" x="260" y="720" type="move"/>
		</contour>
		<contour>
			<point name="belowLC" x="130" y="-198" type="move"/>
		</contour>
	</outline>
</glyph>
<glyph name="apicalretroflex" format="2">
	<unicode hex="0285"/>
	<advance width="338"/>
	<outline>
		<contour>
			<point x="282" y="-188" type="curve" smooth="yes"/>
			<point x="323" y="-188"/>
			<point x="346" y="-182"/>
			<point x="366" y="-174" type="curve"/>
			<point x="336" y="-48" type="line"/>
			<point x="326" y="-52"/>
			<point x="319" y="-54"/>
			<point x="310" y="-54" type="curve" smooth="yes"/>
			<point x="281" y="-54"/>
			<point x="270" y="-37"/>
			<point x="270" y="10" type="curve"/>
			<point x="270" y="298" type="line" smooth="yes"/>
			<point x="270" y="410"/>
			<point x="224" y="512"/>
			<point x="66" y="512" type="curve" smooth="yes"/>
			<point x="25" y="512"/>
			<point x="2" y="506"/>
			<point x="-18" y="498" type="curve"/>
			<point x="12" y="372" type="line"/>
			<point x="22" y="376"/>
			<point x="29" y="378"/>
			<point x="38" y="378" type="curve" smooth="yes"/>
			<point x="81" y="378"/>
			<point x="98" y="358"/>
			<point x="98" y="304" type="curve" smooth="yes"/>
			<point x="98" y="16" type="line" smooth="yes"/>
			<point x="98" y="-91"/>
			<point x="140" y="-188"/>
		</contour>
	</outline>
	<anchor name="aboveLC" x="140" y="522"/>
	<anchor name="belowLC" x="220" y="-182"/>
</glyph>
<glyph name="tturned" format="1">
	<unicode hex="0287"/>
	<advance width="400"/>
	<outline>
		<contour>
			<point x="148" y="-150" type="line"/>
			<point x="290" y="-150" type="line"/>
			<point x="310" y="0" type="line"/>
			<point x="386" y="6" type="line"/>
			<point x="386" y="134" type="line"/>
			<point x="320" y="134" type="line"/>
			<point x="320" y="308" type="line" smooth="yes"/>
			<point x="320" y="430"/>
			<point x="266" y="512"/>
			<point x="136" y="512" type="curve" smooth="yes"/>
			<point x="81" y="512"/>
			<point x="44" y="502"/>
			<point x="18" y="494" type="curve"/>
			<point x="44" y="370" type="line"/>
			<point x="56" y="374"/>
			<point x="72" y="378"/>
			<point x="88" y="378" type="curve" smooth="yes"/>
			<point x="120" y="378"/>
			<point x="148" y="360"/>
			<point x="148" y="305" type="curve" smooth="yes"/>
			<point x="148" y="134" type="line"/>
			<point x="34" y="134" type="line"/>
			<point x="34" y="0" type="line"/>
			<point x="148" y="0" type="line"/>
		</contour>
		<contour>
			<point name="aboveLC" x="180" y="520" type="move"/>
		</contour>
		<contour>
			<point name="belowLC" x="210" y="-160" type="move"/>
		</contour>
	</outline>
</glyph>
<glyph name="ubar" format="2">
	<unicode hex="0289"/>
	<advance width="674"/>
	<outline>
		<contour>
			<point x="18" y="254" type="line"/>
			<point x="652" y="254" type="line"/>
			<point x="652" y="366" type="line"/>
			<point x="104" y="366" type="line"/>
			<point x="18" y="360" type="line"/>
		</contour>
		<component base="u" xOffset="50"/>
	</outline>
	<anchor name="aboveLC" x="340" y="522"/>
	<anchor name="baseLC" x="300" y="0"/>
	<anchor name="belowLC" x="330" y="-22"/>
	<anchor name="ogonekLC" x="470" y="0"/>
</glyph>
<glyph name="upsilonlatin" format="2">
	<unicode hex="028A"/>
	<advance width="576"/>
	<outline>
		<contour>
			<point x="288" y="-12" type="curve" smooth="yes"/>
			<point x="445" y="-12"/>
			<point x="534" y="95"/>
			<point x="534" y="198" type="curve" smooth="yes"/>
			<point x="534" y="270"/>
			<point x="502" y="328"/>
			<point x="468" y="363" type="curve"/>
			<point x="468" y="366" type="line"/>
			<point x="544" y="366" type="line"/>
			<point x="544" y="500" type="line"/>
			<point x="319" y="500" type="line"/>
			<point x="319" y="389" type="line"/>
			<point x="350" y="342"/>
			<point x="362" y="304"/>
			<point x="362" y="235" type="curve" smooth="yes"/>
			<point x="362" y="172"/>
			<point x="340" y="126"/>
			<point x="288" y="126" type="curve" smooth="yes"/>
			<point x="236" y="126"/>
			<point x="214" y="172"/>
			<point x="214" y="235" type="curve" smooth="yes"/>
			<point x="214" y="304"/>
			<point x="226" y="342"/>
			<point x="257" y="389" type="curve"/>
			<point x="257" y="500" type="line"/>
			<point x="32" y="500" type="line"/>
			<point x="32" y="366" type="line"/>
			<point x="108" y="366" type="line"/>
			<point x="108" y="363" type="line"/>
			<point x="74" y="328"/>
			<point x="42" y="270"/>
			<point x="42" y="198" type="curve" smooth="yes"/>
			<point x="42" y="95"/>
			<point x="131" y="-12"/>
		</contour>
	</outline>
	<anchor name="aboveLC" x="290" y="522"/>
	<anchor name="belowLC" x="290" y="-22"/>
	<anchor name="ogonekLC" x="290" y="0"/>
</glyph>
<glyph name="zretroflex" format="2">
	<unicode hex="0290"/>
	<advance width="474"/>
	<outline>
		<contour>
			<point x="456" y="-188" type="curve" smooth="yes"/>
			<point x="493" y="-188"/>
			<point x="516" y="-182"/>
			<point x="536" y="-174" type="curve"/>
			<point x="506" y="-48" type="line"/>
			<point x="496" y="-52"/>
			<point x="489" y="-54"/>
			<point x="480" y="-54" type="curve" smooth="yes"/>
			<point x="451" y="-54"/>
			<point x="440" y="-37"/>
			<point x="440" y="10" type="curve"/>
			<point x="440" y="134" type="line"/>
			<point x="254" y="134" type="line"/>
			<point x="444" y="408" type="line"/>
			<point x="444" y="500" type="line"/>
			<point x="62" y="500" type="line"/>
			<point x="62" y="366" type="line"/>
			<point x="230" y="366" type="line"/>
			<point x="40" y="92" type="line"/>
			<point x="40" y="0" type="line"/>
			<point x="286" y="0" type="line"/>
			<point x="286" y="-4" type="line" smooth="yes"/>
			<point x="286" y="-90"/>
			<point x="328" y="-188"/>
		</contour>
	</outline>
	<anchor name="aboveLC" x="250" y="522"/>
	<anchor name="belowLC" x="240" y="-182"/>
</glyph>
<glyph name="ezh" format="2">
	<unicode hex="0292"/>
	<advance width="474"/>
	<outline>
		<contour>
			<point x="216" y="-188" type="curve" smooth="yes"/>
			<point x="345" y="-188"/>
			<point x="452" y="-104"/>
			<point x="452" y="44" type="curve" smooth="yes"/>
			<point x="452" y="143"/>
			<point x="396" y="218"/>
			<point x="294" y="235" type="curve"/>
			<point x="428" y="408" type="line"/>
			<point x="428" y="500" type="line"/>
			<point x="36" y="500" type="line"/>
			<point x="36" y="366" type="line"/>
			<point x="224" y="366" type="line"/>
			<point x="88" y="188" type="line"/>
			<point x="142" y="108" type="line"/>
			<point x="164" y="116"/>
			<point x="172" y="118"/>
			<point x="198" y="118" type="curve" smooth="yes"/>
			<point x="246" y="118"/>
			<point x="280" y="90"/>
			<point x="280" y="40" type="curve" smooth="yes"/>
			<point x="280" y="-18"/>
			<point x="246" y="-50"/>
			<point x="194" y="-50" type="curve" smooth="yes"/>
			<point x="152" y="-50"/>
			<point x="114" y="-28"/>
			<point x="82" y="0" type="curve"/>
			<point x="6" y="-106" type="line"/>
			<point x="54" y="-152"/>
			<point x="121" y="-188"/>
		</contour>
	</outline>
	<anchor name="aboveLC" x="230" y="522"/>
	<anchor name="belowLC" x="220" y="-182"/>
</glyph>
<glyph name="glottalstop" format="1">
	<unicode hex="0294"/>
	<advance width="460"/>
	<outline>
		<contour>
			<point x="122" y="0" type="line"/>
			<point x="294" y="0" type="line"/>
			<point x="294" y="266" type="line"/>
			<point x="380" y="330"/>
			<point x="444" y="398"/>
			<point x="444" y="504" type="curve" smooth="yes"/>
			<point x="444" y="639"/>
			<point x="336" y="708"/>
			<point x="212" y="708" type="curve" smooth="yes"/>
			<point x="118" y="708"/>
			<point x="56" y="670"/>
			<point x="2" y="618" type="curve"/>
			<point x="80" y="518" type="line"/>
			<point x="116" y="548"/>
			<point x="152" y="570"/>
			<point x="192" y="570" type="curve" smooth="yes"/>
			<point x="240" y="570"/>
			<point x="272" y="543"/>
			<point x="272" y="490" type="curve" smooth="yes"/>
			<point x="272" y="434"/>
			<point x="234" y="392"/>
			<point x="122" y="324" type="curve"/>
		</contour>
		<contour>
			<point name="aboveUC" x="220" y="720" type="move"/>
		</contour>
		<contour>
			<point name="belowLC" x="200" y="-22" type="move"/>
		</contour>
	</outline>
</glyph>
<glyph name="glottalstopreversed" format="1">
	<unicode hex="0295"/>
	<advance width="460"/>
	<outline>
		<contour>
			<point x="166" y="0" type="line"/>
			<point x="338" y="0" type="line"/>
			<point x="338" y="324" type="line"/>
			<point x="226" y="392"/>
			<point x="188" y="434"/>
			<point x="188" y="490" type="curve" smooth="yes"/>
			<point x="188" y="543"/>
			<point x="220" y="570"/>
			<point x="268" y="570" type="curve" smooth="yes"/>
			<point x="308" y="570"/>
			<point x="344" y="548"/>
			<point x="380" y="518" type="curve"/>
			<point x="458" y="618" type="line"/>
			<point x="404" y="670"/>
			<point x="342" y="708"/>
			<point x="248" y="708" type="curve" smooth="yes"/>
			<point x="124" y="708"/>
			<point x="16" y="639"/>
			<point x="16" y="504" type="curve" smooth="yes"/>
			<point x="16" y="398"/>
			<point x="80" y="330"/>
			<point x="166" y="266" type="curve"/>
		</contour>
		<contour>
			<point name="aboveUC" x="230" y="720" type="move"/>
		</contour>
		<contour>
			<point name="belowLC" x="250" y="-22" type="move"/>
		</contour>
	</outline>
</glyph>
<glyph name="jcrossedtail" format="1">
	<unicode hex="029D"/>
	<advance width="410"/>
	<outline>
		<component base="jcrossedtail.x"/>
		<component base="dotaccentcmb" xOffset="266"/>
		<contour>
			<point name="belowLC" x="140" y="-178" type="move"/>
		</contour>
	</outline>
</glyph>
<glyph name="ts" format="1">
	<unicode hex="02A6"/>
	<advance width="752"/>
	<outline>
		<contour>
			<point x="412" y="-12" type="curve" smooth="yes"/>
			<point x="658" y="-12"/>
			<point x="726" y="60"/>
			<point x="726" y="154" type="curve" smooth="yes"/>
			<point x="726" y="244"/>
			<point x="658" y="282"/>
			<point x="598" y="304" type="curve" smooth="yes"/>
			<point x="548" y="322"/>
			<point x="506" y="332"/>
			<point x="506" y="358" type="curve" smooth="yes"/>
			<point x="506" y="378"/>
			<point x="521" y="386"/>
			<point x="550" y="386" type="curve" smooth="yes"/>
			<point x="582" y="386"/>
			<point x="619" y="377"/>
			<point x="656" y="350" type="curve"/>
			<point x="728" y="446" type="line"/>
			<point x="684" y="484"/>
			<point x="620" y="512"/>
			<point x="544" y="512" type="curve" smooth="yes"/>
			<point x="426" y="512"/>
			<point x="346" y="448"/>
			<point x="346" y="350" type="curve" smooth="yes"/>
			<point x="346" y="268"/>
			<point x="412" y="225"/>
			<point x="470" y="202" type="curve" smooth="yes"/>
			<point x="520" y="182"/>
			<point x="566" y="170"/>
			<point x="566" y="144" type="curve" smooth="yes"/>
			<point x="566" y="124"/>
			<point x="534" y="114"/>
			<point x="416" y="114" type="curve" smooth="yes"/>
			<point x="308" y="114"/>
			<point x="252" y="158"/>
			<point x="252" y="216" type="curve" smooth="yes"/>
			<point x="252" y="366" type="line"/>
			<point x="366" y="366" type="line"/>
			<point x="486" y="500" type="line"/>
			<point x="252" y="500" type="line"/>
			<point x="252" y="650" type="line"/>
			<point x="110" y="650" type="line"/>
			<point x="90" y="500" type="line"/>
			<point x="14" y="494" type="line"/>
			<point x="14" y="366" type="line"/>
			<point x="80" y="366" type="line"/>
			<point x="80" y="212" type="line" smooth="yes"/>
			<point x="80" y="98"/>
			<point x="138" y="-12"/>
		</contour>
	</outline>
</glyph>
<glyph name="j.sups" format="2">
	<unicode hex="02B2"/>
	<advance width="198"/>
	<outline>
		<contour>
			<point x="28" y="236" type="curve" smooth="yes"/>
			<point x="130" y="236"/>
			<point x="160" y="306"/>
			<point x="160" y="380" type="curve" smooth="yes"/>
			<point x="160" y="700" type="line"/>
			<point x="40" y="700" type="line"/>
			<point x="40" y="376" type="line" smooth="yes"/>
			<point x="40" y="340"/>
			<point x="33" y="328"/>
			<point x="10" y="328" type="curve" smooth="yes"/>
			<point x="-1" y="328"/>
			<point x="-10" y="330"/>
			<point x="-16" y="332" type="curve"/>
			<point x="-36" y="244" type="line"/>
			<point x="-22" y="240"/>
			<point x="-4" y="236"/>
		</contour>
		<contour>
			<point x="100" y="738" type="curve" smooth="yes"/>
			<point x="138" y="738"/>
			<point x="166" y="762"/>
			<point x="166" y="796" type="curve" smooth="yes"/>
			<point x="166" y="830"/>
			<point x="138" y="854"/>
			<point x="100" y="854" type="curve" smooth="yes"/>
			<point x="61" y="854"/>
			<point x="34" y="830"/>
			<point x="34" y="796" type="curve" smooth="yes"/>
			<point x="34" y="762"/>
			<point x="61" y="738"/>
		</contour>
	</outline>
</glyph>
<glyph name="r.sups" format="2">
	<unicode hex="02B3"/>
	<advance width="284"/>
	<outline>
		<contour>
			<point x="38" y="368" type="line"/>
			<point x="158" y="368" type="line"/>
			<point x="158" y="550" type="line"/>
			<point x="174" y="590"/>
			<point x="202" y="604"/>
			<point x="226" y="604" type="curve" smooth="yes"/>
			<point x="240" y="604"/>
			<point x="254" y="600"/>
			<point x="264" y="598" type="curve"/>
			<point x="284" y="700" type="line"/>
			<point x="275" y="704"/>
			<point x="262" y="708"/>
			<point x="240" y="708" type="curve" smooth="yes"/>
			<point x="208" y="708"/>
			<point x="172" y="688"/>
			<point x="146" y="642" type="curve"/>
			<point x="144" y="642" type="line"/>
			<point x="135" y="700" type="line"/>
			<point x="38" y="700" type="line"/>
		</contour>
	</outline>
</glyph>
<glyph name="commaturnedmod" format="2">
	<unicode hex="02BB"/>
	<advance width="320"/>
	<outline>
		<contour>
			<point x="160" y="356" type="curve" smooth="yes"/>
			<point x="216" y="356"/>
			<point x="260" y="396"/>
			<point x="260" y="456" type="curve" smooth="yes"/>
			<point x="260" y="514"/>
			<point x="216" y="548"/>
			<point x="162" y="548" type="curve" smooth="yes"/>
			<point x="138" y="548"/>
			<point x="110" y="536"/>
			<point x="96" y="522" type="curve"/>
			<point x="146" y="522" type="line"/>
			<point x="146" y="534" type="line"/>
			<point x="146" y="564"/>
			<point x="184" y="606"/>
			<point x="256" y="626" type="curve"/>
			<point x="216" y="708" type="line"/>
			<point x="86" y="666"/>
			<point x="40" y="584"/>
			<point x="40" y="486" type="curve" smooth="yes"/>
			<point x="40" y="406"/>
			<point x="82" y="356"/>
		</contour>
	</outline>
</glyph>
<glyph name="apostrophemod" format="2">
	<unicode hex="02BC"/>
	<advance width="320"/>
	<outline>
		<contour>
			<point x="104" y="356" type="line"/>
			<point x="234" y="398"/>
			<point x="280" y="480"/>
			<point x="280" y="578" type="curve" smooth="yes"/>
			<point x="280" y="658"/>
			<point x="238" y="708"/>
			<point x="160" y="708" type="curve" smooth="yes"/>
			<point x="104" y="708"/>
			<point x="60" y="668"/>
			<point x="60" y="608" type="curve" smooth="yes"/>
			<point x="60" y="550"/>
			<point x="104" y="516"/>
			<point x="158" y="516" type="curve" smooth="yes"/>
			<point x="182" y="516"/>
			<point x="210" y="528"/>
			<point x="224" y="542" type="curve"/>
			<point x="174" y="542" type="line"/>
			<point x="174" y="530" type="line"/>
			<point x="174" y="500"/>
			<point x="136" y="458"/>
			<point x="64" y="438" type="curve"/>
		</contour>
	</outline>
</glyph>
<glyph name="commareversedmod" format="2">
	<unicode hex="02BD"/>
	<advance width="320"/>
	<outline>
		<contour>
			<point x="216" y="356" type="curve"/>
			<point x="256" y="438" type="line"/>
			<point x="184" y="458"/>
			<point x="146" y="500"/>
			<point x="146" y="530" type="curve"/>
			<point x="146" y="542" type="line"/>
			<point x="96" y="542" type="line"/>
			<point x="110" y="528"/>
			<point x="138" y="516"/>
			<point x="162" y="516" type="curve" smooth="yes"/>
			<point x="216" y="516"/>
			<point x="260" y="550"/>
			<point x="260" y="608" type="curve" smooth="yes"/>
			<point x="260" y="668"/>
			<point x="216" y="708"/>
			<point x="160" y="708" type="curve" smooth="yes"/>
			<point x="82" y="708"/>
			<point x="40" y="654"/>
			<point x="40" y="568" type="curve" smooth="yes"/>
			<point x="40" y="474"/>
			<point x="86" y="398"/>
		</contour>
	</outline>
</glyph>
<glyph name="glottalstopmod" format="1">
	<unicode hex="02C0"/>
	<advance width="358"/>
	<outline>
		<contour>
			<point x="104" y="488" type="line"/>
			<point x="224" y="488" type="line"/>
			<point x="224" y="552" type="line"/>
			<point x="286" y="578"/>
			<point x="328" y="624"/>
			<point x="328" y="692" type="curve" smooth="yes"/>
			<point x="328" y="784"/>
			<point x="262" y="836"/>
			<point x="164" y="836" type="curve" smooth="yes"/>
			<point x="102" y="836"/>
			<point x="52" y="808"/>
			<point x="20" y="772" type="curve"/>
			<point x="80" y="706" type="line"/>
			<point x="101" y="727"/>
			<point x="126" y="740"/>
			<point x="154" y="740" type="curve" smooth="yes"/>
			<point x="188" y="740"/>
			<point x="208" y="720"/>
			<point x="208" y="690" type="curve" smooth="yes"/>
			<point x="208" y="651"/>
			<point x="184" y="624"/>
			<point x="104" y="596" type="curve"/>
		</contour>
	</outline>
</glyph>
<glyph name="glottalstopreversedmod" format="1">
	<unicode hex="02C1"/>
	<advance width="358"/>
	<outline>
		<contour>
			<point x="134" y="488" type="line"/>
			<point x="254" y="488" type="line"/>
			<point x="254" y="596" type="line"/>
			<point x="174" y="624"/>
			<point x="150" y="651"/>
			<point x="150" y="690" type="curve" smooth="yes"/>
			<point x="150" y="720"/>
			<point x="170" y="740"/>
			<point x="204" y="740" type="curve" smooth="yes"/>
			<point x="232" y="740"/>
			<point x="257" y="727"/>
			<point x="278" y="706" type="curve"/>
			<point x="338" y="772" type="line"/>
			<point x="306" y="808"/>
			<point x="256" y="836"/>
			<point x="194" y="836" type="curve" smooth="yes"/>
			<point x="96" y="836"/>
			<point x="30" y="784"/>
			<point x="30" y="692" type="curve" smooth="yes"/>
			<point x="30" y="624"/>
			<point x="72" y="578"/>
			<point x="134" y="552" type="curve"/>
		</contour>
	</outline>
</glyph>
<glyph name="colontriangularmod" format="1">
	<unicode hex="02D0"/>
	<advance width="280"/>
	<outline>
		<contour>
			<point x="20" y="0" type="line"/>
			<point x="260" y="0" type="line"/>
			<point x="148" y="210" type="line"/>
			<point x="132" y="210" type="line"/>
		</contour>
		<contour>
			<point x="132" y="290" type="line"/>
			<point x="148" y="290" type="line"/>
			<point x="260" y="500" type="line"/>
			<point x="20" y="500" type="line"/>
		</contour>
	</outline>
</glyph>
<glyph name="colontriangularhalfmod" format="2">
	<unicode hex="02D1"/>
	<advance width="280"/>
	<outline>
		<contour>
			<point x="132" y="290" type="line"/>
			<point x="148" y="290" type="line"/>
			<point x="260" y="500" type="line"/>
			<point x="20" y="500" type="line"/>
		</contour>
	</outline>
</glyph>
<glyph name="uptackmod" format="2">
	<unicode hex="02D4"/>
	<advance width="380"/>
	<outline>
		<contour>
			<point x="24" y="95" type="line"/>
			<point x="356" y="95" type="line"/>
			<point x="356" y="191" type="line"/>
			<point x="240" y="191" type="line"/>
			<point x="240" y="440" type="line"/>
			<point x="140" y="440" type="line"/>
			<point x="140" y="191" type="line"/>
			<point x="24" y="191" type="line"/>
		</contour>
	</outline>
</glyph>
<glyph name="downtackmod" format="2">
	<unicode hex="02D5"/>
	<advance width="380"/>
	<outline>
		<contour>
			<point x="140" y="95" type="line"/>
			<point x="240" y="95" type="line"/>
			<point x="240" y="344" type="line"/>
			<point x="356" y="344" type="line"/>
			<point x="356" y="440" type="line"/>
			<point x="24" y="440" type="line"/>
			<point x="24" y="344" type="line"/>
			<point x="140" y="344" type="line"/>
		</contour>
	</outline>
</glyph>
<glyph name="gammalatin.sups" format="2">
	<unicode hex="02E0"/>
	<advance width="367"/>
	<outline>
		<contour>
			<point x="117" y="415" type="line"/>
			<point x="254" y="415" type="line"/>
			<point x="360" y="699" type="line"/>
			<point x="246" y="699" type="line"/>
			<point x="212" y="578" type="line" smooth="yes"/>
			<point x="204" y="550"/>
			<point x="196" y="531"/>
			<point x="188" y="501" type="curve"/>
			<point x="185" y="501" type="line"/>
			<point x="177" y="531"/>
			<point x="169" y="550"/>
			<point x="162" y="578" type="curve" smooth="yes"/>
			<point x="127" y="699" type="line"/>
			<point x="8" y="699" type="line"/>
		</contour>
		<contour>
			<point x="187" y="233" type="curve" smooth="yes"/>
			<point x="256" y="233"/>
			<point x="303" y="274"/>
			<point x="303" y="338" type="curve" smooth="yes"/>
			<point x="303" y="380"/>
			<point x="281" y="408"/>
			<point x="243" y="472" type="curve"/>
			<point x="130" y="472" type="line"/>
			<point x="92" y="408"/>
			<point x="70" y="380"/>
			<point x="70" y="338" type="curve" smooth="yes"/>
			<point x="70" y="274"/>
			<point x="117" y="233"/>
		</contour>
		<contour>
			<point x="187" y="305" type="curve" smooth="yes"/>
			<point x="175" y="305"/>
			<point x="165" y="314"/>
			<point x="165" y="329" type="curve" smooth="yes"/>
			<point x="165" y="345"/>
			<point x="171" y="361"/>
			<point x="184" y="389" type="curve"/>
			<point x="187" y="389" type="line"/>
			<point x="203" y="361"/>
			<point x="208" y="345"/>
			<point x="208" y="329" type="curve" smooth="yes"/>
			<point x="208" y="314"/>
			<point x="198" y="305"/>
		</contour>
	</outline>
</glyph>
<glyph name="acutecmb" format="1">
	<unicode hex="0301"/>
	<outline>
		<contour>
			<point x="-40" y="572" type="line"/>
			<point x="190" y="730" type="line"/>
			<point x="94" y="844" type="line"/>
			<point x="-124" y="656" type="line"/>
		</contour>
		<contour>
			<point name="_aboveLC" x="0" y="522" type="move"/>
		</contour>
	</outline>
</glyph>
<glyph name="circumflexcmb" format="1">
	<unicode hex="0302"/>
	<outline>
		<contour>
			<point x="-130" y="558" type="line"/>
			<point x="-2" y="642" type="line"/>
			<point x="2" y="642" type="line"/>
			<point x="130" y="558" type="line"/>
			<point x="194" y="618" type="line"/>
			<point x="88" y="746" type="line"/>
			<point x="-88" y="746" type="line"/>
			<point x="-194" y="618" type="line"/>
		</contour>
		<contour>
			<point name="_aboveLC" x="0" y="522" type="move"/>
		</contour>
		<contour>
			<point name="aboveLC" x="0" y="740" type="move"/>
		</contour>
	</outline>
</glyph>
<glyph name="brevecmb" format="2">
	<unicode hex="0306"/>
	<outline>
		<contour>
			<point x="0" y="568" type="curve" smooth="yes"/>
			<point x="118" y="568"/>
			<point x="172" y="634"/>
			<point x="174" y="728" type="curve"/>
			<point x="78" y="744" type="line"/>
			<point x="72" y="704"/>
			<point x="48" y="674"/>
			<point x="0" y="674" type="curve" smooth="yes"/>
			<point x="-48" y="674"/>
			<point x="-72" y="704"/>
			<point x="-78" y="744" type="curve"/>
			<point x="-174" y="728" type="line"/>
			<point x="-172" y="634"/>
			<point x="-117" y="568"/>
		</contour>
	</outline>
	<anchor name="_aboveLC" x="0" y="522"/>
</glyph>
<glyph name="dotaccentcmb" format="1">
	<unicode hex="0307"/>
	<outline>
		<contour>
			<point x="0" y="562" type="curve" smooth="yes"/>
			<point x="56" y="562"/>
			<point x="94" y="596"/>
			<point x="94" y="648" type="curve" smooth="yes"/>
			<point x="94" y="700"/>
			<point x="56" y="734"/>
			<point x="0" y="734" type="curve" smooth="yes"/>
			<point x="-56" y="734"/>
			<point x="-94" y="700"/>
			<point x="-94" y="648" type="curve" smooth="yes"/>
			<point x="-94" y="596"/>
			<point x="-56" y="562"/>
		</contour>
		<contour>
			<point name="_aboveLC" x="0" y="522" type="move"/>
		</contour>
		<contour>
			<point name="aboveLC" x="0" y="730" type="move"/>
		</contour>
	</outline>
</glyph>
<glyph name="hoicmb" format="2">
	<unicode hex="0309"/>
	<outline>
		<contour>
			<point x="-48" y="566" type="line"/>
			<point x="34" y="570"/>
			<point x="104" y="610"/>
			<point x="104" y="688" type="curve" smooth="yes"/>
			<point x="104" y="754"/>
			<point x="58" y="802"/>
			<point x="-88" y="806" type="curve"/>
			<point x="-98" y="702" type="line"/>
			<point x="-40" y="698"/>
			<point x="-20" y="684"/>
			<point x="-20" y="664" type="curve" smooth="yes"/>
			<point x="-20" y="644"/>
			<point x="-38" y="636"/>
			<point x="-60" y="632" type="curve"/>
		</contour>
	</outline>
	<anchor name="_aboveLC" x="0" y="522"/>
	<anchor name="aboveLC" x="0" y="802"/>
</glyph>
<glyph name="caroncmb" format="2">
	<unicode hex="030C"/>
	<outline>
		<contour>
			<point x="-88" y="578" type="line"/>
			<point x="88" y="578" type="line"/>
			<point x="194" y="706" type="line"/>
			<point x="130" y="766" type="line"/>
			<point x="2" y="682" type="line"/>
			<point x="-2" y="682" type="line"/>
			<point x="-130" y="766" type="line"/>
			<point x="-194" y="706" type="line"/>
		</contour>
	</outline>
	<anchor name="_aboveLC" x="0" y="522"/>
	<anchor name="aboveLC" x="0" y="742"/>
</glyph>
<glyph name="dblgravecmb" format="2">
	<unicode hex="030F"/>
	<outline>
		<contour>
			<point x="-120" y="572" type="line"/>
			<point x="-30" y="572" type="line"/>
			<point x="-100" y="766" type="line"/>
			<point x="-230" y="766" type="line"/>
			<point x="-240" y="748" type="line"/>
		</contour>
		<contour>
			<point x="60" y="572" type="line"/>
			<point x="150" y="572" type="line"/>
			<point x="80" y="766" type="line"/>
			<point x="-50" y="766" type="line"/>
			<point x="-60" y="748" type="line"/>
		</contour>
	</outline>
	<anchor name="_aboveLC" x="0" y="522"/>
</glyph>
<glyph name="candrabinducmb" format="1">
	<unicode hex="0310"/>
	<outline>
		<contour>
			<point x="0" y="572" type="curve" smooth="yes"/>
			<point x="122" y="572"/>
			<point x="184" y="638"/>
			<point x="188" y="732" type="curve"/>
			<point x="102" y="748" type="line"/>
			<point x="95" y="702"/>
			<point x="57" y="668"/>
			<point x="0" y="668" type="curve" smooth="yes"/>
			<point x="-58" y="668"/>
			<point x="-95" y="702"/>
			<point x="-102" y="748" type="curve"/>
			<point x="-188" y="732" type="line"/>
			<point x="-184" y="638"/>
			<point x="-122" y="572"/>
		</contour>
		<contour>
			<point x="0" y="702" type="curve" smooth="yes"/>
			<point x="48" y="702"/>
			<point x="84" y="734"/>
			<point x="84" y="782" type="curve" smooth="yes"/>
			<point x="84" y="830"/>
			<point x="48" y="864"/>
			<point x="0" y="864" type="curve" smooth="yes"/>
			<point x="-48" y="864"/>
			<point x="-84" y="830"/>
			<point x="-84" y="782" type="curve" smooth="yes"/>
			<point x="-84" y="734"/>
			<point x="-48" y="702"/>
		</contour>
		<contour>
			<point name="_aboveLC" x="0" y="522" type="move"/>
		</contour>
	</outline>
</glyph>
<glyph name="commaturnedabovecmb" format="2">
	<unicode hex="0312"/>
	<outline>
		<contour>
			<point x="6" y="564" type="curve" smooth="yes"/>
			<point x="56" y="564"/>
			<point x="94" y="594"/>
			<point x="94" y="638" type="curve" smooth="yes"/>
			<point x="94" y="681"/>
			<point x="62" y="706"/>
			<point x="26" y="706" type="curve" smooth="yes"/>
			<point x="5" y="706"/>
			<point x="-6" y="702"/>
			<point x="-16" y="694" type="curve"/>
			<point x="-16" y="728"/>
			<point x="12" y="752"/>
			<point x="72" y="770" type="curve"/>
			<point x="44" y="830" type="line"/>
			<point x="-48" y="802"/>
			<point x="-94" y="754"/>
			<point x="-94" y="670" type="curve" smooth="yes"/>
			<point x="-94" y="604"/>
			<point x="-52" y="564"/>
		</contour>
	</outline>
	<anchor name="_aboveLC" x="0" y="522"/>
</glyph>
<glyph name="commaabovecmb" format="2">
	<unicode hex="0313"/>
	<outline>
		<contour>
			<point x="-44" y="574" type="line"/>
			<point x="42" y="605"/>
			<point x="83" y="664"/>
			<point x="83" y="735" type="curve" smooth="yes"/>
			<point x="83" y="803"/>
			<point x="54" y="840"/>
			<point x="-3" y="840" type="curve" smooth="yes"/>
			<point x="-42" y="840"/>
			<point x="-73" y="811"/>
			<point x="-73" y="766" type="curve" smooth="yes"/>
			<point x="-73" y="725"/>
			<point x="-42" y="699"/>
			<point x="-5" y="699" type="curve" smooth="yes"/>
			<point x="13" y="699"/>
			<point x="31" y="708"/>
			<point x="45" y="719" type="curve"/>
			<point x="4" y="777" type="line"/>
			<point x="6" y="713" type="line"/>
			<point x="6" y="675"/>
			<point x="-23" y="651"/>
			<point x="-73" y="634" type="curve"/>
		</contour>
	</outline>
	<anchor name="_aboveLC" x="0" y="522"/>
</glyph>
<glyph name="righttackbelowcmb" format="1">
	<unicode hex="0319"/>
	<outline>
		<contour>
			<point x="-104" y="-260" type="line"/>
			<point x="-16" y="-260" type="line"/>
			<point x="-16" y="-196" type="line"/>
			<point x="92" y="-196" type="line"/>
			<point x="92" y="-116" type="line"/>
			<point x="-16" y="-116" type="line"/>
			<point x="-16" y="-52" type="line"/>
			<point x="-104" y="-52" type="line"/>
		</contour>
		<contour>
			<point name="_belowLC" x="0" y="-22" type="move"/>
		</contour>
	</outline>
</glyph>
<glyph name="ringhalfleftbelowcmb" format="1">
	<unicode hex="031C"/>
	<outline>
		<contour>
			<point x="66" y="-252" type="curve"/>
			<point x="66" y="-190" type="line"/>
			<point x="18" y="-192"/>
			<point x="2" y="-172"/>
			<point x="2" y="-146" type="curve" smooth="yes"/>
			<point x="2" y="-120"/>
			<point x="18" y="-100"/>
			<point x="66" y="-102" type="curve"/>
			<point x="66" y="-40" type="line"/>
			<point x="-52" y="-34"/>
			<point x="-100" y="-82"/>
			<point x="-100" y="-146" type="curve" smooth="yes"/>
			<point x="-100" y="-210"/>
			<point x="-52" y="-258"/>
		</contour>
		<contour>
			<point name="_belowLC" x="0" y="-22" type="move"/>
		</contour>
	</outline>
</glyph>
<glyph name="uptackbelowcmb" format="2">
	<unicode hex="031D"/>
	<outline>
		<contour>
			<point x="-112" y="-236" type="line"/>
			<point x="112" y="-236" type="line"/>
			<point x="112" y="-156" type="line"/>
			<point x="44" y="-156" type="line"/>
			<point x="44" y="-52" type="line"/>
			<point x="-44" y="-52" type="line"/>
			<point x="-44" y="-156" type="line"/>
			<point x="-112" y="-156" type="line"/>
		</contour>
	</outline>
	<anchor name="_belowLC" x="0" y="-22"/>
</glyph>
<glyph name="plusbelowcmb" format="2">
	<unicode hex="031F"/>
	<outline>
		<contour>
			<point x="-44" y="-260" type="line"/>
			<point x="44" y="-260" type="line"/>
			<point x="44" y="-196" type="line"/>
			<point x="112" y="-196" type="line"/>
			<point x="112" y="-116" type="line"/>
			<point x="44" y="-116" type="line"/>
			<point x="44" y="-52" type="line"/>
			<point x="-44" y="-52" type="line"/>
			<point x="-44" y="-116" type="line"/>
			<point x="-112" y="-116" type="line"/>
			<point x="-112" y="-196" type="line"/>
			<point x="-44" y="-196" type="line"/>
		</contour>
	</outline>
	<anchor name="_belowLC" x="0" y="-22"/>
</glyph>
<glyph name="ogonekcmb" format="1">
	<unicode hex="0328"/>
	<outline>
		<contour>
			<point x="12" y="-220" type="curve" smooth="yes"/>
			<point x="50" y="-220"/>
			<point x="98" y="-206"/>
			<point x="128" y="-184" type="curve"/>
			<point x="94" y="-96" type="line"/>
			<point x="82" y="-102"/>
			<point x="66" y="-108"/>
			<point x="48" y="-108" type="curve" smooth="yes"/>
			<point x="30" y="-108"/>
			<point x="10" y="-98"/>
			<point x="10" y="-76" type="curve" smooth="yes"/>
			<point x="10" y="-48"/>
			<point x="28" y="-22"/>
			<point x="58" y="2" type="curve"/>
			<point x="-46" y="2" type="line"/>
			<point x="-70" y="-14"/>
			<point x="-114" y="-58"/>
			<point x="-114" y="-116" type="curve" smooth="yes"/>
			<point x="-114" y="-186"/>
			<point x="-58" y="-220"/>
		</contour>
		<contour>
			<point name="_ogonekLC" x="0" y="0" type="move"/>
		</contour>
		<contour>
			<point name="aboveLC" x="-2" y="522" type="move"/>
		</contour>
	</outline>
</glyph>
<glyph name="verticallinebelowcmb" format="2">
	<unicode hex="0329"/>
	<outline>
		<contour>
			<point x="-68" y="-270" type="line"/>
			<point x="68" y="-270" type="line"/>
			<point x="62" y="-62" type="line"/>
			<point x="-62" y="-62" type="line"/>
		</contour>
	</outline>
	<anchor name="_belowLC" x="0" y="-22"/>
</glyph>
<glyph name="bridgebelowcmb" format="2">
	<unicode hex="032A"/>
	<outline>
		<contour>
			<point x="-130" y="-218" type="line"/>
			<point x="-48" y="-218" type="line"/>
			<point x="-48" y="-156" type="line"/>
			<point x="48" y="-156" type="line"/>
			<point x="48" y="-218" type="line"/>
			<point x="130" y="-218" type="line"/>
			<point x="130" y="-76" type="line"/>
			<point x="-130" y="-76" type="line"/>
		</contour>
	</outline>
	<anchor name="_belowLC" x="0" y="-22"/>
</glyph>
<glyph name="bridgeinvertedbelowcmb" format="2">
	<unicode hex="033A"/>
	<outline>
		<contour>
			<point x="-130" y="-210" type="line"/>
			<point x="130" y="-210" type="line"/>
			<point x="130" y="-68" type="line"/>
			<point x="48" y="-68" type="line"/>
			<point x="48" y="-130" type="line"/>
			<point x="-48" y="-130" type="line"/>
			<point x="-48" y="-68" type="line"/>
			<point x="-130" y="-68" type="line"/>
		</contour>
	</outline>
	<anchor name="_belowLC" x="0" y="-22"/>
</glyph>
<glyph name="xabovecmb" format="2">
	<unicode hex="033D"/>
	<outline>
		<contour>
			<point x="-51" y="535" type="line"/>
			<point x="0" y="586" type="line"/>
			<point x="51" y="535" type="line"/>
			<point x="107" y="591" type="line"/>
			<point x="56" y="642" type="line"/>
			<point x="107" y="693" type="line"/>
			<point x="51" y="749" type="line"/>
			<point x="0" y="698" type="line"/>
			<point x="-51" y="749" type="line"/>
			<point x="-107" y="693" type="line"/>
			<point x="-56" y="642" type="line"/>
			<point x="-107" y="591" type="line"/>
		</contour>
	</outline>
	<anchor name="_aboveLC" x="0" y="522"/>
</glyph>
<glyph name="iotasubscriptcmb" format="2">
	<unicode hex="0345"/>
	<outline>
		<contour>
			<point x="58" y="-222" type="curve" smooth="yes"/>
			<point x="88" y="-222"/>
			<point x="110" y="-217"/>
			<point x="125" y="-210" type="curve"/>
			<point x="109" y="-120" type="line"/>
			<point x="102" y="-121"/>
			<point x="99" y="-121"/>
			<point x="94" y="-121" type="curve" smooth="yes"/>
			<point x="71" y="-121"/>
			<point x="54" y="-115"/>
			<point x="54" y="-88" type="curve" smooth="yes"/>
			<point x="54" y="-80"/>
			<point x="54" y="-66"/>
			<point x="56" y="-52" type="curve"/>
			<point x="-66" y="-52" type="line"/>
			<point x="-66" y="-81" type="line" smooth="yes"/>
			<point x="-66" y="-165"/>
			<point x="-35" y="-222"/>
		</contour>
	</outline>
	<anchor name="_belowLC" x="0" y="-22"/>
</glyph>
<glyph name="macrondoublebelowcmb" format="1">
	<unicode hex="035F"/>
	<outline>
		<contour>
			<point x="-478" y="-186" type="line"/>
			<point x="478" y="-186" type="line"/>
			<point x="478" y="-92" type="line"/>
			<point x="-478" y="-92" type="line"/>
		</contour>
		<contour>
			<point name="_belowLC" x="0" y="-22" type="move"/>
		</contour>
	</outline>
</glyph>
<glyph name="numeralsign" format="2">
	<unicode hex="0374"/>
	<advance width="320"/>
	<outline>
		<contour>
			<point x="82" y="364" type="line"/>
			<point x="194" y="364" type="line"/>
			<point x="246" y="544" type="line"/>
			<point x="272" y="684" type="line"/>
			<point x="100" y="684" type="line"/>
		</contour>
	</outline>
</glyph>
<glyph name="lownumeralsign" format="2">
	<unicode hex="0375"/>
	<advance width="320"/>
	<outline>
		<contour>
			<point x="48" y="0" type="line"/>
			<point x="220" y="0" type="line"/>
			<point x="238" y="320" type="line"/>
			<point x="126" y="320" type="line"/>
			<point x="74" y="140" type="line"/>
		</contour>
	</outline>
</glyph>
<glyph name="Gamma" format="2">
	<unicode hex="0393"/>
	<advance width="530"/>
	<outline>
		<contour>
			<point x="72" y="0" type="line"/>
			<point x="244" y="0" type="line"/>
			<point x="244" y="506" type="line"/>
			<point x="496" y="506" type="line"/>
			<point x="496" y="650" type="line"/>
			<point x="72" y="650" type="line"/>
		</contour>
	</outline>
	<anchor name="aboveUC" x="300" y="672"/>
</glyph>
<glyph name="Xi" format="2">
	<unicode hex="039E"/>
	<advance width="586"/>
	<outline>
		<contour>
			<point x="54" y="0" type="line"/>
			<point x="532" y="0" type="line"/>
			<point x="532" y="144" type="line"/>
			<point x="54" y="144" type="line"/>
		</contour>
		<contour>
			<point x="120" y="260" type="line"/>
			<point x="466" y="260" type="line"/>
			<point x="466" y="404" type="line"/>
			<point x="120" y="404" type="line"/>
		</contour>
		<contour>
			<point x="64" y="506" type="line"/>
			<point x="522" y="506" type="line"/>
			<point x="522" y="650" type="line"/>
			<point x="64" y="650" type="line"/>
		</contour>
	</outline>
</glyph>
<glyph name="Sigma" format="2">
	<unicode hex="03A3"/>
	<advance width="554"/>
	<outline>
		<contour>
			<point x="36" y="0" type="line"/>
			<point x="520" y="0" type="line"/>
			<point x="520" y="144" type="line"/>
			<point x="250" y="144" type="line"/>
			<point x="400" y="332" type="line"/>
			<point x="252" y="506" type="line"/>
			<point x="494" y="506" type="line"/>
			<point x="494" y="650" type="line"/>
			<point x="38" y="650" type="line"/>
			<point x="38" y="546" type="line"/>
			<point x="228" y="328" type="line"/>
			<point x="36" y="104" type="line"/>
		</contour>
	</outline>
</glyph>
<glyph name="delta" format="1">
	<unicode hex="03B4"/>
	<advance width="554"/>
	<outline>
		<contour>
			<point x="276" y="-12" type="curve" smooth="yes"/>
			<point x="426" y="-12"/>
			<point x="518" y="84"/>
			<point x="518" y="224" type="curve" smooth="yes"/>
			<point x="518" y="333"/>
			<point x="472" y="406"/>
			<point x="382" y="460" type="curve" smooth="yes"/>
			<point x="302" y="508"/>
			<point x="240" y="538"/>
			<point x="240" y="564" type="curve" smooth="yes"/>
			<point x="240" y="576"/>
			<point x="250" y="582"/>
			<point x="272" y="582" type="curve" smooth="yes"/>
			<point x="325" y="582"/>
			<point x="394" y="564"/>
			<point x="458" y="543" type="curve"/>
			<point x="496" y="669" type="line"/>
			<point x="432" y="690"/>
			<point x="348" y="708"/>
			<point x="272" y="708" type="curve" smooth="yes"/>
			<point x="143" y="708"/>
			<point x="82" y="650"/>
			<point x="82" y="582" type="curve" smooth="yes"/>
			<point x="82" y="484"/>
			<point x="158" y="426"/>
			<point x="235" y="388" type="curve" smooth="yes"/>
			<point x="300" y="356"/>
			<point x="352" y="300"/>
			<point x="352" y="226" type="curve" smooth="yes"/>
			<point x="352" y="150"/>
			<point x="318" y="126"/>
			<point x="280" y="126" type="curve" smooth="yes"/>
			<point x="234" y="126"/>
			<point x="198" y="157"/>
			<point x="198" y="226" type="curve" smooth="yes"/>
			<point x="198" y="298"/>
			<point x="248" y="352"/>
			<point x="299" y="352" type="curve"/>
			<point x="222" y="444" type="line"/>
			<point x="140" y="444"/>
			<point x="36" y="344"/>
			<point x="36" y="224" type="curve" smooth="yes"/>
			<point x="36" y="74"/>
			<point x="142" y="-12"/>
		</contour>
	</outline>
</glyph>
<glyph name="epsilon" format="1">
	<unicode hex="03B5"/>
	<advance width="480"/>
	<outline>
		<contour>
			<point x="274" y="-12" type="curve" smooth="yes"/>
			<point x="335" y="-12"/>
			<point x="394" y="-2"/>
			<point x="460" y="44" type="curve"/>
			<point x="394" y="152" type="line"/>
			<point x="358" y="126"/>
			<point x="316" y="118"/>
			<point x="290" y="118" type="curve" smooth="yes"/>
			<point x="230" y="118"/>
			<point x="200" y="134"/>
			<point x="200" y="162" type="curve" smooth="yes"/>
			<point x="200" y="190"/>
			<point x="222" y="198"/>
			<point x="274" y="198" type="curve" smooth="yes"/>
			<point x="297" y="198"/>
			<point x="325" y="196"/>
			<point x="348" y="194" type="curve"/>
			<point x="348" y="314" type="line"/>
			<point x="325" y="312"/>
			<point x="296" y="310"/>
			<point x="274" y="310" type="curve" smooth="yes"/>
			<point x="244" y="310"/>
			<point x="222" y="318"/>
			<point x="222" y="344" type="curve" smooth="yes"/>
			<point x="222" y="366"/>
			<point x="242" y="382"/>
			<point x="286" y="382" type="curve" smooth="yes"/>
			<point x="320" y="382"/>
			<point x="358" y="372"/>
			<point x="390" y="352" type="curve"/>
			<point x="452" y="462" type="line"/>
			<point x="402" y="494"/>
			<point x="336" y="512"/>
			<point x="276" y="512" type="curve" smooth="yes"/>
			<point x="160" y="512"/>
			<point x="56" y="468"/>
			<point x="56" y="366" type="curve" smooth="yes"/>
			<point x="56" y="328"/>
			<point x="80" y="282"/>
			<point x="136" y="266" type="curve"/>
			<point x="136" y="262" type="line"/>
			<point x="74" y="246"/>
			<point x="34" y="206"/>
			<point x="34" y="134" type="curve" smooth="yes"/>
			<point x="34" y="38"/>
			<point x="145" y="-12"/>
		</contour>
		<contour>
			<point name="aboveLC" x="266" y="522" type="move"/>
		</contour>
		<contour>
			<point name="belowLC" x="256" y="-22" type="move"/>
		</contour>
	</outline>
</glyph>
<glyph name="eta" format="2">
	<unicode hex="03B7"/>
	<advance width="570"/>
	<outline>
		<contour>
			<point x="342" y="-176" type="curve"/>
			<point x="516" y="-176" type="line"/>
			<point x="516" y="308" type="line" smooth="yes"/>
			<point x="516" y="432"/>
			<point x="476" y="512"/>
			<point x="366" y="512" type="curve" smooth="yes"/>
			<point x="298" y="512"/>
			<point x="254" y="468"/>
			<point x="214" y="420" type="curve"/>
			<point x="210" y="420" type="line"/>
			<point x="198" y="500" type="line"/>
			<point x="46" y="500" type="line"/>
			<point x="56" y="444"/>
			<point x="58" y="380"/>
			<point x="58" y="340" type="curve" smooth="yes"/>
			<point x="58" y="0" type="line"/>
			<point x="230" y="0" type="line"/>
			<point x="230" y="308" type="line"/>
			<point x="254" y="344"/>
			<point x="276" y="366"/>
			<point x="304" y="366" type="curve" smooth="yes"/>
			<point x="342" y="366"/>
			<point x="354" y="350"/>
			<point x="354" y="286" type="curve" smooth="yes"/>
			<point x="354" y="182"/>
			<point x="348" y="-22"/>
		</contour>
	</outline>
	<anchor name="aboveLC" x="310" y="522"/>
	<anchor name="belowLC" x="144" y="-22"/>
</glyph>
<glyph name="lambda" format="2">
	<unicode hex="03BB"/>
	<advance width="574"/>
	<outline>
		<contour>
			<point x="198" y="-12" type="line"/>
			<point x="300" y="308" type="line"/>
			<point x="304" y="308" type="line"/>
			<point x="386" y="0" type="line"/>
			<point x="572" y="0" type="line"/>
			<point x="398" y="500" type="line"/>
			<point x="356" y="648"/>
			<point x="286" y="708"/>
			<point x="164" y="708" type="curve" smooth="yes"/>
			<point x="98" y="708"/>
			<point x="70" y="700"/>
			<point x="34" y="686" type="curve"/>
			<point x="70" y="548" type="line"/>
			<point x="94" y="558"/>
			<point x="112" y="564"/>
			<point x="144" y="564" type="curve" smooth="yes"/>
			<point x="180" y="564"/>
			<point x="218" y="546"/>
			<point x="224" y="510" type="curve" smooth="yes"/>
			<point x="226" y="498" type="line"/>
			<point x="12" y="0" type="line"/>
		</contour>
	</outline>
	<anchor name="aboveUC" x="300" y="722"/>
	<anchor name="belowLC" x="300" y="-22"/>
</glyph>
<glyph name="nu" format="2">
	<unicode hex="03BD"/>
	<advance width="542"/>
	<outline>
		<contour>
			<point x="178" y="0" type="curve"/>
			<point x="340" y="0" type="line"/>
			<point x="454" y="188"/>
			<point x="495" y="322"/>
			<point x="526" y="500" type="curve"/>
			<point x="356" y="500" type="line"/>
			<point x="348" y="392"/>
			<point x="336" y="282"/>
			<point x="291" y="175" type="curve"/>
			<point x="287" y="175" type="line"/>
			<point x="270" y="270"/>
			<point x="220" y="428"/>
			<point x="172" y="512" type="curve"/>
			<point x="-4" y="476" type="line"/>
			<point x="74" y="356"/>
			<point x="152" y="186"/>
		</contour>
	</outline>
	<anchor name="aboveLC" x="270" y="522"/>
	<anchor name="belowLC" x="270" y="-22"/>
</glyph>
<glyph name="xi" format="1">
	<unicode hex="03BE"/>
	<advance width="484"/>
	<outline>
		<contour>
			<point x="402" y="-188" type="line"/>
			<point x="446" y="-120"/>
			<point x="464" y="-48"/>
			<point x="464" y="-12" type="curve" smooth="yes"/>
			<point x="464" y="68"/>
			<point x="444" y="106"/>
			<point x="334" y="126" type="curve" smooth="yes"/>
			<point x="248" y="142"/>
			<point x="216" y="158"/>
			<point x="216" y="208" type="curve" smooth="yes"/>
			<point x="216" y="256"/>
			<point x="258" y="288"/>
			<point x="318" y="288" type="curve" smooth="yes"/>
			<point x="346" y="288"/>
			<point x="372" y="286"/>
			<point x="404" y="280" type="curve"/>
			<point x="404" y="424" type="line"/>
			<point x="378" y="418"/>
			<point x="364" y="416"/>
			<point x="338" y="416" type="curve" smooth="yes"/>
			<point x="288" y="416"/>
			<point x="256" y="444"/>
			<point x="256" y="486" type="curve" smooth="yes"/>
			<point x="256" y="532"/>
			<point x="285" y="562"/>
			<point x="335" y="562" type="curve" smooth="yes"/>
			<point x="444" y="562" type="line"/>
			<point x="444" y="696" type="line"/>
			<point x="12" y="696" type="line"/>
			<point x="12" y="562" type="line"/>
			<point x="64" y="568"/>
			<point x="88" y="570"/>
			<point x="120" y="572" type="curve"/>
			<point x="96" y="552"/>
			<point x="84" y="518"/>
			<point x="84" y="492" type="curve" smooth="yes"/>
			<point x="84" y="436"/>
			<point x="114" y="386"/>
			<point x="172" y="364" type="curve"/>
			<point x="172" y="360" type="line"/>
			<point x="100" y="334"/>
			<point x="40" y="266"/>
			<point x="40" y="184" type="curve" smooth="yes"/>
			<point x="40" y="60"/>
			<point x="122" y="15"/>
			<point x="224" y="-8" type="curve" smooth="yes"/>
			<point x="294" y="-24"/>
			<point x="314" y="-34"/>
			<point x="314" y="-60" type="curve" smooth="yes"/>
			<point x="314" y="-85"/>
			<point x="294" y="-110"/>
			<point x="268" y="-146" type="curve"/>
		</contour>
	</outline>
</glyph>
<glyph name="pi" format="2">
	<unicode hex="03C0"/>
	<advance width="654"/>
	<outline>
		<contour>
			<point x="536" y="-12" type="curve" smooth="yes"/>
			<point x="577" y="-12"/>
			<point x="614" y="-4"/>
			<point x="634" y="4" type="curve"/>
			<point x="614" y="130" type="line"/>
			<point x="601" y="128"/>
			<point x="588" y="126"/>
			<point x="578" y="126" type="curve" smooth="yes"/>
			<point x="550" y="126"/>
			<point x="534" y="136"/>
			<point x="534" y="170" type="curve" smooth="yes"/>
			<point x="534" y="184"/>
			<point x="534" y="288"/>
			<point x="540" y="366" type="curve"/>
			<point x="632" y="366" type="line"/>
			<point x="632" y="500" type="line"/>
			<point x="92" y="500" type="line"/>
			<point x="16" y="494" type="line"/>
			<point x="16" y="366" type="line"/>
			<point x="122" y="366" type="line"/>
			<point x="122" y="264"/>
			<point x="111" y="132"/>
			<point x="86" y="0" type="curve"/>
			<point x="258" y="-10" type="line"/>
			<point x="271" y="118"/>
			<point x="283" y="254"/>
			<point x="283" y="366" type="curve"/>
			<point x="376" y="366" type="line"/>
			<point x="376" y="292"/>
			<point x="372" y="198"/>
			<point x="372" y="176" type="curve" smooth="yes"/>
			<point x="372" y="64"/>
			<point x="412" y="-12"/>
		</contour>
	</outline>
	<anchor name="aboveLC" x="330" y="522"/>
	<anchor name="belowLC" x="340" y="-22"/>
</glyph>
<glyph name="sigma.end" format="1">
	<unicode hex="03C2"/>
	<advance width="452"/>
	<outline>
		<contour>
			<point x="361" y="-188" type="line"/>
			<point x="406" y="-120"/>
			<point x="424" y="-48"/>
			<point x="424" y="-12" type="curve" smooth="yes"/>
			<point x="424" y="78"/>
			<point x="392" y="110"/>
			<point x="294" y="146" type="curve" smooth="yes"/>
			<point x="234" y="168"/>
			<point x="208" y="194"/>
			<point x="208" y="258" type="curve" smooth="yes"/>
			<point x="208" y="328"/>
			<point x="241" y="374"/>
			<point x="302" y="374" type="curve" smooth="yes"/>
			<point x="320" y="374"/>
			<point x="338" y="368"/>
			<point x="360" y="350" type="curve"/>
			<point x="440" y="460" type="line"/>
			<point x="404" y="492"/>
			<point x="351" y="512"/>
			<point x="290" y="512" type="curve" smooth="yes"/>
			<point x="151" y="512"/>
			<point x="32" y="418"/>
			<point x="32" y="258" type="curve" smooth="yes"/>
			<point x="32" y="96"/>
			<point x="132" y="40"/>
			<point x="224" y="8" type="curve" smooth="yes"/>
			<point x="259" y="-4"/>
			<point x="274" y="-24"/>
			<point x="274" y="-58" type="curve" smooth="yes"/>
			<point x="274" y="-82"/>
			<point x="252" y="-110"/>
			<point x="226" y="-146" type="curve"/>
		</contour>
	</outline>
</glyph>
<glyph name="omega" format="2">
	<unicode hex="03C9"/>
	<advance width="764"/>
	<outline>
		<contour>
			<point x="214" y="-12" type="curve" smooth="yes"/>
			<point x="300" y="-12"/>
			<point x="360" y="34"/>
			<point x="378" y="124" type="curve"/>
			<point x="382" y="124" type="line"/>
			<point x="400" y="34"/>
			<point x="469" y="-12"/>
			<point x="542" y="-12" type="curve" smooth="yes"/>
			<point x="670" y="-12"/>
			<point x="728" y="98"/>
			<point x="728" y="256" type="curve" smooth="yes"/>
			<point x="728" y="358"/>
			<point x="699" y="440"/>
			<point x="656" y="512" type="curve"/>
			<point x="498" y="456" type="line"/>
			<point x="544" y="378"/>
			<point x="556" y="327"/>
			<point x="556" y="254" type="curve" smooth="yes"/>
			<point x="556" y="173"/>
			<point x="536" y="126"/>
			<point x="506" y="126" type="curve" smooth="yes"/>
			<point x="468" y="126"/>
			<point x="456" y="156"/>
			<point x="456" y="238" type="curve" smooth="yes"/>
			<point x="456" y="286"/>
			<point x="462" y="310"/>
			<point x="470" y="370" type="curve"/>
			<point x="290" y="370" type="line"/>
			<point x="298" y="310"/>
			<point x="304" y="286"/>
			<point x="304" y="238" type="curve" smooth="yes"/>
			<point x="304" y="167"/>
			<point x="288" y="126"/>
			<point x="248" y="126" type="curve" smooth="yes"/>
			<point x="210" y="126"/>
			<point x="198" y="170"/>
			<point x="198" y="234" type="curve" smooth="yes"/>
			<point x="198" y="302"/>
			<point x="224" y="372"/>
			<point x="270" y="452" type="curve"/>
			<point x="108" y="512" type="line"/>
			<point x="66" y="440"/>
			<point x="36" y="330"/>
			<point x="36" y="248" type="curve" smooth="yes"/>
			<point x="36" y="92"/>
			<point x="104" y="-12"/>
		</contour>
	</outline>
	<anchor name="aboveLC" x="380" y="522"/>
	<anchor name="belowLC" x="380" y="-22"/>
</glyph>
<glyph name="Kai" format="2">
	<unicode hex="03CF"/>
	<advance width="628"/>
	<outline>
		<contour>
			<point x="72" y="0" type="line"/>
			<point x="244" y="0" type="line"/>
			<point x="244" y="162" type="line"/>
			<point x="406" y="386" type="line"/>
			<point x="600" y="650" type="line"/>
			<point x="412" y="650" type="line"/>
			<point x="248" y="408" type="line"/>
			<point x="244" y="408" type="line"/>
			<point x="244" y="650" type="line"/>
			<point x="72" y="650" type="line"/>
		</contour>
		<contour>
			<point x="256" y="-188" type="curve" smooth="yes"/>
			<point x="460" y="-188"/>
			<point x="606" y="-91"/>
			<point x="606" y="122" type="curve" smooth="yes"/>
			<point x="606" y="325"/>
			<point x="464" y="400"/>
			<point x="322" y="400" type="curve"/>
			<point x="296" y="264" type="line"/>
			<point x="389" y="264"/>
			<point x="438" y="215"/>
			<point x="438" y="120" type="curve" smooth="yes"/>
			<point x="438" y="8"/>
			<point x="358" y="-54"/>
			<point x="246" y="-54" type="curve" smooth="yes"/>
			<point x="198" y="-54"/>
			<point x="134" y="-44"/>
			<point x="92" y="-22" type="curve"/>
			<point x="42" y="-140" type="line"/>
			<point x="100" y="-178"/>
			<point x="178" y="-188"/>
		</contour>
	</outline>
</glyph>
<glyph name="beta.a" format="1">
	<unicode hex="03D0"/>
	<advance width="604"/>
	<outline>
		<contour>
			<point x="314" y="-12" type="curve" smooth="yes"/>
			<point x="454" y="-12"/>
			<point x="572" y="58"/>
			<point x="572" y="208" type="curve" smooth="yes"/>
			<point x="572" y="293"/>
			<point x="508" y="362"/>
			<point x="424" y="376" type="curve"/>
			<point x="424" y="380" type="line"/>
			<point x="492" y="408"/>
			<point x="522" y="458"/>
			<point x="522" y="522" type="curve" smooth="yes"/>
			<point x="522" y="640"/>
			<point x="428" y="706"/>
			<point x="312" y="706" type="curve" smooth="yes"/>
			<point x="140" y="706"/>
			<point x="58" y="586"/>
			<point x="58" y="426" type="curve" smooth="yes"/>
			<point x="58" y="230" type="line" smooth="yes"/>
			<point x="58" y="56"/>
			<point x="174" y="-12"/>
		</contour>
		<contour>
			<point x="318" y="128" type="curve" smooth="yes"/>
			<point x="260" y="128"/>
			<point x="218" y="164"/>
			<point x="218" y="254" type="curve" smooth="yes"/>
			<point x="218" y="303"/>
			<point x="220" y="373"/>
			<point x="224" y="438" type="curve" smooth="yes"/>
			<point x="230" y="525"/>
			<point x="250" y="574"/>
			<point x="300" y="574" type="curve" smooth="yes"/>
			<point x="330" y="574"/>
			<point x="354" y="556"/>
			<point x="354" y="510" type="curve" smooth="yes"/>
			<point x="354" y="450"/>
			<point x="329" y="407"/>
			<point x="150" y="376" type="curve"/>
			<point x="170" y="254" type="line"/>
			<point x="255" y="282"/>
			<point x="284" y="296"/>
			<point x="316" y="296" type="curve" smooth="yes"/>
			<point x="378" y="296"/>
			<point x="404" y="258"/>
			<point x="404" y="214" type="curve" smooth="yes"/>
			<point x="404" y="154"/>
			<point x="364" y="128"/>
		</contour>
	</outline>
</glyph>
<glyph name="digamma" format="1">
	<unicode hex="03DD"/>
	<advance width="440"/>
	<outline>
		<contour>
			<point x="58" y="-176" type="line"/>
			<point x="232" y="-176" type="line"/>
			<point x="226" y="-72"/>
			<point x="222" y="12"/>
			<point x="222" y="110" type="curve"/>
			<point x="394" y="110" type="line"/>
			<point x="394" y="238" type="line"/>
			<point x="220" y="238" type="line"/>
			<point x="218" y="366" type="line"/>
			<point x="414" y="366" type="line"/>
			<point x="414" y="500" type="line"/>
			<point x="58" y="500" type="line"/>
		</contour>
		<contour>
			<point name="aboveLC" x="252" y="522" type="move"/>
		</contour>
	</outline>
</glyph>
<glyph name="Sho" format="2">
	<unicode hex="03F7"/>
	<advance width="616"/>
	<outline>
		<contour>
			<point x="72" y="0" type="line"/>
			<point x="244" y="0" type="line"/>
			<point x="244" y="80" type="line"/>
			<point x="254" y="80" type="line" smooth="yes"/>
			<point x="440" y="80"/>
			<point x="568" y="154"/>
			<point x="568" y="328" type="curve" smooth="yes"/>
			<point x="568" y="502"/>
			<point x="440" y="572"/>
			<point x="254" y="572" type="curve" smooth="yes"/>
			<point x="244" y="572" type="line"/>
			<point x="244" y="650" type="line"/>
			<point x="72" y="650" type="line"/>
		</contour>
		<contour>
			<point x="244" y="208" type="line"/>
			<point x="244" y="444" type="line"/>
			<point x="264" y="444" type="line" smooth="yes"/>
			<point x="348" y="444"/>
			<point x="406" y="414"/>
			<point x="406" y="328" type="curve" smooth="yes"/>
			<point x="406" y="242"/>
			<point x="348" y="208"/>
			<point x="264" y="208" type="curve" smooth="yes"/>
		</contour>
	</outline>
</glyph>
<glyph name="sho" format="2">
	<unicode hex="03F8"/>
	<advance width="580"/>
	<outline>
		<contour>
			<point x="58" y="-176" type="line"/>
			<point x="232" y="-176" type="line"/>
			<point x="228" y="-108"/>
			<point x="224" y="-34"/>
			<point x="220" y="38" type="curve"/>
			<point x="252" y="0"/>
			<point x="297" y="-12"/>
			<point x="336" y="-12" type="curve" smooth="yes"/>
			<point x="442" y="-12"/>
			<point x="544" y="86"/>
			<point x="544" y="258" type="curve" smooth="yes"/>
			<point x="544" y="412"/>
			<point x="472" y="512"/>
			<point x="370" y="512" type="curve" smooth="yes"/>
			<point x="315" y="512"/>
			<point x="270" y="495"/>
			<point x="222" y="440" type="curve"/>
			<point x="224" y="510"/>
			<point x="228" y="580"/>
			<point x="230" y="650" type="curve"/>
			<point x="58" y="650" type="line"/>
		</contour>
		<contour>
			<point x="294" y="128" type="curve" smooth="yes"/>
			<point x="269" y="128"/>
			<point x="244" y="134"/>
			<point x="220" y="158" type="curve"/>
			<point x="220" y="252" type="line" smooth="yes"/>
			<point x="220" y="322"/>
			<point x="250" y="372"/>
			<point x="298" y="372" type="curve" smooth="yes"/>
			<point x="344" y="372"/>
			<point x="368" y="338"/>
			<point x="368" y="256" type="curve" smooth="yes"/>
			<point x="368" y="160"/>
			<point x="334" y="128"/>
		</contour>
	</outline>
	<anchor name="aboveLC" x="340" y="662"/>
	<anchor name="belowLC" x="150" y="-182"/>
</glyph>
<glyph name="Dje" format="2">
	<unicode hex="0402"/>
	<advance width="706"/>
	<outline>
		<contour>
			<point x="478" y="-12" type="curve" smooth="yes"/>
			<point x="594" y="-12"/>
			<point x="672" y="60"/>
			<point x="672" y="192" type="curve" smooth="yes"/>
			<point x="672" y="350"/>
			<point x="556" y="410"/>
			<point x="438" y="410" type="curve" smooth="yes"/>
			<point x="392" y="410"/>
			<point x="378" y="408"/>
			<point x="348" y="404" type="curve"/>
			<point x="348" y="506" type="line"/>
			<point x="546" y="506" type="line"/>
			<point x="546" y="650" type="line"/>
			<point x="24" y="650" type="line"/>
			<point x="24" y="506" type="line"/>
			<point x="176" y="506" type="line"/>
			<point x="176" y="0" type="line"/>
			<point x="348" y="0" type="line"/>
			<point x="348" y="268" type="line"/>
			<point x="368" y="272"/>
			<point x="380" y="274"/>
			<point x="412" y="274" type="curve" smooth="yes"/>
			<point x="472" y="274"/>
			<point x="504" y="246"/>
			<point x="504" y="190" type="curve" smooth="yes"/>
			<point x="504" y="144"/>
			<point x="478" y="124"/>
			<point x="456" y="124" type="curve" smooth="yes"/>
			<point x="448" y="124"/>
			<point x="444" y="124"/>
			<point x="434" y="126" type="curve"/>
			<point x="408" y="-2" type="line"/>
			<point x="426" y="-8"/>
			<point x="450" y="-12"/>
		</contour>
	</outline>
</glyph>
<glyph name="Lje" format="1">
	<unicode hex="0409"/>
	<advance width="926"/>
	<outline>
		<contour>
			<point x="86" y="-12" type="curve" smooth="yes"/>
			<point x="200" y="-12"/>
			<point x="260" y="52"/>
			<point x="304" y="278" type="curve" smooth="yes"/>
			<point x="318" y="352"/>
			<point x="330" y="424"/>
			<point x="344" y="506" type="curve"/>
			<point x="420" y="506" type="line"/>
			<point x="420" y="0" type="line"/>
			<point x="628" y="0" type="line" smooth="yes"/>
			<point x="772" y="0"/>
			<point x="892" y="54"/>
			<point x="892" y="218" type="curve" smooth="yes"/>
			<point x="892" y="366"/>
			<point x="780" y="424"/>
			<point x="632" y="424" type="curve" smooth="yes"/>
			<point x="592" y="424" type="line"/>
			<point x="592" y="650" type="line"/>
			<point x="212" y="650" type="line"/>
			<point x="190" y="532"/>
			<point x="170" y="412"/>
			<point x="144" y="296" type="curve" smooth="yes"/>
			<point x="114" y="162"/>
			<point x="92" y="148"/>
			<point x="60" y="148" type="curve" smooth="yes"/>
			<point x="48" y="148"/>
			<point x="40" y="150"/>
			<point x="32" y="152" type="curve"/>
			<point x="2" y="-2" type="line"/>
			<point x="24" y="-10"/>
			<point x="46" y="-12"/>
		</contour>
		<contour>
			<point x="592" y="136" type="line"/>
			<point x="592" y="288" type="line"/>
			<point x="620" y="288" type="line" smooth="yes"/>
			<point x="690" y="288"/>
			<point x="724" y="264"/>
			<point x="724" y="216" type="curve" smooth="yes"/>
			<point x="724" y="158"/>
			<point x="684" y="136"/>
			<point x="620" y="136" type="curve" smooth="yes"/>
		</contour>
	</outline>
</glyph>
<glyph name="Tshe" format="2">
	<unicode hex="040B"/>
	<advance width="726"/>
	<outline>
		<contour>
			<point x="176" y="0" type="line"/>
			<point x="348" y="0" type="line"/>
			<point x="348" y="268" type="line"/>
			<point x="368" y="272"/>
			<point x="388" y="274"/>
			<point x="408" y="274" type="curve" smooth="yes"/>
			<point x="476" y="274"/>
			<point x="500" y="244"/>
			<point x="500" y="182" type="curve" smooth="yes"/>
			<point x="500" y="0" type="line"/>
			<point x="668" y="0" type="line"/>
			<point x="668" y="182" type="line" smooth="yes"/>
			<point x="668" y="344"/>
			<point x="572" y="410"/>
			<point x="427" y="410" type="curve" smooth="yes"/>
			<point x="400" y="410"/>
			<point x="378" y="408"/>
			<point x="348" y="404" type="curve"/>
			<point x="348" y="506" type="line"/>
			<point x="546" y="506" type="line"/>
			<point x="546" y="650" type="line"/>
			<point x="24" y="650" type="line"/>
			<point x="24" y="506" type="line"/>
			<point x="176" y="506" type="line"/>
		</contour>
	</outline>
</glyph>
<glyph name="El" format="2">
	<unicode hex="041B"/>
	<advance width="668"/>
	<outline>
		<contour>
			<point x="70" y="-12" type="curve" smooth="yes"/>
			<point x="184" y="-12"/>
			<point x="242" y="52"/>
			<point x="286" y="278" type="curve" smooth="yes"/>
			<point x="300" y="352"/>
			<point x="314" y="424"/>
			<point x="328" y="506" type="curve"/>
			<point x="424" y="506" type="line"/>
			<point x="424" y="0" type="line"/>
			<point x="596" y="0" type="line"/>
			<point x="596" y="650" type="line"/>
			<point x="196" y="650" type="line"/>
			<point x="174" y="532"/>
			<point x="154" y="412"/>
			<point x="128" y="296" type="curve" smooth="yes"/>
			<point x="98" y="162"/>
			<point x="76" y="148"/>
			<point x="44" y="148" type="curve" smooth="yes"/>
			<point x="32" y="148"/>
			<point x="24" y="150"/>
			<point x="16" y="152" type="curve"/>
			<point x="-14" y="-2" type="line"/>
			<point x="8" y="-8"/>
			<point x="30" y="-12"/>
		</contour>
	</outline>
</glyph>
<glyph name="Ef" format="2">
	<unicode hex="0424"/>
	<advance width="776"/>
	<outline>
		<contour>
			<point x="356" y="72" type="curve" smooth="yes"/>
			<point x="420" y="72" type="line" smooth="yes"/>
			<point x="610" y="72"/>
			<point x="732" y="154"/>
			<point x="732" y="328" type="curve" smooth="yes"/>
			<point x="732" y="502"/>
			<point x="610" y="580"/>
			<point x="420" y="580" type="curve" smooth="yes"/>
			<point x="356" y="580" type="line" smooth="yes"/>
			<point x="166" y="580"/>
			<point x="44" y="502"/>
			<point x="44" y="328" type="curve" smooth="yes"/>
			<point x="44" y="154"/>
			<point x="166" y="72"/>
		</contour>
		<contour>
			<point x="342" y="198" type="line" smooth="yes"/>
			<point x="260" y="198"/>
			<point x="204" y="236"/>
			<point x="204" y="328" type="curve" smooth="yes"/>
			<point x="204" y="420"/>
			<point x="260" y="454"/>
			<point x="342" y="454" type="curve" smooth="yes"/>
			<point x="434" y="454" type="line" smooth="yes"/>
			<point x="516" y="454"/>
			<point x="572" y="420"/>
			<point x="572" y="328" type="curve" smooth="yes"/>
			<point x="572" y="236"/>
			<point x="516" y="198"/>
			<point x="434" y="198" type="curve" smooth="yes"/>
		</contour>
		<contour>
			<point x="314" y="-12" type="line"/>
			<point x="462" y="-12" type="line"/>
			<point x="462" y="662" type="line"/>
			<point x="314" y="662" type="line"/>
		</contour>
	</outline>
</glyph>
<glyph name="Che" format="2">
	<unicode hex="0427"/>
	<advance width="642"/>
	<outline>
		<contour>
			<point x="398" y="0" type="line"/>
			<point x="570" y="0" type="line"/>
			<point x="570" y="650" type="line"/>
			<point x="398" y="650" type="line"/>
			<point x="398" y="368" type="line"/>
			<point x="380" y="364"/>
			<point x="360" y="362"/>
			<point x="326" y="362" type="curve" smooth="yes"/>
			<point x="254" y="362"/>
			<point x="226" y="392"/>
			<point x="226" y="474" type="curve" smooth="yes"/>
			<point x="226" y="650" type="line"/>
			<point x="58" y="650" type="line"/>
			<point x="58" y="474" type="line" smooth="yes"/>
			<point x="58" y="292"/>
			<point x="152" y="226"/>
			<point x="308" y="226" type="curve" smooth="yes"/>
			<point x="348" y="226"/>
			<point x="370" y="228"/>
			<point x="398" y="232" type="curve"/>
		</contour>
	</outline>
	<anchor name="aboveUC" x="314" y="672"/>
</glyph>
<glyph name="Shcha" format="1">
	<unicode hex="0429"/>
	<advance width="946"/>
	<outline>
		<contour>
			<point x="770" y="-188" type="line"/>
			<point x="924" y="-188" type="line"/>
			<point x="938" y="36" type="line"/>
			<point x="938" y="144" type="line"/>
			<point x="746" y="144" type="line"/>
			<point x="746" y="0" type="line"/>
			<point x="770" y="0" type="line"/>
		</contour>
		<component base="Sha"/>
	</outline>
</glyph>
<glyph name="Hard" format="2">
	<unicode hex="042A"/>
	<advance width="734"/>
	<outline>
		<contour>
			<point x="208" y="0" type="line"/>
			<point x="440" y="0" type="line" smooth="yes"/>
			<point x="580" y="0"/>
			<point x="700" y="54"/>
			<point x="700" y="218" type="curve" smooth="yes"/>
			<point x="700" y="363"/>
			<point x="574" y="424"/>
			<point x="436" y="424" type="curve" smooth="yes"/>
			<point x="380" y="424" type="line"/>
			<point x="380" y="650" type="line"/>
			<point x="24" y="650" type="line"/>
			<point x="24" y="506" type="line"/>
			<point x="208" y="506" type="line"/>
		</contour>
		<contour>
			<point x="380" y="136" type="line"/>
			<point x="380" y="288" type="line"/>
			<point x="428" y="288" type="line" smooth="yes"/>
			<point x="498" y="288"/>
			<point x="532" y="262"/>
			<point x="532" y="216" type="curve" smooth="yes"/>
			<point x="532" y="158"/>
			<point x="496" y="136"/>
			<point x="432" y="136" type="curve" smooth="yes"/>
		</contour>
	</outline>
</glyph>
<glyph name="Soft" format="2">
	<unicode hex="042C"/>
	<advance width="608"/>
	<outline>
		<contour>
			<point x="72" y="0" type="line"/>
			<point x="310" y="0" type="line" smooth="yes"/>
			<point x="454" y="0"/>
			<point x="574" y="54"/>
			<point x="574" y="218" type="curve" smooth="yes"/>
			<point x="574" y="366"/>
			<point x="462" y="424"/>
			<point x="314" y="424" type="curve" smooth="yes"/>
			<point x="244" y="424" type="line"/>
			<point x="244" y="650" type="line"/>
			<point x="72" y="650" type="line"/>
		</contour>
		<contour>
			<point x="244" y="136" type="line"/>
			<point x="244" y="288" type="line"/>
			<point x="302" y="288" type="line" smooth="yes"/>
			<point x="372" y="288"/>
			<point x="406" y="264"/>
			<point x="406" y="216" type="curve" smooth="yes"/>
			<point x="406" y="158"/>
			<point x="366" y="136"/>
			<point x="302" y="136" type="curve" smooth="yes"/>
		</contour>
	</outline>
</glyph>
<glyph name="ve" format="2">
	<unicode hex="0432"/>
	<advance width="536"/>
	<outline>
		<contour>
			<point x="58" y="0" type="line"/>
			<point x="292" y="0" type="line" smooth="yes"/>
			<point x="405" y="0"/>
			<point x="504" y="40"/>
			<point x="504" y="144" type="curve" smooth="yes"/>
			<point x="504" y="210"/>
			<point x="466" y="244"/>
			<point x="402" y="260" type="curve"/>
			<point x="402" y="264" type="line"/>
			<point x="464" y="281"/>
			<point x="486" y="328"/>
			<point x="486" y="366" type="curve" smooth="yes"/>
			<point x="486" y="469"/>
			<point x="391" y="500"/>
			<point x="278" y="500" type="curve" smooth="yes"/>
			<point x="58" y="500" type="line"/>
		</contour>
		<contour>
			<point x="226" y="310" type="line"/>
			<point x="226" y="388" type="line"/>
			<point x="270" y="388" type="line" smooth="yes"/>
			<point x="308" y="388"/>
			<point x="322" y="372"/>
			<point x="322" y="348" type="curve" smooth="yes"/>
			<point x="322" y="324"/>
			<point x="307" y="310"/>
			<point x="271" y="310" type="curve" smooth="yes"/>
		</contour>
		<contour>
			<point x="226" y="112" type="line"/>
			<point x="226" y="198" type="line"/>
			<point x="284" y="198" type="line" smooth="yes"/>
			<point x="324" y="198"/>
			<point x="338" y="178"/>
			<point x="338" y="156" type="curve" smooth="yes"/>
			<point x="338" y="132"/>
			<point x="325" y="112"/>
			<point x="284" y="112" type="curve" smooth="yes"/>
		</contour>
	</outline>
</glyph>
<glyph name="icyr" format="2">
	<unicode hex="0438"/>
	<advance width="590"/>
	<outline>
		<contour>
			<point x="58" y="0" type="line"/>
			<point x="214" y="0" type="line"/>
			<point x="323" y="184" type="line" smooth="yes"/>
			<point x="337" y="212"/>
			<point x="362" y="258"/>
			<point x="377" y="288" type="curve"/>
			<point x="381" y="288" type="line"/>
			<point x="374" y="227"/>
			<point x="366" y="162"/>
			<point x="366" y="113" type="curve" smooth="yes"/>
			<point x="366" y="0" type="line"/>
			<point x="532" y="0" type="line"/>
			<point x="532" y="500" type="line"/>
			<point x="376" y="500" type="line"/>
			<point x="268" y="316" type="line" smooth="yes"/>
			<point x="254" y="287"/>
			<point x="228" y="242"/>
			<point x="213" y="212" type="curve"/>
			<point x="210" y="212" type="line"/>
			<point x="216" y="272"/>
			<point x="224" y="338"/>
			<point x="224" y="387" type="curve" smooth="yes"/>
			<point x="224" y="500" type="line"/>
			<point x="58" y="500" type="line"/>
		</contour>
	</outline>
	<anchor name="aboveLC" x="300" y="522"/>
</glyph>
<glyph name="ka" format="2">
	<unicode hex="043A"/>
	<advance width="568"/>
	<outline>
		<contour>
			<point x="58" y="0" type="line"/>
			<point x="228" y="0" type="line"/>
			<point x="228" y="190" type="line"/>
			<point x="284" y="190" type="line"/>
			<point x="378" y="0" type="line"/>
			<point x="564" y="0" type="line"/>
			<point x="410" y="262" type="line"/>
			<point x="430" y="306" type="line" smooth="yes"/>
			<point x="447" y="344"/>
			<point x="466" y="350"/>
			<point x="490" y="350" type="curve" smooth="yes"/>
			<point x="497" y="350"/>
			<point x="504" y="348"/>
			<point x="510" y="346" type="curve"/>
			<point x="536" y="504" type="line"/>
			<point x="522" y="510"/>
			<point x="508" y="512"/>
			<point x="492" y="512" type="curve" smooth="yes"/>
			<point x="413" y="512"/>
			<point x="364" y="492"/>
			<point x="322" y="408" type="curve" smooth="yes"/>
			<point x="280" y="324" type="line"/>
			<point x="228" y="324" type="line"/>
			<point x="228" y="500" type="line"/>
			<point x="58" y="500" type="line"/>
		</contour>
	</outline>
	<anchor name="aboveLC" x="300" y="522"/>
</glyph>
<glyph name="ucyr" format="1">
	<unicode hex="0443"/>
	<advance width="542"/>
	<outline>
		<component base="y"/>
		<contour>
			<point name="aboveLC" x="276" y="522" type="move"/>
		</contour>
	</outline>
</glyph>
<glyph name="ef" format="2">
	<unicode hex="0444"/>
	<advance width="796"/>
	<outline>
		<contour>
			<point x="314" y="-176" type="line"/>
			<point x="482" y="-176" type="line"/>
			<point x="482" y="-60" type="line"/>
			<point x="476" y="12" type="line"/>
			<point x="501" y="-4"/>
			<point x="530" y="-12"/>
			<point x="562" y="-12" type="curve" smooth="yes"/>
			<point x="664" y="-12"/>
			<point x="760" y="86"/>
			<point x="760" y="258" type="curve" smooth="yes"/>
			<point x="760" y="412"/>
			<point x="686" y="512"/>
			<point x="576" y="512" type="curve" smooth="yes"/>
			<point x="541" y="512"/>
			<point x="504" y="498"/>
			<point x="476" y="483" type="curve"/>
			<point x="482" y="560" type="line"/>
			<point x="482" y="696" type="line"/>
			<point x="314" y="696" type="line"/>
			<point x="314" y="560" type="line"/>
			<point x="320" y="488" type="line"/>
			<point x="297" y="502"/>
			<point x="270" y="512"/>
			<point x="230" y="512" type="curve" smooth="yes"/>
			<point x="134" y="512"/>
			<point x="36" y="414"/>
			<point x="36" y="250" type="curve" smooth="yes"/>
			<point x="36" y="88"/>
			<point x="112" y="-12"/>
			<point x="230" y="-12" type="curve" smooth="yes"/>
			<point x="261" y="-12"/>
			<point x="294" y="1"/>
			<point x="320" y="15" type="curve"/>
			<point x="314" y="-60" type="line"/>
		</contour>
		<contour>
			<point x="276" y="128" type="curve" smooth="yes"/>
			<point x="236" y="128"/>
			<point x="212" y="162"/>
			<point x="212" y="252" type="curve" smooth="yes"/>
			<point x="212" y="340"/>
			<point x="241" y="372"/>
			<point x="272" y="372" type="curve" smooth="yes"/>
			<point x="288" y="372"/>
			<point x="306" y="368"/>
			<point x="320" y="358" type="curve"/>
			<point x="320" y="144" type="line"/>
			<point x="308" y="132"/>
			<point x="294" y="128"/>
		</contour>
		<contour>
			<point x="520" y="128" type="curve" smooth="yes"/>
			<point x="505" y="128"/>
			<point x="490" y="131"/>
			<point x="476" y="142" type="curve"/>
			<point x="476" y="356" type="line"/>
			<point x="492" y="368"/>
			<point x="506" y="372"/>
			<point x="524" y="372" type="curve" smooth="yes"/>
			<point x="562" y="372"/>
			<point x="584" y="338"/>
			<point x="584" y="256" type="curve" smooth="yes"/>
			<point x="584" y="160"/>
			<point x="556" y="128"/>
		</contour>
	</outline>
</glyph>
<glyph name="che" format="2">
	<unicode hex="0447"/>
	<advance width="564"/>
	<outline>
		<contour>
			<point x="334" y="0" type="line"/>
			<point x="506" y="0" type="line"/>
			<point x="506" y="500" type="line"/>
			<point x="334" y="500" type="line"/>
			<point x="334" y="291" type="line"/>
			<point x="320" y="288"/>
			<point x="306" y="286"/>
			<point x="288" y="286" type="curve" smooth="yes"/>
			<point x="236" y="286"/>
			<point x="216" y="310"/>
			<point x="216" y="353" type="curve" smooth="yes"/>
			<point x="216" y="500" type="line"/>
			<point x="44" y="500" type="line"/>
			<point x="44" y="353" type="line"/>
			<point x="44" y="208"/>
			<point x="134" y="152"/>
			<point x="250" y="152" type="curve" smooth="yes"/>
			<point x="290" y="152"/>
			<point x="310" y="154"/>
			<point x="334" y="159" type="curve"/>
		</contour>
	</outline>
	<anchor name="aboveLC" x="276" y="522"/>
</glyph>
<glyph name="hard" format="2">
	<unicode hex="044A"/>
	<advance width="634"/>
	<outline>
		<contour>
			<point x="166" y="0" type="line"/>
			<point x="380" y="0" type="line" smooth="yes"/>
			<point x="502" y="0"/>
			<point x="600" y="42"/>
			<point x="600" y="177" type="curve" smooth="yes"/>
			<point x="600" y="308"/>
			<point x="502" y="350"/>
			<point x="380" y="350" type="curve" smooth="yes"/>
			<point x="338" y="350" type="line"/>
			<point x="338" y="500" type="line"/>
			<point x="26" y="500" type="line"/>
			<point x="26" y="366" type="line"/>
			<point x="166" y="366" type="line"/>
		</contour>
		<contour>
			<point x="338" y="130" type="line"/>
			<point x="338" y="224" type="line"/>
			<point x="374" y="224" type="line" smooth="yes"/>
			<point x="416" y="224"/>
			<point x="436" y="208"/>
			<point x="436" y="178" type="curve" smooth="yes"/>
			<point x="436" y="146"/>
			<point x="416" y="130"/>
			<point x="374" y="130" type="curve" smooth="yes"/>
		</contour>
	</outline>
</glyph>
<glyph name="soft" format="2">
	<unicode hex="044C"/>
	<advance width="526"/>
	<outline>
		<contour>
			<point x="58" y="0" type="line"/>
			<point x="272" y="0" type="line" smooth="yes"/>
			<point x="394" y="0"/>
			<point x="492" y="42"/>
			<point x="492" y="177" type="curve" smooth="yes"/>
			<point x="492" y="308"/>
			<point x="394" y="350"/>
			<point x="272" y="350" type="curve" smooth="yes"/>
			<point x="230" y="350" type="line"/>
			<point x="230" y="500" type="line"/>
			<point x="58" y="500" type="line"/>
		</contour>
		<contour>
			<point x="230" y="130" type="line"/>
			<point x="230" y="224" type="line"/>
			<point x="266" y="224" type="line" smooth="yes"/>
			<point x="308" y="224"/>
			<point x="328" y="208"/>
			<point x="328" y="178" type="curve" smooth="yes"/>
			<point x="328" y="146"/>
			<point x="308" y="130"/>
			<point x="266" y="130" type="curve" smooth="yes"/>
		</contour>
	</outline>
</glyph>
<glyph name="ecyr" format="2">
	<unicode hex="044D"/>
	<advance width="472"/>
	<outline>
		<contour>
			<point x="188" y="-12" type="curve" smooth="yes"/>
			<point x="332" y="-12"/>
			<point x="440" y="78"/>
			<point x="440" y="250" type="curve" smooth="yes"/>
			<point x="440" y="426"/>
			<point x="328" y="512"/>
			<point x="184" y="512" type="curve" smooth="yes"/>
			<point x="124" y="512"/>
			<point x="64" y="490"/>
			<point x="26" y="454" type="curve"/>
			<point x="98" y="358" type="line"/>
			<point x="121" y="374"/>
			<point x="146" y="382"/>
			<point x="174" y="382" type="curve" smooth="yes"/>
			<point x="242" y="382"/>
			<point x="280" y="350"/>
			<point x="280" y="250" type="curve" smooth="yes"/>
			<point x="280" y="154"/>
			<point x="236" y="118"/>
			<point x="168" y="118" type="curve" smooth="yes"/>
			<point x="138" y="118"/>
			<point x="104" y="130"/>
			<point x="82" y="146" type="curve"/>
			<point x="20" y="48" type="line"/>
			<point x="66" y="2"/>
			<point x="132" y="-12"/>
		</contour>
		<contour>
			<point x="120" y="198" type="line"/>
			<point x="375" y="198" type="line"/>
			<point x="375" y="310" type="line"/>
			<point x="120" y="310" type="line"/>
		</contour>
	</outline>
	<anchor name="aboveLC" x="214" y="522"/>
</glyph>
<glyph name="ya" format="2">
	<unicode hex="044F"/>
	<advance width="556"/>
	<outline>
		<contour>
			<point x="326" y="0" type="line"/>
			<point x="498" y="0" type="line"/>
			<point x="498" y="500" type="line"/>
			<point x="271" y="500" type="line" smooth="yes"/>
			<point x="154" y="500"/>
			<point x="58" y="458"/>
			<point x="58" y="328" type="curve" smooth="yes"/>
			<point x="58" y="199"/>
			<point x="184" y="152"/>
			<point x="284" y="152" type="curve" smooth="yes"/>
			<point x="326" y="152" type="line"/>
		</contour>
		<contour>
			<point x="291" y="264" type="line" smooth="yes"/>
			<point x="247" y="264"/>
			<point x="227" y="289"/>
			<point x="227" y="323" type="curve" smooth="yes"/>
			<point x="227" y="356"/>
			<point x="247" y="374"/>
			<point x="291" y="374" type="curve" smooth="yes"/>
			<point x="326" y="374" type="line"/>
			<point x="326" y="264" type="line"/>
		</contour>
		<contour>
			<point x="8" y="0" type="line"/>
			<point x="199" y="0" type="line"/>
			<point x="312" y="196" type="line"/>
			<point x="171" y="242" type="line"/>
		</contour>
	</outline>
	<anchor name="aboveLC" x="292" y="522"/>
</glyph>
<glyph name="dje" format="1">
	<unicode hex="0452"/>
	<advance width="582"/>
	<outline>
		<contour>
			<point x="304" y="-188" type="curve" smooth="yes"/>
			<point x="454" y="-188"/>
			<point x="548" y="-96"/>
			<point x="548" y="184" type="curve" smooth="yes"/>
			<point x="548" y="360"/>
			<point x="484" y="460"/>
			<point x="361" y="460" type="curve" smooth="yes"/>
			<point x="298" y="460"/>
			<point x="254" y="426"/>
			<point x="222" y="396" type="curve"/>
			<point x="230" y="482" type="line"/>
			<point x="230" y="696" type="line"/>
			<point x="58" y="696" type="line"/>
			<point x="58" y="0" type="line"/>
			<point x="230" y="0" type="line"/>
			<point x="230" y="276" type="line"/>
			<point x="253" y="300"/>
			<point x="272" y="314"/>
			<point x="295" y="314" type="curve" smooth="yes"/>
			<point x="344" y="314"/>
			<point x="372" y="297"/>
			<point x="372" y="162" type="curve" smooth="yes"/>
			<point x="372" y="-10"/>
			<point x="332" y="-54"/>
			<point x="286" y="-54" type="curve" smooth="yes"/>
			<point x="274" y="-54"/>
			<point x="264" y="-52"/>
			<point x="250" y="-48" type="curve"/>
			<point x="220" y="-174" type="line"/>
			<point x="240" y="-182"/>
			<point x="264" y="-188"/>
		</contour>
		<contour>
			<point x="-8" y="518" type="line"/>
			<point x="394" y="518" type="line"/>
			<point x="394" y="630" type="line"/>
			<point x="68" y="630" type="line"/>
			<point x="-8" y="624" type="line"/>
		</contour>
	</outline>
</glyph>
<glyph name="ieukran" format="1">
	<unicode hex="0454"/>
	<advance width="472"/>
	<outline>
		<contour>
			<point x="284" y="-12" type="curve" smooth="yes"/>
			<point x="336" y="-12"/>
			<point x="400" y="2"/>
			<point x="450" y="46" type="curve"/>
			<point x="390" y="146" type="line"/>
			<point x="366" y="128"/>
			<point x="340" y="118"/>
			<point x="302" y="118" type="curve" smooth="yes"/>
			<point x="238" y="118"/>
			<point x="192" y="158"/>
			<point x="192" y="250" type="curve" smooth="yes"/>
			<point x="192" y="342"/>
			<point x="232" y="382"/>
			<point x="308" y="382" type="curve" smooth="yes"/>
			<point x="334" y="382"/>
			<point x="348" y="378"/>
			<point x="372" y="362" type="curve"/>
			<point x="446" y="460" type="line"/>
			<point x="408" y="492"/>
			<point x="360" y="512"/>
			<point x="300" y="512" type="curve" smooth="yes"/>
			<point x="158" y="512"/>
			<point x="32" y="422"/>
			<point x="32" y="250" type="curve" smooth="yes"/>
			<point x="32" y="78"/>
			<point x="142" y="-12"/>
		</contour>
		<contour>
			<point x="132" y="198" type="line"/>
			<point x="345" y="198" type="line"/>
			<point x="345" y="310" type="line"/>
			<point x="132" y="310" type="line"/>
		</contour>
		<contour>
			<point name="aboveLC" x="280" y="522" type="move"/>
		</contour>
	</outline>
</glyph>
<glyph name="nje" format="2">
	<unicode hex="045A"/>
	<advance width="800"/>
	<outline>
		<contour>
			<point x="58" y="0" type="line"/>
			<point x="230" y="0" type="line"/>
			<point x="230" y="178" type="line"/>
			<point x="344" y="178" type="line"/>
			<point x="344" y="0" type="line"/>
			<point x="546" y="0" type="line" smooth="yes"/>
			<point x="668" y="0"/>
			<point x="766" y="42"/>
			<point x="766" y="177" type="curve" smooth="yes"/>
			<point x="766" y="308"/>
			<point x="668" y="350"/>
			<point x="546" y="350" type="curve" smooth="yes"/>
			<point x="516" y="350" type="line"/>
			<point x="516" y="500" type="line"/>
			<point x="344" y="500" type="line"/>
			<point x="344" y="328" type="line"/>
			<point x="230" y="328" type="line"/>
			<point x="230" y="500" type="line"/>
			<point x="58" y="500" type="line"/>
		</contour>
		<contour>
			<point x="516" y="130" type="line"/>
			<point x="516" y="224" type="line"/>
			<point x="540" y="224" type="line" smooth="yes"/>
			<point x="582" y="224"/>
			<point x="602" y="208"/>
			<point x="602" y="178" type="curve" smooth="yes"/>
			<point x="602" y="146"/>
			<point x="582" y="130"/>
			<point x="540" y="130" type="curve" smooth="yes"/>
		</contour>
	</outline>
</glyph>
<glyph name="yat" format="2">
	<unicode hex="0463"/>
	<advance width="610"/>
	<outline>
		<contour>
			<point x="146" y="0" type="line"/>
			<point x="356" y="0" type="line" smooth="yes"/>
			<point x="478" y="0"/>
			<point x="576" y="42"/>
			<point x="576" y="177" type="curve" smooth="yes"/>
			<point x="576" y="308"/>
			<point x="478" y="350"/>
			<point x="356" y="350" type="curve" smooth="yes"/>
			<point x="318" y="350" type="line"/>
			<point x="318" y="420" type="line"/>
			<point x="478" y="420" type="line"/>
			<point x="478" y="554" type="line"/>
			<point x="318" y="554" type="line"/>
			<point x="318" y="630" type="line"/>
			<point x="146" y="630" type="line"/>
			<point x="146" y="554" type="line"/>
			<point x="26" y="554" type="line"/>
			<point x="26" y="420" type="line"/>
			<point x="146" y="420" type="line"/>
		</contour>
		<contour>
			<point x="318" y="130" type="line"/>
			<point x="318" y="224" type="line"/>
			<point x="350" y="224" type="line" smooth="yes"/>
			<point x="392" y="224"/>
			<point x="412" y="208"/>
			<point x="412" y="178" type="curve" smooth="yes"/>
			<point x="412" y="146"/>
			<point x="392" y="130"/>
			<point x="350" y="130" type="curve" smooth="yes"/>
		</contour>
	</outline>
</glyph>
<glyph name="Izhitsa" format="1">
	<unicode hex="0474"/>
	<advance width="592"/>
	<outline>
		<contour>
			<point x="178" y="0" type="line"/>
			<point x="394" y="0" type="line"/>
			<point x="512" y="442" type="line" smooth="yes"/>
			<point x="521" y="476"/>
			<point x="536" y="502"/>
			<point x="566" y="502" type="curve" smooth="yes"/>
			<point x="578" y="502"/>
			<point x="590" y="498"/>
			<point x="598" y="496" type="curve"/>
			<point x="628" y="650" type="line"/>
			<point x="606" y="658"/>
			<point x="588" y="662"/>
			<point x="548" y="662" type="curve" smooth="yes"/>
			<point x="442" y="662"/>
			<point x="397" y="606"/>
			<point x="360" y="474" type="curve" smooth="yes"/>
			<point x="330" y="366" type="line" smooth="yes"/>
			<point x="310" y="294"/>
			<point x="302" y="230"/>
			<point x="288" y="160" type="curve"/>
			<point x="284" y="160" type="line"/>
			<point x="266" y="230"/>
			<point x="252" y="294"/>
			<point x="236" y="366" type="curve" smooth="yes"/>
			<point x="172" y="650" type="line"/>
			<point x="-10" y="650" type="line"/>
		</contour>
		<contour>
			<point name="aboveUC" x="310" y="672" type="move"/>
		</contour>
	</outline>
</glyph>
<glyph name="Ghestroke" format="2">
	<unicode hex="0492"/>
	<advance width="556"/>
	<outline>
		<contour>
			<point x="24" y="252" type="line"/>
			<point x="386" y="252" type="line"/>
			<point x="386" y="364" type="line"/>
			<point x="100" y="364" type="line"/>
			<point x="24" y="358" type="line"/>
		</contour>
		<component base="Gamma" xOffset="26"/>
	</outline>
</glyph>
<glyph name="zhedescender" format="2">
	<unicode hex="0497"/>
	<advance width="836"/>
	<outline>
		<contour>
			<point x="666" y="-172" type="line"/>
			<point x="812" y="-172" type="line"/>
			<point x="828" y="20" type="line"/>
			<point x="828" y="134" type="line"/>
			<point x="636" y="134" type="line"/>
			<point x="636" y="0" type="line"/>
			<point x="666" y="0" type="line"/>
		</contour>
		<component base="zhe"/>
	</outline>
</glyph>
<glyph name="Kadescender" format="2">
	<unicode hex="049A"/>
	<advance width="682"/>
	<outline>
		<contour>
			<point x="506" y="-188" type="line"/>
			<point x="660" y="-188" type="line"/>
			<point x="674" y="36" type="line"/>
			<point x="674" y="144" type="line"/>
			<point x="476" y="144" type="line"/>
			<point x="476" y="0" type="line"/>
			<point x="506" y="0" type="line"/>
		</contour>
		<component base="Ka"/>
	</outline>
</glyph>
<glyph name="kadescender" format="2">
	<unicode hex="049B"/>
	<advance width="608"/>
	<outline>
		<contour>
			<point x="438" y="-172" type="line"/>
			<point x="584" y="-172" type="line"/>
			<point x="600" y="20" type="line"/>
			<point x="600" y="134" type="line"/>
			<point x="408" y="134" type="line"/>
			<point x="408" y="0" type="line"/>
			<point x="438" y="0" type="line"/>
		</contour>
		<component base="ka"/>
	</outline>
</glyph>
<glyph name="Kabashkir" format="1">
	<unicode hex="04A0"/>
	<advance width="762"/>
	<outline>
		<contour>
			<point x="196" y="0" type="line"/>
			<point x="368" y="0" type="line"/>
			<point x="368" y="264" type="line"/>
			<point x="424" y="264" type="line"/>
			<point x="586" y="0" type="line"/>
			<point x="766" y="0" type="line"/>
			<point x="558" y="344" type="line"/>
			<point x="622" y="452" type="line" smooth="yes"/>
			<point x="644" y="490"/>
			<point x="660" y="502"/>
			<point x="690" y="502" type="curve" smooth="yes"/>
			<point x="696" y="502"/>
			<point x="708" y="502"/>
			<point x="720" y="498" type="curve"/>
			<point x="748" y="652" type="line"/>
			<point x="732" y="660"/>
			<point x="708" y="662"/>
			<point x="688" y="662" type="curve" smooth="yes"/>
			<point x="608" y="662"/>
			<point x="554" y="630"/>
			<point x="506" y="546" type="curve" smooth="yes"/>
			<point x="424" y="402" type="line"/>
			<point x="368" y="402" type="line"/>
			<point x="368" y="650" type="line"/>
			<point x="24" y="650" type="line"/>
			<point x="24" y="506" type="line"/>
			<point x="196" y="506" type="line"/>
		</contour>
	</outline>
</glyph>
<glyph name="Esdescender" format="2">
	<unicode hex="04AA"/>
	<advance width="586"/>
	<outline>
		<contour>
			<point x="272" y="-188" type="line"/>
			<point x="426" y="-188" type="line"/>
			<point x="440" y="24" type="line"/>
			<point x="272" y="0" type="line"/>
		</contour>
		<component base="C"/>
	</outline>
</glyph>
<glyph name="Ustraightstroke" format="1">
	<unicode hex="04B0"/>
	<advance width="544"/>
	<outline>
		<contour>
			<point x="44" y="194" type="line"/>
			<point x="500" y="194" type="line"/>
			<point x="500" y="306" type="line"/>
			<point x="140" y="306" type="line"/>
			<point x="44" y="300" type="line"/>
		</contour>
		<component base="Y"/>
		<contour>
			<point name="aboveUC" x="270" y="672" type="move"/>
		</contour>
	</outline>
</glyph>
<glyph name="ustraightstroke" format="1">
	<unicode hex="04B1"/>
	<advance width="544"/>
	<outline>
		<contour>
			<point x="50" y="0" type="line"/>
			<point x="494" y="0" type="line"/>
			<point x="494" y="112" type="line"/>
			<point x="126" y="112" type="line"/>
			<point x="50" y="106" type="line"/>
		</contour>
		<component base="ustraight"/>
		<contour>
			<point name="aboveLC" x="274" y="522" type="move"/>
		</contour>
	</outline>
</glyph>
<glyph name="Hadescender" format="2">
	<unicode hex="04B2"/>
	<advance width="626"/>
	<outline>
		<contour>
			<point x="454" y="-188" type="line"/>
			<point x="604" y="-188" type="line"/>
			<point x="618" y="36" type="line"/>
			<point x="618" y="144" type="line"/>
			<point x="420" y="144" type="line"/>
			<point x="420" y="0" type="line"/>
			<point x="454" y="0" type="line"/>
		</contour>
		<component base="X"/>
	</outline>
</glyph>
<glyph name="Shha" format="2">
	<unicode hex="04BA"/>
	<advance width="642"/>
	<outline>
		<contour>
			<point x="72" y="0" type="line"/>
			<point x="244" y="0" type="line"/>
			<point x="244" y="286" type="line"/>
			<point x="262" y="290"/>
			<point x="282" y="292"/>
			<point x="316" y="292" type="curve" smooth="yes"/>
			<point x="388" y="292"/>
			<point x="416" y="262"/>
			<point x="416" y="180" type="curve" smooth="yes"/>
			<point x="416" y="0" type="line"/>
			<point x="584" y="0" type="line"/>
			<point x="584" y="180" type="line" smooth="yes"/>
			<point x="584" y="362"/>
			<point x="490" y="428"/>
			<point x="334" y="428" type="curve" smooth="yes"/>
			<point x="294" y="428"/>
			<point x="272" y="426"/>
			<point x="244" y="422" type="curve"/>
			<point x="244" y="650" type="line"/>
			<point x="72" y="650" type="line"/>
		</contour>
	</outline>
</glyph>
<glyph name="Ghedescender" format="2">
	<unicode hex="04F6"/>
	<advance width="530"/>
	<outline>
		<contour>
			<point x="158" y="-188" type="line"/>
			<point x="312" y="-188" type="line"/>
			<point x="326" y="36" type="line"/>
			<point x="326" y="144" type="line"/>
			<point x="134" y="144" type="line"/>
			<point x="134" y="0" type="line"/>
			<point x="158" y="0" type="line"/>
		</contour>
		<component base="Ghe"/>
	</outline>
</glyph>
<glyph name="J.sups" format="2">
	<unicode hex="1D36"/>
	<advance width="353"/>
	<outline>
		<contour>
			<point x="155" y="360" type="curve" smooth="yes"/>
			<point x="261" y="360"/>
			<point x="308" y="434"/>
			<point x="308" y="521" type="curve" smooth="yes"/>
			<point x="308" y="800" type="line"/>
			<point x="188" y="800" type="line"/>
			<point x="188" y="531" type="line" smooth="yes"/>
			<point x="188" y="475"/>
			<point x="172" y="462"/>
			<point x="142" y="462" type="curve" smooth="yes"/>
			<point x="122" y="462"/>
			<point x="101" y="475"/>
			<point x="87" y="504" type="curve"/>
			<point x="6" y="444" type="line"/>
			<point x="39" y="387"/>
			<point x="85" y="360"/>
		</contour>
	</outline>
</glyph>
<glyph name="K.sups" format="2">
	<unicode hex="1D37"/>
	<advance width="425"/>
	<outline>
		<contour>
			<point x="47" y="368" type="line"/>
			<point x="167" y="368" type="line"/>
			<point x="167" y="478" type="line"/>
			<point x="208" y="534" type="line"/>
			<point x="302" y="368" type="line"/>
			<point x="433" y="368" type="line"/>
			<point x="277" y="626" type="line"/>
			<point x="407" y="800" type="line"/>
			<point x="276" y="800" type="line"/>
			<point x="170" y="644" type="line"/>
			<point x="167" y="644" type="line"/>
			<point x="167" y="800" type="line"/>
			<point x="47" y="800" type="line"/>
		</contour>
	</outline>
</glyph>
<glyph name="O.sups" format="2">
	<unicode hex="1D3C"/>
	<advance width="468"/>
	<outline>
		<contour>
			<point x="234" y="360" type="curve" smooth="yes"/>
			<point x="354" y="360"/>
			<point x="440" y="445"/>
			<point x="440" y="586" type="curve" smooth="yes"/>
			<point x="440" y="728"/>
			<point x="354" y="808"/>
			<point x="234" y="808" type="curve" smooth="yes"/>
			<point x="112" y="808"/>
			<point x="28" y="728"/>
			<point x="28" y="586" type="curve" smooth="yes"/>
			<point x="28" y="445"/>
			<point x="112" y="360"/>
		</contour>
		<contour>
			<point x="234" y="462" type="curve" smooth="yes"/>
			<point x="182" y="462"/>
			<point x="152" y="510"/>
			<point x="152" y="586" type="curve" smooth="yes"/>
			<point x="152" y="664"/>
			<point x="182" y="706"/>
			<point x="234" y="706" type="curve" smooth="yes"/>
			<point x="284" y="706"/>
			<point x="316" y="664"/>
			<point x="316" y="586" type="curve" smooth="yes"/>
			<point x="316" y="510"/>
			<point x="284" y="462"/>
		</contour>
	</outline>
</glyph>
<glyph name="R.sups" format="2">
	<unicode hex="1D3F"/>
	<advance width="426"/>
	<outline>
		<contour>
			<point x="47" y="368" type="line"/>
			<point x="167" y="368" type="line"/>
			<point x="167" y="511" type="line"/>
			<point x="216" y="511" type="line" smooth="yes"/>
			<point x="310" y="511"/>
			<point x="392" y="559"/>
			<point x="392" y="661" type="curve" smooth="yes"/>
			<point x="392" y="768"/>
			<point x="310" y="800"/>
			<point x="216" y="800" type="curve" smooth="yes"/>
			<point x="47" y="800" type="line"/>
		</contour>
		<contour>
			<point x="167" y="604" type="line"/>
			<point x="167" y="706" type="line"/>
			<point x="208" y="706" type="line" smooth="yes"/>
			<point x="252" y="706"/>
			<point x="275" y="692"/>
			<point x="275" y="657" type="curve" smooth="yes"/>
			<point x="275" y="624"/>
			<point x="252" y="604"/>
			<point x="208" y="604" type="curve" smooth="yes"/>
		</contour>
		<contour>
			<point x="283" y="368" type="line"/>
			<point x="417" y="368" type="line"/>
			<point x="275" y="621" type="line"/>
			<point x="194" y="542" type="line"/>
		</contour>
	</outline>
</glyph>
<glyph name="U.sups" format="2">
	<unicode hex="1D41"/>
	<advance width="454"/>
	<outline>
		<contour>
			<point x="230" y="360" type="curve" smooth="yes"/>
			<point x="354" y="360"/>
			<point x="410" y="430"/>
			<point x="410" y="580" type="curve" smooth="yes"/>
			<point x="410" y="800" type="line"/>
			<point x="294" y="800" type="line"/>
			<point x="294" y="565" type="line" smooth="yes"/>
			<point x="294" y="489"/>
			<point x="274" y="462"/>
			<point x="230" y="462" type="curve" smooth="yes"/>
			<point x="183" y="462"/>
			<point x="165" y="489"/>
			<point x="165" y="565" type="curve" smooth="yes"/>
			<point x="165" y="800" type="line"/>
			<point x="45" y="800" type="line"/>
			<point x="45" y="580" type="line" smooth="yes"/>
			<point x="45" y="430"/>
			<point x="98" y="360"/>
		</contour>
	</outline>
</glyph>
<glyph name="W.sups" format="2">
	<unicode hex="1D42"/>
	<advance width="558"/>
	<outline>
		<contour>
			<point x="84" y="368" type="line"/>
			<point x="236" y="368" type="line"/>
			<point x="264" y="535" type="line" smooth="yes"/>
			<point x="270" y="568"/>
			<point x="274" y="602"/>
			<point x="278" y="634" type="curve"/>
			<point x="280" y="634" type="line"/>
			<point x="284" y="602"/>
			<point x="290" y="568"/>
			<point x="296" y="535" type="curve" smooth="yes"/>
			<point x="328" y="368" type="line"/>
			<point x="480" y="368" type="line"/>
			<point x="552" y="800" type="line"/>
			<point x="438" y="800" type="line"/>
			<point x="415" y="615" type="line" smooth="yes"/>
			<point x="410" y="572"/>
			<point x="406" y="526"/>
			<point x="401" y="479" type="curve"/>
			<point x="399" y="479" type="line"/>
			<point x="392" y="526"/>
			<point x="383" y="573"/>
			<point x="375" y="615" type="curve" smooth="yes"/>
			<point x="334" y="800" type="line"/>
			<point x="232" y="800" type="line"/>
			<point x="192" y="615" type="line" smooth="yes"/>
			<point x="183" y="571"/>
			<point x="176" y="526"/>
			<point x="170" y="479" type="curve"/>
			<point x="167" y="479" type="line"/>
			<point x="162" y="526"/>
			<point x="156" y="570"/>
			<point x="151" y="615" type="curve" smooth="yes"/>
			<point x="130" y="800" type="line"/>
			<point x="6" y="800" type="line"/>
		</contour>
	</outline>
</glyph>
<glyph name="schwa.sups" format="2">
	<unicode hex="1D4A"/>
	<advance width="350"/>
	<outline>
		<contour>
			<point x="166" y="360" type="curve" smooth="yes"/>
			<point x="252" y="360"/>
			<point x="328" y="428"/>
			<point x="328" y="534" type="curve" smooth="yes"/>
			<point x="328" y="638"/>
			<point x="262" y="708"/>
			<point x="164" y="708" type="curve" smooth="yes"/>
			<point x="126" y="708"/>
			<point x="78" y="696"/>
			<point x="40" y="670" type="curve"/>
			<point x="80" y="600" type="line"/>
			<point x="104" y="614"/>
			<point x="126" y="618"/>
			<point x="148" y="618" type="curve" smooth="yes"/>
			<point x="184" y="618"/>
			<point x="204" y="604"/>
			<point x="214" y="566" type="curve"/>
			<point x="26" y="566" type="line"/>
			<point x="22" y="552"/>
			<point x="20" y="542"/>
			<point x="20" y="522" type="curve" smooth="yes"/>
			<point x="20" y="432"/>
			<point x="68" y="360"/>
		</contour>
		<contour>
			<point x="165" y="450" type="curve" smooth="yes"/>
			<point x="132" y="450"/>
			<point x="120" y="472"/>
			<point x="120" y="500" type="curve"/>
			<point x="216" y="500" type="line"/>
			<point x="210" y="464"/>
			<point x="190" y="450"/>
		</contour>
	</outline>
</glyph>
<glyph name="eopen.sups" format="2">
	<unicode hex="1D4B"/>
	<advance width="330"/>
	<outline>
		<contour>
			<point x="180" y="360" type="curve" smooth="yes"/>
			<point x="235" y="360"/>
			<point x="276" y="372"/>
			<point x="312" y="398" type="curve"/>
			<point x="274" y="468" type="line"/>
			<point x="252" y="456"/>
			<point x="226" y="450"/>
			<point x="208" y="450" type="curve" smooth="yes"/>
			<point x="176" y="450"/>
			<point x="158" y="460"/>
			<point x="158" y="476" type="curve" smooth="yes"/>
			<point x="158" y="492"/>
			<point x="168" y="498"/>
			<point x="194" y="498" type="curve" smooth="yes"/>
			<point x="248" y="498" type="line"/>
			<point x="248" y="576" type="line"/>
			<point x="204" y="576" type="line" smooth="yes"/>
			<point x="184" y="576"/>
			<point x="172" y="581"/>
			<point x="172" y="596" type="curve" smooth="yes"/>
			<point x="172" y="608"/>
			<point x="184" y="618"/>
			<point x="206" y="618" type="curve" smooth="yes"/>
			<point x="230" y="618"/>
			<point x="248" y="616"/>
			<point x="270" y="606" type="curve"/>
			<point x="310" y="676" type="line"/>
			<point x="280" y="696"/>
			<point x="236" y="708"/>
			<point x="194" y="708" type="curve" smooth="yes"/>
			<point x="116" y="708"/>
			<point x="50" y="678"/>
			<point x="50" y="612" type="curve" smooth="yes"/>
			<point x="50" y="584"/>
			<point x="66" y="554"/>
			<point x="108" y="544" type="curve"/>
			<point x="108" y="540" type="line"/>
			<point x="64" y="530"/>
			<point x="36" y="504"/>
			<point x="36" y="458" type="curve" smooth="yes"/>
			<point x="36" y="392"/>
			<point x="110" y="360"/>
		</contour>
	</outline>
	<guideline x="213" y="618" angle="0" identifier="n99waflzHa"/>
</glyph>
<glyph name="t.sups" format="2">
	<unicode hex="1D57"/>
	<advance width="270"/>
	<outline>
		<contour>
			<point x="178" y="360" type="curve" smooth="yes"/>
			<point x="216" y="360"/>
			<point x="240" y="366"/>
			<point x="260" y="372" type="curve"/>
			<point x="240" y="456" type="line"/>
			<point x="230" y="452"/>
			<point x="222" y="452"/>
			<point x="212" y="452" type="curve" smooth="yes"/>
			<point x="192" y="452"/>
			<point x="174" y="464"/>
			<point x="174" y="500" type="curve" smooth="yes"/>
			<point x="174" y="608" type="line"/>
			<point x="248" y="608" type="line"/>
			<point x="248" y="700" type="line"/>
			<point x="174" y="700" type="line"/>
			<point x="174" y="784" type="line"/>
			<point x="74" y="784" type="line"/>
			<point x="60" y="700" type="line"/>
			<point x="10" y="696" type="line"/>
			<point x="10" y="608" type="line"/>
			<point x="54" y="608" type="line"/>
			<point x="54" y="498" type="line" smooth="yes"/>
			<point x="54" y="416"/>
			<point x="90" y="360"/>
		</contour>
	</outline>
</glyph>
